<svg width="2811" height="1999" viewBox="0 0 2811 1999" fill="none" xmlns="http://www.w3.org/2000/svg">
<g clip-path="url(#clip0)">
<rect width="2811" height="1999" fill="white"/>
<path d="M956 1279H444V1640H956V1279Z" fill="#E4EDF6"/>
<path d="M1468 1043H700V1640H1468V1043Z" fill="#E4EDF6"/>
<path fill-rule="evenodd" clip-rule="evenodd" d="M1846 1272V1119.5L1951 1272V1119.5L2050.5 1272H2435V1640H1846V1272Z" fill="#EBF2F9"/>
<path d="M2435 389H2216V1272H2435V389Z" fill="#E4EDF6"/>
<path d="M2434.98 509H2215.98V556H2434.98V509Z" fill="#EBF2F9"/>
<path d="M2434.98 658H2215.98V706H2434.98V658Z" fill="#EBF2F9"/>
<path d="M2434.98 808H2215.98V855H2434.98V808Z" fill="#EBF2F9"/>
<path d="M2434.98 957H2215.98V1004H2434.98V957Z" fill="#EBF2F9"/>
<path d="M2434.98 1106H2215.98V1153H2434.98V1106Z" fill="#EBF2F9"/>
<path d="M588 557H444V1279H588V557Z" fill="#DFE9F3"/>
<path d="M1738 539H1594V1640H1738V539Z" fill="#EBF2F9"/>
<path d="M2435 1626H444V1640H2435V1626Z" fill="#CFDDEC"/>
<path fill-rule="evenodd" clip-rule="evenodd" d="M799 818H882C887.523 818 892 822.477 892 828V1043H789V828C789 822.477 793.477 818 799 818Z" fill="#DFE9F3"/>
<path fill-rule="evenodd" clip-rule="evenodd" d="M1120 818H1203C1208.52 818 1213 822.477 1213 828V1043H1110V828C1110 822.477 1114.48 818 1120 818Z" fill="#DFE9F3"/>
<path fill-rule="evenodd" clip-rule="evenodd" d="M959 818H1043C1048.52 818 1053 822.477 1053 828V1043H949V828C949 822.477 953.477 818 959 818Z" fill="#DFE9F3"/>
<path fill-rule="evenodd" clip-rule="evenodd" d="M1280 818H1364C1369.52 818 1374 822.477 1374 828V1043H1270V828C1270 822.477 1274.48 818 1280 818Z" fill="#DFE9F3"/>
<path fill-rule="evenodd" clip-rule="evenodd" d="M956 666C989.352 666 1016.45 692.767 1016.99 725.991L1017 727V818H985V727C985 711.144 972.275 698.26 956.48 698.004L956 698H885.5C869.644 698 856.76 710.725 856.504 726.52L856.5 727V818H824.5V727C824.5 693.648 851.267 666.547 884.491 666.008L885.5 666H956Z" fill="#DFE9F3"/>
<path fill-rule="evenodd" clip-rule="evenodd" d="M1277 666C1310.35 666 1337.45 692.767 1337.99 725.991L1338 727V818H1306V727C1306 711.144 1293.27 698.26 1277.48 698.004L1277 698H1206.5C1190.64 698 1177.76 710.725 1177.5 726.52L1177.5 727V818H1145.5V727C1145.5 693.648 1172.27 666.547 1205.49 666.008L1206.5 666H1277Z" fill="#DFE9F3"/>
<path fill-rule="evenodd" clip-rule="evenodd" d="M2216 884.5V921.5H2108.5V1447C2108.5 1489.92 2074.05 1524.8 2031.3 1525.49L2030 1525.5H1468V1488.5H1642V963C1642 920.079 1676.45 885.204 1719.2 884.511L1720.5 884.5H2216ZM2071.5 921.5H1720.5C1697.81 921.5 1679.37 939.71 1679.01 962.314L1679 963V1488.5H2030C2052.69 1488.5 2071.13 1470.29 2071.49 1447.69L2071.5 1447V921.5Z" fill="#DFE9F3"/>
<path d="M659 1721C583.337 1721 522 1659.89 522 1584.5C522 1509.11 583.337 1448 659 1448C734.663 1448 796 1509.11 796 1584.5C796 1659.89 734.663 1721 659 1721Z" fill="white" stroke="black" stroke-width="2.5" stroke-linecap="round" stroke-linejoin="round"/>
<path fill-rule="evenodd" clip-rule="evenodd" d="M665.528 1583.5H953C955.485 1583.5 957.5 1585.51 957.5 1588C957.5 1590.49 955.485 1592.5 953 1592.5H661.028C658.542 1592.5 656.528 1590.49 656.528 1588V1170C656.528 1162.54 650.483 1156.5 643.028 1156.5H552C549.515 1156.5 547.5 1154.49 547.5 1152C547.5 1149.51 549.515 1147.5 552 1147.5H643.028C655.454 1147.5 665.528 1157.57 665.528 1170V1583.5Z" fill="#D8D8D8" stroke="black" stroke-width="2.5" stroke-linecap="round" stroke-linejoin="round"/>
<path fill-rule="evenodd" clip-rule="evenodd" d="M948.5 1675V1350C948.5 1342.54 942.456 1336.5 935 1336.5H663C660.515 1336.5 658.5 1334.49 658.5 1332C658.5 1329.51 660.515 1327.5 663 1327.5H935C947.426 1327.5 957.5 1337.57 957.5 1350V1675C957.5 1677.49 955.485 1679.5 953 1679.5C950.515 1679.5 948.5 1677.49 948.5 1675Z" fill="#D8D8D8" stroke="black" stroke-width="2.5" stroke-linecap="round" stroke-linejoin="round"/>
<path d="M674 1311H881C888.732 1311 895 1317.27 895 1325V1332C895 1339.73 888.732 1346 881 1346H674C666.268 1346 660 1339.73 660 1332V1325C660 1317.27 666.268 1311 674 1311Z" stroke="black" stroke-width="2.5" stroke-linecap="round" stroke-linejoin="round"/>
<path d="M551 1138H600C607.732 1138 614 1144.27 614 1152C614 1159.73 607.732 1166 600 1166H551C543.268 1166 537 1159.73 537 1152C537 1144.27 543.268 1138 551 1138Z" fill="#FFFFD9" stroke="black" stroke-width="2.5" stroke-linecap="round" stroke-linejoin="round"/>
<path fill-rule="evenodd" clip-rule="evenodd" d="M855 1346H563V1401C563 1420.33 578.67 1436 598 1436H855V1346Z" fill="#FFFFD9" stroke="black" stroke-width="2.5" stroke-linecap="round" stroke-linejoin="round"/>
<path d="M562 1721C486.337 1721 425 1659.89 425 1584.5C425 1509.11 486.337 1448 562 1448C637.663 1448 699 1509.11 699 1584.5C699 1659.89 637.663 1721 562 1721Z" fill="white" stroke="black" stroke-width="2.5" stroke-linecap="round" stroke-linejoin="round"/>
<path fill-rule="evenodd" clip-rule="evenodd" d="M639 1172H601C580.013 1172 563 1189.01 563 1210V1346H639V1172Z" fill="#FFFFD9" stroke="black" stroke-width="2.5" stroke-linecap="round" stroke-linejoin="round"/>
<path fill-rule="evenodd" clip-rule="evenodd" d="M568.5 1583.5H856C858.485 1583.5 860.5 1585.51 860.5 1588C860.5 1590.49 858.485 1592.5 856 1592.5H564C561.515 1592.5 559.5 1590.49 559.5 1588L559.528 1170C559.528 1162.54 553.483 1156.5 546.028 1156.5H455C452.515 1156.5 450.5 1154.49 450.5 1152C450.5 1149.51 452.515 1147.5 455 1147.5H546.028C558.454 1147.5 568.528 1157.57 568.528 1170L568.5 1583.5Z" fill="#D8D8D8" stroke="black" stroke-width="2.5" stroke-linecap="round" stroke-linejoin="round"/>
<path d="M454 1138H503C510.732 1138 517 1144.27 517 1152C517 1159.73 510.732 1166 503 1166H454C446.268 1166 440 1159.73 440 1152C440 1144.27 446.268 1138 454 1138Z" fill="#FFFFD9" stroke="black" stroke-width="2.5" stroke-linecap="round" stroke-linejoin="round"/>
<path d="M562.5 1616C544.551 1616 530 1601.45 530 1583.5C530 1565.55 544.551 1551 562.5 1551C580.449 1551 595 1565.55 595 1583.5C595 1601.45 580.449 1616 562.5 1616Z" fill="black"/>
<path fill-rule="evenodd" clip-rule="evenodd" d="M691.387 1153.34C704.5 1154.8 715.704 1159.01 725 1165.98C739.667 1176.98 759.889 1193.87 785.666 1216.63L870.899 1108.17L876.962 1050.93C877.855 1042.51 885.399 1036.4 893.822 1037.28C902.228 1038.15 908.332 1045.68 907.456 1054.08C907.455 1054.09 907.454 1054.1 907.453 1054.11L903.531 1091.11L925.344 1071.29L956.835 1042.67C962.757 1037.29 971.89 1037.6 977.428 1043.38C982.78 1048.96 982.592 1057.83 977.007 1063.18C976.918 1063.27 976.828 1063.35 976.736 1063.44L946.548 1090.87L923.443 1111.87L923.676 1112.04L979.29 1061.7C984.216 1057.24 991.824 1057.62 996.284 1062.55C996.339 1062.61 996.393 1062.67 996.447 1062.73C1000.94 1067.9 1000.52 1075.7 995.496 1080.35L944.711 1127.45L945.008 1127.66L990.255 1085.48C995.905 1080.21 1004.71 1080.35 1010.19 1085.8C1015.4 1090.98 1015.42 1099.41 1010.24 1104.63C1010.12 1104.75 1009.99 1104.87 1009.87 1104.98L967.67 1144.26L968 1144.5L838.702 1292.38C829.224 1303.22 813.069 1305.11 801.35 1296.74L677.312 1208.16C666.666 1200.55 661.251 1187.57 663.338 1174.66C665.511 1161.21 677.85 1151.83 691.387 1153.34Z" fill="white" stroke="black" stroke-width="2.5" stroke-linecap="round" stroke-linejoin="round"/>
<path d="M908.39 1101.44L953.864 1135.2" stroke="black" stroke-width="2.5" stroke-linecap="round" stroke-linejoin="round"/>
<path fill-rule="evenodd" clip-rule="evenodd" d="M922.066 1485L932.299 1568.81L983.002 1589.77C987.798 1591.75 990.83 1596.53 990.575 1601.72C990.337 1606.56 986.343 1610.36 981.496 1610.36L928.901 1610.36L937.269 1613.36C945.956 1616.47 950.475 1626.04 947.362 1634.73C947.1 1635.46 946.789 1636.17 946.429 1636.85L946.15 1637.36H829.727L825.573 1582.58C825.362 1579.8 823.043 1577.65 820.254 1577.65C817.393 1577.65 814.943 1579.7 814.439 1582.52L804.624 1637.36H778L778.066 1572.5L821.965 1545.94L819.566 1530.5L922.066 1485Z" fill="black"/>
<path fill-rule="evenodd" clip-rule="evenodd" d="M954.005 1312.19C955.086 1318.67 955.437 1325.26 955.051 1331.82L943.383 1529.95L816.567 1553.13L844.38 1355.57L732.023 1347.24C698.362 1352.41 676.498 1352.2 666.257 1346.1C657.255 1340.49 651.378 1331.76 649.155 1322.19C646.931 1312.61 648.36 1302.19 653.969 1293.19C659.079 1284.99 667.093 1279.01 676.412 1276.46L737.735 1259.64C740.984 1258.75 744.276 1258.03 747.599 1257.48L852.812 1239.93C876.761 1235.93 900.062 1242.02 918.374 1255.1C936.686 1268.17 950.01 1288.24 954.005 1312.19Z" fill="#66EC36" stroke="black" stroke-width="2.5"/>
<path fill-rule="evenodd" clip-rule="evenodd" d="M865.329 1263.12C887.001 1264.9 905.9 1275.3 918.934 1290.67C931.968 1306.04 939.138 1326.39 937.355 1348.06C937.176 1350.23 936.907 1352.4 936.549 1354.55L900.765 1569.27L771.489 1571.23L814.093 1367.33L698.133 1360.75C664.18 1359.4 642.803 1355.01 633.925 1347.08C622.299 1336.27 616.156 1321.77 615.624 1307.07C615.091 1292.36 620.168 1277.45 630.981 1265.83C642.981 1252.93 660.235 1246.24 677.795 1247.68L865.329 1263.12Z" fill="#66EC36" stroke="black" stroke-width="2.5"/>
<path fill-rule="evenodd" clip-rule="evenodd" d="M706.597 1184.44C706.636 1185.87 706.572 1187.3 706.405 1188.72L702.941 1218.24C701.503 1230.5 695.485 1241.18 686.743 1248.68C678.002 1256.19 666.538 1260.52 654.207 1260.09C642.177 1259.67 631.453 1254.42 623.837 1246.27C616.221 1238.11 611.714 1227.05 612.116 1215.02L614.092 1155.96L647.429 1156.29L676.049 1155.51C684.261 1155.29 691.787 1158.42 697.315 1163.65C702.843 1168.89 706.373 1176.23 706.597 1184.44Z" fill="#FF75AA" stroke="black" stroke-width="2.5"/>
<path fill-rule="evenodd" clip-rule="evenodd" d="M852.5 1662.5V1380C852.5 1372.54 846.456 1366.5 839 1366.5H568V1357.5H839C851.426 1357.5 861.5 1367.57 861.5 1380V1668.5C861.5 1670.99 859.485 1675 857 1675C854.515 1675 852.5 1664.99 852.5 1662.5Z" fill="#D8D8D8" stroke="black" stroke-width="2.5" stroke-linecap="round" stroke-linejoin="round"/>
<path fill-rule="evenodd" clip-rule="evenodd" d="M952.5 1660C969.345 1660 983 1673.66 983 1690.5C983 1707.34 969.345 1721 952.5 1721C935.655 1721 922 1707.34 922 1690.5C922 1673.66 935.655 1660 952.5 1660ZM856.5 1660C873.345 1660 887 1673.66 887 1690.5C887 1707.34 873.345 1721 856.5 1721C839.655 1721 826 1707.34 826 1690.5C826 1673.66 839.655 1660 856.5 1660Z" fill="black"/>
<path fill-rule="evenodd" clip-rule="evenodd" d="M1024.5 1646H782.5C780.015 1646 778 1643.99 778 1641.5C778 1639.01 780.015 1637 782.5 1637H1024.5C1026.99 1637 1029 1639.01 1029 1641.5C1029 1643.99 1026.99 1646 1024.5 1646Z" fill="#D8D8D8" stroke="black" stroke-width="2.5" stroke-linecap="round" stroke-linejoin="round"/>
<path fill-rule="evenodd" clip-rule="evenodd" d="M644.693 1173.02L653.429 1280.75L756.708 1266.87C773.878 1264.56 790.581 1273.57 798.087 1289.18L819.209 1333.11C820.525 1335.85 819.372 1339.14 816.634 1340.46C815.89 1340.81 815.075 1341 814.25 1341C809.066 1341 804.293 1338.18 801.786 1333.65C794.182 1319.88 786.087 1313 777.5 1313C773.5 1313 769.5 1313 765.5 1313C762.738 1313 760.5 1315.24 760.5 1318L773.264 1318C781.413 1318 788.019 1324.61 788.019 1332.75C788.019 1335.69 787.142 1338.56 785.5 1341L653.298 1346.2C625.357 1347.3 601.081 1327.16 597 1299.5C594.326 1281.38 594.035 1241.81 596.127 1180.8C596.592 1167.25 606.539 1155.91 619.908 1153.69C631.538 1151.75 642.536 1159.61 644.473 1171.24C644.571 1171.83 644.645 1172.42 644.693 1173.02ZM653.5 1280.5L642 1280.5L653.5 1280.5Z" fill="white"/>
<path d="M653.5 1280.5L642 1280.5M644.693 1173.02L653.429 1280.75L756.708 1266.87C773.878 1264.56 790.581 1273.57 798.087 1289.18L819.209 1333.11C820.525 1335.85 819.372 1339.14 816.634 1340.46C815.89 1340.81 815.075 1341 814.25 1341C809.066 1341 804.293 1338.18 801.786 1333.65C794.182 1319.88 786.087 1313 777.5 1313C773.5 1313 769.5 1313 765.5 1313C762.738 1313 760.5 1315.24 760.5 1318L773.264 1318C781.413 1318 788.019 1324.61 788.019 1332.75C788.019 1335.69 787.142 1338.56 785.5 1341L653.298 1346.2C625.357 1347.3 601.081 1327.16 597 1299.5C594.326 1281.38 594.035 1241.81 596.127 1180.8C596.592 1167.25 606.539 1155.91 619.908 1153.69C631.538 1151.75 642.536 1159.61 644.473 1171.24C644.571 1171.83 644.645 1172.42 644.693 1173.02Z" stroke="black" stroke-width="2.5" stroke-linecap="round" stroke-linejoin="round"/>
<path d="M604 1341H811C818.732 1341 825 1347.27 825 1355V1362C825 1369.73 818.732 1376 811 1376H604C596.268 1376 590 1369.73 590 1362V1355C590 1347.27 596.268 1341 604 1341Z" fill="#FFFFD9" stroke="black" stroke-width="2.5" stroke-linecap="round" stroke-linejoin="round"/>
<path fill-rule="evenodd" clip-rule="evenodd" d="M634.5 1105.68L620.179 1126.33C614.201 1134.96 616.346 1146.8 624.97 1152.77C627.015 1154.19 629.318 1155.19 631.749 1155.72L643 1158.18C664.333 1152.51 678 1146.01 684 1138.68C690 1131.34 691.5 1120.34 688.5 1105.68H634.5Z" fill="black"/>
<path fill-rule="evenodd" clip-rule="evenodd" d="M677.965 1155.68L677.819 1127.66L649.291 1120.93L644 1157.05C648.977 1159.13 655.202 1160.22 662.674 1160.32C670.146 1160.42 675.243 1158.87 677.965 1155.68Z" fill="white" stroke="black" stroke-width="2.5" stroke-linecap="round" stroke-linejoin="round"/>
<path fill-rule="evenodd" clip-rule="evenodd" d="M678.011 1153.05L654.027 1129.8L678.214 1129.85L678.011 1153.05Z" fill="black"/>
<path d="M671.39 1086.07C656.847 1082.98 642.545 1091.93 638.851 1106.18C638.34 1106.06 637.812 1105.99 637.271 1105.96C631.756 1105.67 627.039 1110.13 626.735 1115.92C626.432 1121.72 630.657 1126.64 636.172 1126.93C637.771 1127.02 639.302 1126.7 640.678 1126.07C644.567 1134.46 652.289 1141.01 662.12 1143.1C675.999 1146.05 686.192 1139.12 691.114 1127.14C691.396 1127.18 691.682 1127.21 691.972 1127.23C697.488 1127.52 702.205 1123.06 702.508 1117.26C702.781 1112.06 699.392 1107.55 694.696 1106.48C694.121 1098.3 689.793 1092.82 678.942 1088.68C678.187 1088.39 677.37 1088.06 676.492 1087.69C674.847 1086.98 673.139 1086.44 671.39 1086.07Z" fill="white"/>
<path d="M671.39 1086.07C656.847 1082.98 642.545 1091.93 638.851 1106.18C638.34 1106.06 637.812 1105.99 637.271 1105.96C631.756 1105.67 627.039 1110.13 626.735 1115.92C626.432 1121.72 630.657 1126.64 636.172 1126.93C637.771 1127.02 639.302 1126.7 640.678 1126.07C644.567 1134.46 652.289 1141.01 662.12 1143.1C675.999 1146.05 686.192 1139.12 691.114 1127.14C691.396 1127.18 691.682 1127.21 691.972 1127.23C697.488 1127.52 702.205 1123.06 702.508 1117.26C702.781 1112.06 699.392 1107.55 694.696 1106.48C694.121 1098.3 689.793 1092.82 678.942 1088.68C678.187 1088.39 677.37 1088.06 676.492 1087.69C674.847 1086.98 673.139 1086.44 671.39 1086.07Z" fill="white" stroke="black" stroke-width="2.5" stroke-linecap="round" stroke-linejoin="round"/>
<mask id="mask0" mask-type="alpha" maskUnits="userSpaceOnUse" x="625" y="1084" width="79" height="62">
<path d="M671.39 1086.07C656.847 1082.98 642.545 1091.93 638.851 1106.18C638.34 1106.06 637.812 1105.99 637.271 1105.96C631.756 1105.67 627.039 1110.13 626.735 1115.92C626.432 1121.72 630.657 1126.64 636.172 1126.93C637.771 1127.02 639.302 1126.7 640.678 1126.07C644.567 1134.46 652.289 1141.01 662.12 1143.1C675.999 1146.05 686.192 1139.12 691.114 1127.14C691.396 1127.18 691.682 1127.21 691.972 1127.23C697.488 1127.52 702.205 1123.06 702.508 1117.26C702.781 1112.06 699.392 1107.55 694.696 1106.48C694.121 1098.3 689.793 1092.82 678.942 1088.68C678.187 1088.39 677.37 1088.06 676.492 1087.69C674.847 1086.98 673.139 1086.44 671.39 1086.07Z" fill="white" stroke="black" stroke-width="2.5" stroke-linecap="round" stroke-linejoin="round"/>
</mask>
<g mask="url(#mask0)">
<path fill-rule="evenodd" clip-rule="evenodd" d="M641.522 1095.22L638.692 1106.68L684.5 1095.08L694 1106.58C698.806 1090.84 696.439 1081.6 686.898 1078.85C672.588 1074.72 652.312 1067.64 646.682 1077.43C642.928 1083.96 641.208 1089.89 641.522 1095.22Z" fill="black"/>
</g>
<path fill-rule="evenodd" clip-rule="evenodd" d="M662.526 1113.68C664.177 1113.83 665.398 1115.28 665.254 1116.93L665.166 1117.93C665.022 1119.58 663.567 1120.8 661.916 1120.66C660.266 1120.51 659.045 1119.06 659.189 1117.41L659.276 1116.41C659.421 1114.76 660.876 1113.54 662.526 1113.68ZM683.534 1114.52C685.184 1114.66 686.405 1116.12 686.261 1117.77L686.174 1118.76C686.029 1120.41 684.574 1121.64 682.924 1121.49C681.273 1121.35 680.052 1119.89 680.196 1118.24L680.284 1117.25C680.428 1115.59 681.883 1114.37 683.534 1114.52Z" stroke="black" stroke-width="2" stroke-linecap="round" stroke-linejoin="round"/>
<path d="M671.355 1127.51C672.899 1128.98 674.559 1129.12 676.336 1127.94" stroke="black" stroke-width="2" stroke-linecap="round" stroke-linejoin="round"/>
<path d="M674.655 1112.74L676.685 1123.96L673.696 1123.7" stroke="black" stroke-width="2" stroke-linecap="round" stroke-linejoin="round"/>
<path fill-rule="evenodd" clip-rule="evenodd" d="M1118.73 332.88C1141.98 336.265 1161.26 344.346 1176.56 357.154C1191.85 369.961 1203.16 387.488 1210.5 409.713C1225.23 454.298 1224.03 517.693 1207 599.885L959.953 563.914C966.42 480.181 982.857 419.002 1009.36 380.42C1022.57 361.189 1038.28 347.598 1056.51 339.674C1074.74 331.749 1095.48 329.496 1118.73 332.88Z" fill="#ADF7FF" stroke="black" stroke-width="2.5"/>
<path d="M1101.72 433.183C1100.34 433.049 1098.94 433.009 1097.55 433.064C1083.55 433.621 1072.11 443.515 1069.01 456.513C1067.97 456.107 1066.85 455.857 1065.68 455.79C1059.46 455.433 1054.12 460.393 1053.75 466.868C1053.37 473.343 1058.12 478.881 1064.34 479.238C1065.66 479.314 1066.93 479.151 1068.14 478.785C1067.93 490.166 1068.57 498.584 1079.72 502.783C1085.2 504.842 1110.55 507.86 1115.07 506.414C1122.77 503.95 1125.72 496.874 1127.89 488.146C1129.05 488.65 1130.3 488.96 1131.63 489.036C1137.85 489.393 1143.19 484.433 1143.56 477.958C1143.93 471.483 1139.19 465.945 1132.97 465.588C1132.84 465.58 1132.71 465.575 1132.58 465.572C1133.1 449.209 1120.82 435.035 1104.3 433.432L1101.72 433.183Z" fill="white"/>
<path d="M1101.72 433.183C1100.34 433.049 1098.94 433.009 1097.55 433.064C1083.55 433.621 1072.11 443.515 1069.01 456.513C1067.97 456.107 1066.85 455.857 1065.68 455.79C1059.46 455.433 1054.12 460.393 1053.75 466.868C1053.37 473.343 1058.12 478.881 1064.34 479.238C1065.66 479.314 1066.93 479.151 1068.14 478.785C1067.93 490.166 1068.57 498.584 1079.72 502.783C1085.2 504.842 1110.55 507.86 1115.07 506.414C1122.77 503.95 1125.72 496.874 1127.89 488.146C1129.05 488.65 1130.3 488.96 1131.63 489.036C1137.85 489.393 1143.19 484.433 1143.56 477.958C1143.93 471.483 1139.19 465.945 1132.97 465.588C1132.84 465.58 1132.71 465.575 1132.58 465.572C1133.1 449.209 1120.82 435.035 1104.3 433.432L1101.72 433.183Z" fill="white" stroke="black" stroke-width="2.5" stroke-linecap="round" stroke-linejoin="round"/>
<path d="M1092.51 468.077L1091.74 468.007C1090.09 467.854 1088.63 469.068 1088.48 470.718L1088.31 472.539C1088.16 474.189 1089.37 475.65 1091.02 475.802L1091.79 475.873C1093.44 476.026 1094.9 474.812 1095.05 473.162L1095.22 471.341C1095.37 469.691 1094.16 468.23 1092.51 468.077Z" fill="white" stroke="black" stroke-width="2" stroke-linecap="round" stroke-linejoin="round"/>
<path d="M1100.79 486.572C1102.52 488.23 1104.39 488.403 1106.4 487.092" stroke="black" stroke-width="2" stroke-linecap="round" stroke-linejoin="round"/>
<path d="M1104.36 467.819L1112.02 484.082L1103.57 481.796" stroke="black" stroke-width="2" stroke-linecap="round" stroke-linejoin="round"/>
<path d="M1120.31 471.183L1121.07 471.268C1122.72 471.449 1123.91 472.931 1123.73 474.578L1123.53 476.396C1123.35 478.043 1121.86 479.231 1120.22 479.05L1119.45 478.965C1117.81 478.784 1116.62 477.302 1116.8 475.655L1117 473.837C1117.18 472.19 1118.66 471.002 1120.31 471.183Z" fill="white" stroke="black" stroke-width="2" stroke-linecap="round" stroke-linejoin="round"/>
<path d="M1123.38 332.295L1137.14 237.791" stroke="black" stroke-width="2.5" stroke-linecap="round" stroke-linejoin="round"/>
<path d="M1136.06 245.213C1132.24 244.656 1129.59 241.103 1130.14 237.277C1130.7 233.452 1134.25 230.802 1138.08 231.359C1141.91 231.916 1144.55 235.469 1144 239.294C1143.44 243.12 1139.89 245.77 1136.06 245.213Z" fill="white" stroke="black" stroke-width="2.5" stroke-linecap="round" stroke-linejoin="round"/>
<path fill-rule="evenodd" clip-rule="evenodd" d="M1118.07 497.353L1115.37 498.655C1113.88 499.374 1113.25 501.167 1113.97 502.66L1116.14 507.165C1116.86 508.657 1118.65 509.285 1120.14 508.566L1122.85 507.264C1124.34 506.545 1124.97 504.752 1124.25 503.259L1122.08 498.755C1121.36 497.262 1119.57 496.635 1118.07 497.353ZM1070.92 490.942L1066.92 493.931C1065.59 494.922 1065.31 496.801 1066.3 498.129L1068.1 500.534C1069.09 501.862 1070.97 502.136 1072.3 501.145L1076.3 498.156C1077.63 497.166 1077.91 495.286 1076.92 493.958L1075.12 491.553C1074.13 490.225 1072.25 489.951 1070.92 490.942ZM1116.89 432.404C1115.25 432.165 1113.73 433.301 1113.49 434.94L1112.77 439.888C1112.53 441.528 1113.67 443.05 1115.31 443.289L1118.28 443.721C1119.92 443.96 1121.44 442.824 1121.68 441.185L1122.4 436.237C1122.64 434.598 1121.5 433.075 1119.86 432.836L1116.89 432.404ZM1091.16 428.658C1089.52 428.419 1088 429.555 1087.76 431.194L1087.04 436.142C1086.8 437.782 1087.94 439.304 1089.58 439.543L1092.55 439.975C1094.19 440.214 1095.71 439.078 1095.95 437.439L1096.67 432.491C1096.91 430.851 1095.77 429.329 1094.13 429.09L1091.16 428.658Z" fill="black"/>
<path fill-rule="evenodd" clip-rule="evenodd" d="M791.439 454.153C789.888 449.141 784.568 446.334 779.556 447.884C774.633 449.407 771.838 454.566 773.208 459.498L773.287 459.767L837.508 667.423C846.564 696.707 877.645 713.104 906.928 704.048C927.173 697.787 942.067 680.553 945.355 659.656L945.451 659.022L953.873 601.177C954.629 595.985 951.033 591.163 945.841 590.407C940.739 589.664 935.994 593.125 935.114 598.172L935.072 598.439L926.649 656.284C924.621 670.215 914.763 681.737 901.314 685.896C882.248 691.792 862.024 681.282 855.843 662.385L855.66 661.81L791.439 454.153Z" fill="white" stroke="black" stroke-width="2.5" stroke-linecap="round" stroke-linejoin="round"/>
<path fill-rule="evenodd" clip-rule="evenodd" d="M1211.42 638.68C1206.34 637.796 1201.5 641.124 1200.48 646.145L1200.43 646.411L1172.55 806.666C1169 827.07 1182.66 846.489 1203.06 850.04C1218.99 852.812 1234.89 845.06 1242.52 830.848L1242.75 830.416L1309.88 701.518L1400.18 714.666C1405.28 715.409 1410.03 711.948 1410.91 706.901L1410.95 706.634C1411.69 701.531 1408.23 696.786 1403.18 695.907L1402.92 695.864L1305.94 681.744C1302.03 681.175 1298.19 683.081 1296.28 686.509L1296.14 686.757L1225.9 821.64C1222.18 828.786 1214.26 832.702 1206.32 831.321C1196.37 829.589 1189.66 820.199 1191.21 810.255L1191.27 809.923L1219.15 649.668C1220.05 644.499 1216.59 639.579 1211.42 638.68Z" fill="white" stroke="black" stroke-width="2.5" stroke-linecap="round" stroke-linejoin="round"/>
<path d="M945.386 562.298L1221.48 602.497C1233.91 604.308 1242.52 615.855 1240.71 628.288C1238.9 640.721 1227.35 649.333 1214.92 647.523L938.831 607.324C926.397 605.513 917.786 593.966 919.596 581.533C921.406 569.1 932.953 560.488 945.386 562.298Z" fill="#5E69FF" stroke="black" stroke-width="2.5"/>
<path fill-rule="evenodd" clip-rule="evenodd" d="M1010.88 762.827L1097 773.345L1097.57 833.988C1097.59 835.023 1097.18 835.967 1096.51 836.655C1095.85 837.344 1094.91 837.777 1093.88 837.793C1093.12 837.804 1092.39 837.585 1091.78 837.188C1091.17 836.792 1090.68 836.218 1090.38 835.518L1074.95 799.473L1061.38 875.441C1061.19 876.46 1060.62 877.309 1059.83 877.858C1059.04 878.407 1058.04 878.655 1057.02 878.473C1056.2 878.326 1055.48 877.915 1054.94 877.333C1054.4 876.75 1054.04 875.997 1053.95 875.165L1045.18 789.896L1032.31 838.139C1032.04 839.14 1031.4 839.937 1030.57 840.418C1029.74 840.899 1028.72 841.063 1027.72 840.796C1026.48 840.464 1025.49 839.518 1025.11 838.29L1017.39 813.571L1004.99 833.138C1004.44 834.013 1003.58 834.58 1002.64 834.79C1001.71 834.999 1000.69 834.852 999.815 834.298C999.167 833.886 998.676 833.298 998.384 832.624C998.091 831.951 997.996 831.191 998.138 830.436L1010.88 762.827Z" fill="#FF7C25" stroke="black" stroke-width="2.5"/>
<path fill-rule="evenodd" clip-rule="evenodd" d="M955.657 610.278L1198.69 645.665L1129.4 702.718C1109.3 719.264 1083.14 726.528 1057.39 722.713C1031.87 718.932 1009.48 703.695 996.604 681.345L955.657 610.278Z" fill="#5E69FF" stroke="black" stroke-width="2.5"/>
<path fill-rule="evenodd" clip-rule="evenodd" d="M996.714 761.013C1000.28 753.616 1006.14 745.403 1014.27 736.364C1022.65 727.045 1030.77 721.671 1039.09 720.302L1079.4 725.552C1088.19 729.584 1094.21 737.497 1100.14 747.781C1105.85 757.686 1108.91 775.717 1108.91 775.717C1108.91 775.717 1045.84 768.166 996.714 761.013Z" fill="#5E69FF" stroke="black" stroke-width="2.5"/>
<path fill-rule="evenodd" clip-rule="evenodd" d="M1140.54 606.628C1136.44 606.032 1132.63 608.871 1132.03 612.97C1131.44 617.069 1134.28 620.875 1138.37 621.472C1142.47 622.069 1146.28 619.23 1146.88 615.131C1147.47 611.032 1144.63 607.225 1140.54 606.628ZM1084.13 598.416C1080.03 597.819 1076.22 600.658 1075.63 604.757C1075.03 608.856 1077.87 612.662 1081.97 613.259C1086.07 613.856 1089.87 611.017 1090.47 606.918C1091.07 602.819 1088.23 599.013 1084.13 598.416ZM1027.73 590.203C1023.63 589.606 1019.82 592.445 1019.22 596.544C1018.63 600.643 1021.47 604.45 1025.56 605.047C1029.66 605.643 1033.47 602.804 1034.07 598.705C1034.66 594.607 1031.82 590.8 1027.73 590.203Z" fill="white" stroke="black" stroke-width="2.5" stroke-linecap="round" stroke-linejoin="round"/>
<path d="M1132.03 612.97L1090.97 606.99" stroke="black" stroke-width="2.5" stroke-linecap="round" stroke-linejoin="round"/>
<path d="M1074.81 605.144L1034.74 599.308" stroke="black" stroke-width="2.5" stroke-linecap="round" stroke-linejoin="round"/>
<path d="M1117.58 438.063L1120.03 421.24C1121.07 414.135 1116.15 407.537 1109.04 406.503C1101.94 405.468 1095.34 410.389 1094.3 417.494L1091.85 434.316" stroke="black" stroke-width="2.5" stroke-linecap="round" stroke-linejoin="round"/>
<path d="M1116.71 499.579L1126.94 518.556C1133.83 531.338 1137.85 545.468 1138.73 559.962L1140.51 589.446" stroke="black" stroke-width="2.5" stroke-linecap="round" stroke-linejoin="round"/>
<path d="M1074.16 493.383L1061.71 505.557C1047.55 519.412 1037.82 537.162 1033.76 556.555L1030.03 574.37" stroke="black" stroke-width="2.5" stroke-linecap="round" stroke-linejoin="round"/>
<path fill-rule="evenodd" clip-rule="evenodd" d="M1456.42 665.001C1467.49 666.612 1477.09 671.936 1484.16 679.526C1491.03 686.897 1495.51 696.405 1496.61 706.727L1476.01 703.728C1474.45 698.764 1471.54 694.331 1467.66 690.924C1463.7 687.45 1458.72 685.042 1453.12 684.226C1445.4 683.102 1437.95 685.213 1432.16 689.535C1426.36 693.858 1422.22 700.391 1421.09 708.111C1419.97 715.83 1422.08 723.275 1426.4 729.07C1430.72 734.866 1437.26 739.012 1444.98 740.136C1450.58 740.952 1456.04 740.063 1460.82 737.863C1465.52 735.705 1469.57 732.285 1472.48 727.973L1492.81 730.933C1488.69 740.238 1481.7 747.826 1473.1 752.758C1464.25 757.839 1453.69 760.1 1442.81 758.515C1429.89 756.635 1418.97 749.7 1411.74 740.007C1404.51 730.313 1400.98 717.862 1402.86 704.95C1404.74 692.039 1411.67 681.112 1421.36 673.882C1431.06 666.653 1443.51 663.121 1456.42 665.001Z" fill="#5E69FF" stroke="black" stroke-width="2.5"/>
<path fill-rule="evenodd" clip-rule="evenodd" d="M723.716 428.413C720.314 417.762 720.887 406.794 724.609 397.11C728.223 387.707 734.807 379.515 743.603 374.004L749.937 393.832C746.159 397.41 743.449 401.965 742.09 406.95C740.703 412.033 740.721 417.563 742.444 422.956C744.817 430.387 749.979 436.152 756.404 439.467C762.829 442.781 770.519 443.644 777.95 441.27C785.381 438.896 791.147 433.735 794.461 427.309C797.775 420.884 798.638 413.194 796.264 405.763C794.541 400.37 791.35 395.855 787.274 392.517C783.277 389.243 778.428 387.102 773.276 386.377L767.023 366.804C777.194 366.431 787.078 369.387 795.278 374.949C803.726 380.68 810.387 389.179 813.735 399.657C817.705 412.086 816.262 424.948 810.719 435.695C805.175 446.442 795.532 455.074 783.103 459.045C770.674 463.015 757.813 461.572 747.066 456.029C736.319 450.485 727.687 440.842 723.716 428.413Z" fill="#5E69FF" stroke="black" stroke-width="2.5"/>
<path fill-rule="evenodd" clip-rule="evenodd" d="M1328.01 1142.06C1384.28 1142.06 1434.33 1168.59 1466.31 1209.8L1630.4 1414.19C1632.41 1416.7 1634.59 1419.08 1636.92 1421.3C1651.5 1435.22 1670.34 1441.91 1689.02 1441.48C1707.7 1441.04 1726.21 1433.49 1740.13 1418.91C1741.07 1417.93 1742.04 1416.97 1743.03 1416.04C1758.49 1401.48 1778.39 1394.56 1798.07 1395.15C1817.74 1395.73 1837.2 1403.83 1851.76 1419.28L2032 1610.57C2043.26 1622.52 2049.53 1638.32 2049.53 1654.74C2049.53 1672.53 2042.32 1688.63 2030.66 1700.29C2019 1711.95 2002.89 1719.16 1985.1 1719.16H1451.81C1426.29 1719.16 1402.26 1707.1 1387.02 1686.63L1199.16 1434.49C1170.62 1403.43 1153.2 1362.02 1153.2 1316.56C1153.2 1268.37 1172.77 1224.75 1204.4 1193.17C1236.04 1161.59 1279.74 1142.06 1328.01 1142.06Z" fill="#FF75AA" stroke="black" stroke-width="2.5"/>
<path fill-rule="evenodd" clip-rule="evenodd" d="M1195.55 1276.82C1191.48 1276.82 1188.18 1280.12 1188.18 1284.19V1288.28C1188.18 1292.34 1191.48 1295.64 1195.55 1295.64C1199.61 1295.64 1202.91 1292.34 1202.91 1288.28V1284.19C1202.91 1280.12 1199.61 1276.82 1195.55 1276.82ZM1287.18 1276.82C1283.11 1276.82 1279.82 1280.12 1279.82 1284.19V1288.28C1279.82 1292.34 1283.11 1295.64 1287.18 1295.64C1291.25 1295.64 1294.55 1292.34 1294.55 1288.28V1284.19C1294.55 1280.12 1291.25 1276.82 1287.18 1276.82Z" fill="#FFFFD9" stroke="black" stroke-width="2.5" stroke-linecap="round" stroke-linejoin="round"/>
<path d="M1239.73 1303L1239.7 1303.05C1237.88 1306.65 1233.49 1308.1 1229.89 1306.28C1228.48 1305.57 1227.34 1304.42 1226.64 1303" stroke="black" stroke-width="2.5" stroke-linecap="round" stroke-linejoin="round"/>
<path d="M1298.64 1273.14L1275.73 1273.35" stroke="black" stroke-width="2.5" stroke-linecap="round" stroke-linejoin="round"/>
<path d="M1207 1273.55L1184.09 1273.96" stroke="black" stroke-width="2.5" stroke-linecap="round" stroke-linejoin="round"/>
<path fill-rule="evenodd" clip-rule="evenodd" d="M1832.4 1021.05C1826.01 1023.88 1810.63 1051.82 1785.97 1104.33C1785.18 1106.01 1785.14 1107.86 1785.73 1109.49C1786.32 1111.11 1787.52 1112.51 1789.21 1113.31C1790.98 1114.14 1793.02 1114.16 1794.81 1113.37L1810.16 1106.58C1820.54 1076.11 1827.45 1053.63 1830.88 1039.14C1832.57 1031.98 1833.42 1026.8 1833.39 1023.61C1833.37 1022.37 1833.28 1021.46 1832.4 1021.05Z" fill="#5E69FF" stroke="black" stroke-width="2.5"/>
<path fill-rule="evenodd" clip-rule="evenodd" d="M1812.16 1702.84L1825.87 1551.81H1704.96C1708.01 1579.23 1701.67 1607.28 1685.93 1635.96C1676.34 1653.45 1667.21 1654.61 1657.39 1671.63C1653.19 1678.9 1648.53 1695.06 1643.39 1720.12H1793.24C1803.06 1720.12 1811.27 1712.63 1812.16 1702.84Z" fill="#FFFFD9" stroke="black" stroke-width="2.5" stroke-linecap="round" stroke-linejoin="round"/>
<path fill-rule="evenodd" clip-rule="evenodd" d="M2208.24 1701.37L2206.92 1720.12H1983.5C1959.42 1720.12 1939.91 1700.61 1939.91 1676.54C1939.91 1672.18 1940.56 1667.84 1941.85 1663.68C1954.16 1623.81 1957.13 1568.11 1950.76 1496.58H2076.66L2120.32 1635.73C2130.39 1645.42 2143.82 1650.26 2160.6 1650.26C2186.97 1650.26 2208.35 1671.64 2208.35 1698.02C2208.35 1699.14 2208.32 1700.25 2208.24 1701.37Z" fill="#FFFFD9" stroke="black" stroke-width="2.5" stroke-linecap="round" stroke-linejoin="round"/>
<path fill-rule="evenodd" clip-rule="evenodd" d="M1838.04 990.243H2003.36L2072.78 1286.39C2072.96 1287.17 2073.14 1287.96 2073.3 1288.75L2116.85 1497.41C2117.42 1500.17 2116.83 1502.91 2115.39 1505.11C2113.95 1507.3 2111.68 1508.94 2108.91 1509.52C2106.08 1510.11 2103.1 1509.47 2099.6 1507.3L2125 1558.06C2126.69 1561.45 2126.86 1565.22 2125.74 1568.55C2124.63 1571.89 2122.25 1574.81 2118.85 1576.51C2115.25 1578.31 2111.04 1578.44 2107.34 1576.87L2063.83 1558.45L2041.2 1568.76C2027.43 1575.02 2011.72 1575.43 1997.65 1569.89L1980.01 1562.94L1943.44 1577.98L1967.57 1304.11L1924.44 1079.78L1872.61 1313.82L1824.86 1578.01L1796.79 1562.9L1781.74 1569.09C1767.46 1574.95 1751.39 1574.64 1737.36 1568.22L1725.84 1562.95L1708.66 1568.07C1705.02 1569.15 1701.29 1568.66 1698.19 1566.98C1695.1 1565.31 1692.64 1562.45 1691.56 1558.81C1690.49 1555.22 1690.93 1551.34 1692.79 1548.08L1714.61 1509.76C1710.4 1510.53 1706.5 1509.11 1703.84 1506.45C1701.66 1504.28 1700.32 1501.27 1700.32 1497.95C1700.32 1496.9 1700.46 1495.84 1700.73 1494.82C1714.8 1442.67 1726.9 1397.79 1737.02 1360.18C1748.2 1318.62 1765.12 1255.68 1787.76 1171.39L1807.42 1100.56L1838.04 990.243Z" fill="#5E69FF"/>
<path d="M1838.04 990.243L1836.84 989.909L1837.09 988.993H1838.04V990.243ZM2003.36 990.243V988.993H2004.35L2004.58 989.958L2003.36 990.243ZM2072.78 1286.39L2073.99 1286.1L2072.78 1286.39ZM2073.3 1288.75L2072.08 1289L2073.3 1288.75ZM2116.85 1497.41L2115.62 1497.66L2116.85 1497.41ZM2115.39 1505.11L2116.44 1505.79L2115.39 1505.11ZM2108.91 1509.52L2108.66 1508.3H2108.66L2108.91 1509.52ZM2099.6 1507.3L2098.49 1507.86L2096.51 1503.91L2100.26 1506.24L2099.6 1507.3ZM2125 1558.06L2123.88 1558.62H2123.88L2125 1558.06ZM2125.74 1568.55L2126.93 1568.95H2126.93L2125.74 1568.55ZM2118.85 1576.51L2118.29 1575.39L2118.85 1576.51ZM2107.34 1576.87L2106.85 1578.02L2107.34 1576.87ZM2063.83 1558.45L2063.31 1557.31L2063.81 1557.08L2064.31 1557.3L2063.83 1558.45ZM2041.2 1568.76L2041.72 1569.89L2041.2 1568.76ZM1997.65 1569.89L1997.19 1571.05L1997.65 1569.89ZM1980.01 1562.94L1979.53 1561.78L1980 1561.59L1980.47 1561.77L1980.01 1562.94ZM1943.44 1577.98L1943.92 1579.14L1942.02 1579.92L1942.2 1577.87L1943.44 1577.98ZM1967.57 1304.11L1968.8 1303.87L1968.83 1304.04L1968.82 1304.22L1967.57 1304.11ZM1924.44 1079.78L1923.22 1079.51C1923.35 1078.93 1923.87 1078.52 1924.46 1078.53C1925.05 1078.54 1925.56 1078.96 1925.67 1079.54L1924.44 1079.78ZM1872.61 1313.82L1871.38 1313.59L1871.39 1313.57L1871.39 1313.55L1872.61 1313.82ZM1824.86 1578.01L1826.09 1578.23L1825.78 1579.92L1824.26 1579.11L1824.86 1578.01ZM1796.79 1562.9L1796.32 1561.75L1796.87 1561.52L1797.39 1561.8L1796.79 1562.9ZM1781.74 1569.09L1781.26 1567.93L1781.74 1569.09ZM1737.36 1568.22L1736.84 1569.36L1737.36 1568.22ZM1725.84 1562.95L1725.49 1561.75L1725.94 1561.62L1726.36 1561.81L1725.84 1562.95ZM1708.66 1568.07L1708.3 1566.87L1708.66 1568.07ZM1698.19 1566.98L1697.6 1568.08L1698.19 1566.98ZM1691.56 1558.81L1692.75 1558.46L1691.56 1558.81ZM1692.79 1548.08L1693.87 1548.7L1692.79 1548.08ZM1714.61 1509.76L1714.38 1508.53L1717.02 1508.05L1715.69 1510.38L1714.61 1509.76ZM1700.73 1494.82L1701.94 1495.15V1495.15L1700.73 1494.82ZM1737.02 1360.18L1735.81 1359.86L1737.02 1360.18ZM1787.76 1171.39L1786.55 1171.07L1786.55 1171.06L1787.76 1171.39ZM1807.42 1100.56L1806.22 1100.22L1807.42 1100.56ZM1838.04 988.993H2003.36V991.493H1838.04V988.993ZM2004.58 989.958L2073.99 1286.1L2071.56 1286.67L2002.14 990.528L2004.58 989.958ZM2073.99 1286.1C2074.18 1286.9 2074.36 1287.69 2074.52 1288.49L2072.08 1289C2071.91 1288.22 2071.74 1287.45 2071.56 1286.67L2073.99 1286.1ZM2074.52 1288.49L2118.07 1497.15L2115.62 1497.66L2072.08 1289L2074.52 1288.49ZM2118.07 1497.15C2118.72 1500.26 2118.05 1503.33 2116.44 1505.79L2114.34 1504.42C2115.61 1502.5 2116.13 1500.09 2115.62 1497.66L2118.07 1497.15ZM2116.44 1505.79C2114.83 1508.25 2112.27 1510.1 2109.17 1510.75L2108.66 1508.3C2111.09 1507.79 2113.08 1506.35 2114.34 1504.42L2116.44 1505.79ZM2109.17 1510.75C2105.93 1511.42 2102.62 1510.64 2098.95 1508.36L2100.26 1506.24C2103.57 1508.29 2106.23 1508.81 2108.66 1508.3L2109.17 1510.75ZM2100.72 1506.74L2126.11 1557.5L2123.88 1558.62L2098.49 1507.86L2100.72 1506.74ZM2126.11 1557.5C2127.97 1561.2 2128.14 1565.31 2126.93 1568.95L2124.56 1568.16C2125.57 1565.12 2125.42 1561.7 2123.88 1558.62L2126.11 1557.5ZM2126.93 1568.95C2125.72 1572.59 2123.11 1575.77 2119.41 1577.62L2118.29 1575.39C2121.38 1573.84 2123.55 1571.2 2124.56 1568.16L2126.93 1568.95ZM2119.41 1577.62C2115.48 1579.59 2110.89 1579.73 2106.85 1578.02L2107.83 1575.72C2111.19 1577.15 2115.02 1577.03 2118.29 1575.39L2119.41 1577.62ZM2106.85 1578.02L2063.34 1559.6L2064.31 1557.3L2107.83 1575.72L2106.85 1578.02ZM2064.34 1559.59L2041.72 1569.89L2040.68 1567.62L2063.31 1557.31L2064.34 1559.59ZM2041.72 1569.89C2027.64 1576.3 2011.57 1576.72 1997.19 1571.05L1998.1 1568.72C2011.86 1574.15 2027.22 1573.75 2040.68 1567.62L2041.72 1569.89ZM1997.19 1571.05L1979.55 1564.1L1980.47 1561.77L1998.1 1568.72L1997.19 1571.05ZM1980.49 1564.09L1943.92 1579.14L1942.97 1576.83L1979.53 1561.78L1980.49 1564.09ZM1942.2 1577.87L1966.33 1304L1968.82 1304.22L1944.69 1578.09L1942.2 1577.87ZM1966.34 1304.34L1923.21 1080.01L1925.67 1079.54L1968.8 1303.87L1966.34 1304.34ZM1925.66 1080.05L1873.84 1314.09L1871.39 1313.55L1923.22 1079.51L1925.66 1080.05ZM1873.84 1314.04L1826.09 1578.23L1823.63 1577.78L1871.38 1313.59L1873.84 1314.04ZM1824.26 1579.11L1796.2 1564L1797.39 1561.8L1825.45 1576.9L1824.26 1579.11ZM1797.27 1564.06L1782.21 1570.24L1781.26 1567.93L1796.32 1561.75L1797.27 1564.06ZM1782.21 1570.24C1767.62 1576.24 1751.19 1575.92 1736.84 1569.36L1737.88 1567.08C1751.6 1573.36 1767.31 1573.67 1781.26 1567.93L1782.21 1570.24ZM1736.84 1569.36L1725.32 1564.09L1726.36 1561.81L1737.88 1567.08L1736.84 1569.36ZM1726.2 1564.15L1709.01 1569.26L1708.3 1566.87L1725.49 1561.75L1726.2 1564.15ZM1709.01 1569.26C1705.05 1570.45 1700.97 1569.91 1697.6 1568.08L1698.79 1565.88C1701.6 1567.41 1704.99 1567.85 1708.3 1566.87L1709.01 1569.26ZM1697.6 1568.08C1694.22 1566.25 1691.54 1563.14 1690.36 1559.17L1692.75 1558.46C1693.74 1561.76 1695.97 1564.36 1698.79 1565.88L1697.6 1568.08ZM1690.36 1559.17C1689.19 1555.25 1689.68 1551.02 1691.7 1547.47L1693.87 1548.7C1692.19 1551.67 1691.78 1555.19 1692.75 1558.46L1690.36 1559.17ZM1691.7 1547.47L1713.52 1509.15L1715.69 1510.38L1693.87 1548.7L1691.7 1547.47ZM1714.83 1510.99C1710.21 1511.84 1705.89 1510.27 1702.95 1507.34L1704.72 1505.57C1707.11 1507.95 1710.6 1509.23 1714.38 1508.53L1714.83 1510.99ZM1702.95 1507.34C1700.55 1504.94 1699.07 1501.62 1699.07 1497.95H1701.57C1701.57 1500.93 1702.77 1503.62 1704.72 1505.57L1702.95 1507.34ZM1699.07 1497.95C1699.07 1496.79 1699.22 1495.62 1699.53 1494.5L1701.94 1495.15C1701.69 1496.06 1701.57 1497.01 1701.57 1497.95H1699.07ZM1699.53 1494.5C1713.59 1442.35 1725.69 1397.47 1735.81 1359.86L1738.22 1360.51C1728.1 1398.12 1716.01 1443 1701.94 1495.15L1699.53 1494.5ZM1735.81 1359.86C1747 1318.29 1763.91 1255.36 1786.55 1171.07L1788.97 1171.71C1766.32 1256.01 1749.41 1318.94 1738.22 1360.51L1735.81 1359.86ZM1786.55 1171.06L1806.22 1100.22L1808.62 1100.89L1788.96 1171.72L1786.55 1171.06ZM1806.22 1100.22L1836.84 989.909L1839.24 990.577L1808.62 1100.89L1806.22 1100.22Z" fill="black"/>
<path d="M1924.12 1079.64L1936.12 1074.91" stroke="black" stroke-width="2.5" stroke-linecap="round" stroke-linejoin="round"/>
<path d="M1672.34 1653.06H1748.67" stroke="black" stroke-width="2.5" stroke-linecap="round" stroke-linejoin="round"/>
<path d="M2191.9 1720.12C2199.73 1683.89 2188.55 1665.77 2158.35 1665.77" stroke="black" stroke-width="2.5" stroke-linecap="round" stroke-linejoin="round"/>
<path d="M1710.94 1652.62C1701.58 1667.53 1696.91 1689.16 1696.91 1717.49" stroke="black" stroke-width="2.5" stroke-linecap="round" stroke-linejoin="round"/>
<path fill-rule="evenodd" clip-rule="evenodd" d="M2110.26 913.236C2107.33 896.445 2098.41 882.041 2085.95 872.016C2073.5 861.991 2057.53 856.346 2040.5 857.072C2037.51 857.199 2034.54 857.598 2031.62 858.264C2018.35 861.293 2007.57 869.415 2000.86 880.096C1994.15 890.778 1991.51 904.02 1994.54 917.29L2049.21 1156.74C2050.37 1161.83 2052.24 1166.73 2054.77 1171.3C2062.22 1184.78 2074.42 1193.96 2088.13 1197.9C2101.84 1201.85 2117.06 1200.57 2130.53 1193.12L2290.11 1104.91L2317.76 1153.36C2318.85 1155.13 2320.55 1156.32 2322.43 1156.8C2324.31 1157.29 2326.37 1157.07 2328.19 1156.03C2329.49 1155.29 2330.51 1154.21 2331.19 1152.95C2331.87 1151.68 2332.19 1150.23 2332.09 1148.75L2329.01 1105.32L2358.67 1140.97C2360.05 1142.52 2361.93 1143.39 2363.86 1143.54C2365.8 1143.69 2367.79 1143.11 2369.41 1141.77C2371.28 1140.21 2372.31 1137.86 2372.19 1135.43L2368.48 1059.8L2349.6 1070.97L2221.24 999.325L2135.5 1058.05L2110.26 913.236Z" fill="#5E69FF" stroke="black" stroke-width="2.5"/>
<path fill-rule="evenodd" clip-rule="evenodd" d="M2021.49 1183.64L2115.32 1184.63C2135.02 1184.83 2154.06 1177.57 2168.63 1164.31C2183.1 1151.14 2191.52 1132.6 2191.92 1113.03L2192.59 1080.59C2192.68 1076.05 2189.08 1072.3 2184.54 1072.2C2184.09 1072.19 2183.64 1072.22 2183.19 1072.28C2177.4 1073.12 2172.71 1077.42 2171.38 1083.11L2169.49 1091.19C2166.88 1102.29 2159.48 1111.66 2149.29 1116.77L2126.1 1128.38C2053.86 1110 2009.82 1098.7 1994 1094.5C1982.95 1091.57 1971.61 1098.15 1968.67 1109.2C1967.42 1113.92 1967.87 1118.92 1969.95 1123.34C1974.06 1132.05 1976.87 1140.23 1978.38 1147.86C1982.47 1168.49 2000.47 1183.42 2021.49 1183.64Z" fill="#FFFFD9" stroke="black" stroke-width="2.5" stroke-linecap="round" stroke-linejoin="round"/>
<path fill-rule="evenodd" clip-rule="evenodd" d="M1917.73 1188.16L2034.55 1197.76C2057.24 1199.62 2079.76 1192.62 2097.39 1178.23C2114.86 1163.98 2125.35 1142.89 2126.19 1120.35L2127.59 1082.53C2127.8 1076.87 2123.38 1072.1 2117.71 1071.89C2117.31 1071.88 2116.91 1071.89 2116.51 1071.92C2109.63 1072.47 2103.84 1077.32 2102.11 1084.01L2099.77 1092.98C2096.47 1105.68 2087.46 1116.13 2075.38 1121.26L2070.87 1123.17C2055.5 1129.7 2038.44 1131.12 2022.19 1127.25L1915.79 1101.84C1895.63 1097.03 1875.39 1109.47 1870.57 1129.63C1869.36 1134.73 1869.22 1140.03 1870.17 1145.18C1874.51 1168.6 1894 1186.21 1917.73 1188.16Z" fill="#FFFFD9" stroke="black" stroke-width="2.5" stroke-linecap="round" stroke-linejoin="round"/>
<path fill-rule="evenodd" clip-rule="evenodd" d="M1714.82 921.051C1714.55 921.914 1714.3 922.785 1714.09 923.663L1673.83 1088.17C1669.77 1104.73 1672.82 1121.37 1681.01 1134.88C1689.21 1148.39 1702.56 1158.77 1719.13 1162.83C1721.33 1163.37 1723.56 1163.78 1725.81 1164.08L2005.3 1200.57L2030.44 1203.25C2032.01 1203.41 2033.51 1202.93 2034.66 1202C2035.8 1201.08 2036.59 1199.72 2036.76 1198.14C2036.9 1196.87 2036.61 1195.59 2035.94 1194.51L2001.45 1138.64L2005.6 1140.9C2007.57 1141.98 2009.8 1142.16 2011.8 1141.58C2013.8 1140.99 2015.58 1139.64 2016.66 1137.67C2017.47 1136.19 2017.78 1134.54 2017.62 1132.94C2017.46 1131.34 2016.83 1129.79 2015.75 1128.5C2010.85 1122.69 2006.1 1116.78 2001.51 1110.76C1989.28 1094.76 1977.01 1081.05 1964.68 1069.63C1957.12 1062.62 1947.29 1058.59 1936.98 1058.26L1793.57 1053.71L1807.83 952.595C1809.72 939.219 1806.62 926.145 1799.83 915.411C1793.03 904.677 1782.54 896.282 1769.65 892.265C1758.1 888.669 1746.19 890.093 1736.27 895.302C1726.35 900.512 1718.41 909.506 1714.82 921.051Z" fill="#5E69FF" stroke="black" stroke-width="2.5"/>
<path fill-rule="evenodd" clip-rule="evenodd" d="M2123.44 886.313C2162.73 937.7 2155.42 963.175 2151.25 974.121C2150.41 976.314 2149.29 977.97 2147.93 979.154C2146.5 980.404 2144.81 981.117 2142.97 981.404C2138.39 982.119 2132.94 980.296 2127.85 977.413C2121.63 973.883 2118.18 967.42 2117.34 958.147L2114.85 958.133C2113.55 970.807 2110.2 979.598 2104.61 984.374C2099.12 989.066 2091.5 989.724 2081.85 986.641C2076.97 985.082 2072.04 978.354 2066.82 966.86C2066.26 965.629 2065.74 964.435 2065.26 963.28C2065.03 964.517 2064.77 965.789 2064.46 967.094C2062.49 975.551 2059.63 982.006 2055.83 986.43C2052.25 990.598 2047.84 992.918 2042.58 993.377L1990.82 959.637C1985.83 933.987 1985.98 912.725 1990.6 895.933C1995.39 878.524 2005.01 865.958 2018.7 858.358C2034.04 849.838 2053.13 843.362 2073.99 848.91C2089.77 853.109 2106.53 864.189 2123.44 886.313Z" fill="#5E69FF" stroke="black" stroke-width="2.5"/>
<path d="M2347.75 800.25H2080.25V1071.75H2347.75V800.25Z" fill="#FFE13D" stroke="black" stroke-width="2.5"/>
<path d="M2347.5 800.5L2080.5 1071.5M2080.5 800.5L2349 1073L2080.5 800.5Z" stroke="black" stroke-width="2.5" stroke-linecap="round" stroke-linejoin="round"/>
<path fill-rule="evenodd" clip-rule="evenodd" d="M2383.4 866.171L2376.21 856.306C2363.81 839.28 2339.95 835.532 2322.93 847.936C2321.85 848.719 2320.82 849.558 2319.83 850.45L2299.15 869.114C2296.44 871.563 2296.22 875.749 2298.67 878.462C2299.74 879.645 2301.2 880.403 2302.78 880.597L2306.64 881.07C2313.36 881.896 2320.12 879.899 2325.31 875.555C2328.45 872.93 2333.12 873.346 2335.75 876.485C2336.31 877.153 2336.74 877.915 2337.04 878.735L2341.72 891.764C2345.57 902.492 2347.19 913.842 2346.55 925.129L2342.77 912.739C2340.15 904.194 2332.41 898.243 2323.48 897.909C2323.04 897.892 2322.6 897.897 2322.16 897.924C2314.69 898.372 2309 904.786 2309.45 912.25L2318.84 1057.03L2318.99 1056.7C2318.36 1071.65 2328.09 1085.48 2343 1089.58C2358.14 1093.75 2373.8 1084.85 2377.96 1069.7C2378.19 1068.88 2378.38 1068.05 2378.53 1067.21L2400.98 942.819C2405.84 915.94 2399.48 888.247 2383.4 866.171Z" fill="#FFFFD9" stroke="black" stroke-width="2.5" stroke-linecap="round" stroke-linejoin="round"/>
<path d="M2346.5 923.5L2350.5 976.5" stroke="black" stroke-width="2.5" stroke-linecap="round" stroke-linejoin="round"/>
<path fill-rule="evenodd" clip-rule="evenodd" d="M1817.77 960.71C1854.91 921.052 1863.47 885.601 1848.31 858.207C1833.16 830.813 1804.56 802.736 1743.13 825.816C1681.7 848.897 1674.54 874.827 1672.25 886.461C1669.96 898.095 1680.25 902.662 1691.52 903.145C1699.04 903.467 1705.76 899.716 1711.7 891.891C1700.08 915.556 1704.65 930.032 1725.4 935.319C1730.55 936.632 1738.63 933.641 1749.62 926.346C1743.85 943.247 1745.65 955.095 1755.04 961.893" fill="#5E69FF"/>
<path d="M1817.77 960.71C1854.91 921.052 1863.47 885.601 1848.31 858.207C1833.16 830.813 1804.56 802.736 1743.13 825.816C1681.7 848.897 1674.54 874.827 1672.25 886.461C1669.96 898.095 1680.25 902.662 1691.52 903.145C1699.04 903.467 1705.76 899.716 1711.7 891.891C1700.08 915.556 1704.65 930.032 1725.4 935.319C1730.55 936.632 1738.63 933.641 1749.62 926.346C1743.85 943.247 1745.65 955.095 1755.04 961.893" stroke="black" stroke-width="2.5" stroke-linejoin="round"/>
<path fill-rule="evenodd" clip-rule="evenodd" d="M1888.5 696.171L1841.38 689.924C1806.65 685.319 1781.82 654.013 1785.24 619.143L1787.08 600.385L1789.96 570.948C1790.07 569.849 1791.05 569.045 1792.15 569.153C1792.96 569.232 1793.64 569.797 1793.87 570.58L1807.47 616.92C1811.74 631.471 1823.52 642.591 1838.29 646.014L1897.75 659.791C1898.05 666.804 1897.17 674.11 1895.11 681.708C1893.06 689.305 1890.85 694.126 1888.5 696.171Z" fill="white" stroke="black" stroke-width="2.5" stroke-linecap="round" stroke-linejoin="round"/>
<path fill-rule="evenodd" clip-rule="evenodd" d="M2062.06 779.225C2061.78 766.942 2056.55 755.935 2048.31 748.068C2040.39 740.501 2029.7 735.841 2017.96 735.747L2030.5 829.965L2048.8 811.945C2057.54 803.334 2062.34 791.494 2062.06 779.225Z" fill="#5E69FF" stroke="black" stroke-width="2.5"/>
<path fill-rule="evenodd" clip-rule="evenodd" d="M1805.86 760.437C1801.05 771.783 1801.29 784.007 1805.57 794.597C1809.7 804.811 1817.58 813.506 1828.32 818.429L1859.69 733.798L1849.09 733.288C1839.76 732.838 1830.77 735.323 1823.21 740.071C1815.65 744.819 1809.51 751.831 1805.86 760.437Z" fill="#5E69FF" stroke="black" stroke-width="2.5"/>
<path fill-rule="evenodd" clip-rule="evenodd" d="M1841.61 737.771L1837.27 753.473L1818.27 724.05C1818.38 723.875 1818.55 723.76 1818.73 723.717C1818.92 723.674 1819.12 723.703 1819.3 723.812L1841.61 737.771ZM1841.67 737.533L1828.11 710.595C1828.03 710.435 1828.01 710.258 1828.05 710.093C1828.08 709.928 1828.18 709.776 1828.32 709.666C1828.48 709.539 1828.68 709.49 1828.87 709.514C1829.06 709.538 1829.24 709.634 1829.37 709.798L1844.1 728.753L1841.67 737.533Z" fill="#5E69FF" stroke="black" stroke-width="2.5"/>
<path fill-rule="evenodd" clip-rule="evenodd" d="M1910.62 1041.45C1898.7 1052.21 1886.04 1057.36 1872.64 1056.89C1861.99 1056.52 1851.78 1050.2 1842.01 1037.94L1818.26 1045.55C1809.03 1048.51 1799.15 1043.44 1796.19 1034.22C1795.32 1031.51 1795.12 1028.62 1795.62 1025.82C1796.38 1021.47 1797.26 1016.62 1798.24 1011.26C1803.05 985.084 1810.88 928.648 1821.73 841.955C1821.8 841.336 1821.91 840.727 1822.05 840.132L1817.74 839.981C1819.59 829.533 1820.96 821.928 1821.85 817.167C1824.8 801.258 1827.55 787.649 1830.09 776.338C1831.86 768.456 1833.52 761.69 1835.09 756.04C1837.85 746.109 1842.31 733.832 1845.97 723.606L1910.27 537.831C1910.6 536.874 1911.45 536.192 1912.46 536.078C1913.91 535.914 1915.21 536.951 1915.37 538.394L1919.34 573.212C1919.36 573.402 1919.41 573.587 1919.49 573.761C1919.91 574.67 1920.98 575.07 1921.89 574.654C1923.29 574.014 1924.23 572.659 1924.32 571.125L1929.39 492.186C1929.46 491.105 1930.19 490.178 1931.22 489.849C1932.61 489.408 1934.09 490.172 1934.53 491.556L1984.98 649.659C1999.5 685.127 2009.62 712.586 2015.34 732.035L2035.62 712.873C2036.42 712.114 2037.68 712.15 2038.44 712.953C2039.09 713.642 2039.17 714.693 2038.63 715.47L2021.92 739.441L2046.57 728.492C2047.58 728.044 2048.76 728.498 2049.21 729.508C2049.52 730.21 2049.4 731.029 2048.9 731.615L2022.44 762.754C2026.2 783.368 2029.72 810.291 2033 843.524C2033.02 843.679 2033.02 843.834 2033.02 843.99C2032.99 844.836 2032.66 845.602 2032.14 846.19L2034.8 911.105C2034.98 915.399 2033.4 919.579 2030.44 922.69L2038.53 968.506C2039.31 972.963 2038.06 977.538 2035.11 980.973L2036.34 1017.88C2037.01 1037.8 2021.39 1054.49 2001.46 1055.16C2000.64 1055.18 1999.81 1055.18 1998.99 1055.15" fill="#5E69FF"/>
<path d="M1910.62 1041.45C1898.7 1052.21 1886.04 1057.36 1872.64 1056.89C1861.99 1056.52 1851.78 1050.2 1842.01 1037.94L1818.26 1045.55C1809.03 1048.51 1799.15 1043.44 1796.19 1034.22C1795.32 1031.51 1795.12 1028.62 1795.62 1025.82C1796.38 1021.47 1797.26 1016.62 1798.24 1011.26C1803.05 985.084 1810.88 928.648 1821.73 841.955C1821.8 841.336 1821.91 840.727 1822.05 840.132L1817.74 839.981C1819.59 829.533 1820.96 821.928 1821.85 817.167C1824.8 801.258 1827.55 787.649 1830.09 776.338C1831.86 768.456 1833.52 761.69 1835.09 756.04C1837.85 746.109 1842.31 733.832 1845.97 723.606L1910.27 537.831C1910.6 536.874 1911.45 536.192 1912.46 536.078C1913.91 535.914 1915.21 536.951 1915.37 538.394L1919.34 573.212C1919.36 573.402 1919.41 573.587 1919.49 573.761C1919.91 574.67 1920.98 575.07 1921.89 574.654C1923.29 574.014 1924.23 572.659 1924.32 571.125L1929.39 492.186C1929.46 491.105 1930.19 490.178 1931.22 489.849C1932.61 489.408 1934.09 490.172 1934.53 491.556L1984.98 649.659C1999.5 685.127 2009.62 712.586 2015.34 732.035L2035.62 712.873C2036.42 712.114 2037.68 712.15 2038.44 712.953C2039.09 713.642 2039.17 714.693 2038.63 715.47L2021.92 739.441L2046.57 728.492C2047.58 728.044 2048.76 728.498 2049.21 729.508C2049.52 730.21 2049.4 731.029 2048.9 731.615L2022.44 762.754C2026.2 783.368 2029.72 810.291 2033 843.524C2033.02 843.679 2033.02 843.834 2033.02 843.99C2032.99 844.836 2032.66 845.602 2032.14 846.19L2034.8 911.105C2034.98 915.399 2033.4 919.579 2030.44 922.69L2038.53 968.506C2039.31 972.963 2038.06 977.538 2035.11 980.973L2036.34 1017.88C2037.01 1037.8 2021.39 1054.49 2001.46 1055.16C2000.64 1055.18 1999.81 1055.18 1998.99 1055.15" stroke="black" stroke-width="2.5" stroke-linejoin="round"/>
<path fill-rule="evenodd" clip-rule="evenodd" d="M1928.21 736.558C1956.69 737.553 1978.97 761.446 1977.97 789.926C1977.8 794.829 1976.93 799.682 1975.39 804.339L1957.25 859.138C1951.05 877.868 1930.84 888.026 1912.11 881.826C1900.37 877.94 1891.47 868.256 1888.6 856.227L1875.41 801.13C1868.67 772.981 1886.03 744.702 1914.18 737.965C1918.77 736.867 1923.49 736.393 1928.21 736.558Z" fill="#FFFFD9" stroke="black" stroke-width="2.5" stroke-linecap="round" stroke-linejoin="round"/>
<path fill-rule="evenodd" clip-rule="evenodd" d="M1958.71 796.818L1957.55 796.879C1955.9 796.969 1954.63 798.379 1954.71 800.033L1954.83 802.38C1954.92 804.034 1956.33 805.306 1957.98 805.22C1957.98 805.22 1957.99 805.22 1957.99 805.217L1959.14 805.156C1960.8 805.067 1962.07 803.656 1961.98 802.002L1961.86 799.656C1961.78 798.001 1960.37 796.729 1958.71 796.816C1958.71 796.816 1958.71 796.816 1958.71 796.818Z" fill="white" stroke="black" stroke-width="2.5" stroke-linecap="round" stroke-linejoin="round"/>
<path fill-rule="evenodd" clip-rule="evenodd" d="M1890.26 794.455L1889.1 794.516C1887.44 794.606 1886.17 796.016 1886.26 797.67L1886.38 800.017C1886.46 801.671 1887.87 802.943 1889.53 802.857C1889.53 802.857 1889.53 802.857 1889.53 802.854L1890.69 802.793C1892.34 802.704 1893.61 801.293 1893.53 799.639L1893.41 797.293C1893.32 795.638 1891.91 794.366 1890.26 794.453C1890.26 794.453 1890.26 794.453 1890.26 794.455Z" fill="white" stroke="black" stroke-width="2.5" stroke-linecap="round" stroke-linejoin="round"/>
<path d="M1906.55 820.174L1911.27 820.56L1916.43 810.733C1918.9 817.145 1920.24 820.349 1920.47 820.346C1922.17 820.323 1925.05 820.411 1929.12 820.611L1932.71 811.011L1937.09 821.003L1943.02 821.433" stroke="black" stroke-width="2" stroke-linecap="round" stroke-linejoin="round"/>
<path d="M1939.68 652.132L1934.48 598.454C1934.27 596.255 1935.88 594.3 1938.08 594.087C1939.47 593.952 1940.84 594.559 1941.68 595.688L1988.68 659.145" stroke="black" stroke-width="2.5" stroke-linecap="round" stroke-linejoin="round"/>
<path d="M1896.34 580.598C1897.46 579.086 1898.53 581.914 1899.56 589.08C1900.59 596.247 1901.99 606.525 1903.75 619.915" stroke="black" stroke-width="2.5" stroke-linecap="round" stroke-linejoin="round"/>
<path fill-rule="evenodd" clip-rule="evenodd" d="M1921.07 806.491L1924.65 806.805C1927.96 807.093 1930.87 804.651 1931.15 801.35C1931.17 801.118 1931.18 800.885 1931.17 800.653L1930.11 764.109C1930.06 762.387 1928.62 761.031 1926.9 761.081C1925.36 761.126 1924.09 762.282 1923.9 763.806C1922.36 775.89 1921.08 784.295 1920.07 789.023C1919.22 793.023 1918.14 796.332 1916.84 798.95C1915.56 801.537 1916.61 804.677 1919.2 805.964C1919.78 806.255 1920.42 806.434 1921.07 806.491Z" fill="black"/>
<path fill-rule="evenodd" clip-rule="evenodd" d="M2005.04 697.309L2051.89 688.541C2082.87 682.741 2103.7 653.446 2099.01 622.272L2090.28 564.35C2090.12 563.258 2089.1 562.506 2088 562.67C2087.2 562.792 2086.54 563.394 2086.36 564.191L2074.74 613.651C2071.27 628.424 2060.1 640.177 2045.53 644.395L1984.92 661.93C1984.99 669.176 1986.29 676.659 1988.8 684.381C1989.39 686.172 1989.97 687.809 1990.55 689.291C1992.84 695.092 1998.92 698.456 2005.04 697.309Z" fill="white" stroke="black" stroke-width="2.5" stroke-linecap="round" stroke-linejoin="round"/>
<path d="M1813.5 913C1908.24 942.288 1980.52 945.461 2030.35 922.519" stroke="black" stroke-width="2.5" stroke-linecap="round" stroke-linejoin="round"/>
<path fill-rule="evenodd" clip-rule="evenodd" d="M1891.63 926.43C1897.29 927.221 1901.24 932.453 1900.45 938.116C1900.36 938.808 1900.19 939.489 1899.96 940.147C1897.51 947.029 1894.9 952.051 1892.12 955.215C1887.92 960.001 1879.24 965.201 1866.06 970.815C1872.79 960.107 1877.08 951.752 1878.95 945.75C1879.9 942.689 1880.43 939.37 1880.54 935.792C1880.7 930.41 1885.19 926.179 1890.58 926.341C1890.93 926.352 1891.28 926.382 1891.63 926.43Z" fill="white" stroke="black" stroke-width="2.5" stroke-linecap="round" stroke-linejoin="round"/>
<path fill-rule="evenodd" clip-rule="evenodd" d="M1955.59 928.664C1949.89 929.058 1945.58 934.001 1945.97 939.706C1946.02 940.403 1946.14 941.094 1946.33 941.767C1948.28 948.802 1950.54 953.994 1953.09 957.344C1956.95 962.412 1965.25 968.205 1978 974.724C1972.04 963.573 1968.33 954.938 1966.89 948.821C1966.16 945.701 1965.86 942.353 1966 938.777C1966.22 933.396 1962.03 928.862 1956.65 928.649C1956.3 928.635 1955.94 928.64 1955.59 928.664Z" fill="white" stroke="black" stroke-width="2.5" stroke-linecap="round" stroke-linejoin="round"/>
<path fill-rule="evenodd" clip-rule="evenodd" d="M1922.82 928.77C1916.57 928.552 1911.33 933.437 1911.12 939.681C1911.08 940.671 1911.18 941.661 1911.4 942.626L1920.68 982.729L1933.12 943.351C1934.98 937.446 1931.71 931.148 1925.8 929.284C1924.83 928.978 1923.83 928.806 1922.82 928.77Z" fill="white" stroke="black" stroke-width="2.5" stroke-linecap="round" stroke-linejoin="round"/>
<path fill-rule="evenodd" clip-rule="evenodd" d="M1786.68 605.145L1795.68 615.145L1802.18 600.145L1792.6 570.958C1792.43 570.434 1791.86 570.148 1791.34 570.32C1790.97 570.442 1790.7 570.767 1790.66 571.154L1786.68 605.145Z" fill="black"/>
<path fill-rule="evenodd" clip-rule="evenodd" d="M2079.01 597.402L2085.18 608.145L2094.68 596.645L2089 564.437C2088.9 563.893 2088.39 563.53 2087.84 563.626C2087.45 563.695 2087.14 563.988 2087.04 564.374L2079.01 597.402Z" fill="black"/>
</g>
<defs>
<clipPath id="clip0">
<rect width="2811" height="1999" fill="white"/>
</clipPath>
</defs>
</svg>
