<svg height="137.814mm" viewBox="0 0 578.561 390.654" width="204.104mm" xmlns="http://www.w3.org/2000/svg"><path d="m89.788 174.264a12.785 12.785 0 0 1 -3.98 2.37c-.38.13-.75.25-1.13.35s-.761.16-1.15.22a10.792 10.792 0 0 1 -2.26.1 11.948 11.948 0 0 1 -3.9-.89 9.488 9.488 0 0 1 -1.53-.77 9.284 9.284 0 0 1 -1.351-.94 13.306 13.306 0 0 1 -2.059-1.99 9.912 9.912 0 0 1 -1.42-2.3 9.167 9.167 0 0 1 -.571-5.24 15.887 15.887 0 0 1 1.78-4.82 11.981 11.981 0 0 1 2.111-2.81 9.328 9.328 0 0 1 1.54-1.24 8.106 8.106 0 0 1 1.869-.99c.331-.14.671-.26 1.021-.37.34-.09.7-.16 1.05-.22a8.336 8.336 0 0 1 2.08-.14 10.3 10.3 0 0 1 1.92.23c.55.14 1.089.3 1.629.49a18.557 18.557 0 0 1 2.141 1.06 13.662 13.662 0 0 1 1.7 1.24 11.762 11.762 0 0 1 2.949 3.75 10.784 10.784 0 0 1 -2.439 12.91z" fill="#88c58f"/><path d="m21.028 387.384a16.073 16.073 0 0 1 -2 1.46 11.877 11.877 0 0 1 -2.281 1.08c-.4.14-.8.27-1.2.38-.41.09-.821.17-1.23.23a11.783 11.783 0 0 1 -2.43.1 12.591 12.591 0 0 1 -4.2-.99 10.156 10.156 0 0 1 -1.679-.85 10.227 10.227 0 0 1 -1.48-1.04 15.18 15.18 0 0 1 -2.22-2.18 10.92 10.92 0 0 1 -1.52-2.48 10.128 10.128 0 0 1 -.65-5.69 17.154 17.154 0 0 1 1.88-5.26 12.881 12.881 0 0 1 2.28-3.03 10.287 10.287 0 0 1 1.65-1.34 9.145 9.145 0 0 1 1.989-1.05c.351-.14.721-.28 1.081-.39.37-.09.75-.17 1.129-.23a8.967 8.967 0 0 1 2.221-.15 11.708 11.708 0 0 1 2.049.25c.591.15 1.181.33 1.761.54a18.378 18.378 0 0 1 2.35 1.17 13.809 13.809 0 0 1 1.88 1.37 13 13 0 0 1 3.23 4.11 11.753 11.753 0 0 1 -2.61 13.99z" fill="#88c58f"/><g fill="#e7424e"><path d="m578.487 327.554a18.653 18.653 0 0 1 -4.32 10.45 19.066 19.066 0 0 1 -10.809 6.51 18.871 18.871 0 0 1 -6.651.13 21.431 21.431 0 0 1 -3.81-.95c-.68-.29-1.359-.58-2.049-.87-.69-.32-1.4-.79-2.111-1.18a14.236 14.236 0 0 1 -1.5-1.02c-.49-.39-1.03-.7-1.51-1.16a20.057 20.057 0 0 1 -2.75-2.91c-.4-.54-.839-1.05-1.189-1.61-.311-.58-.621-1.15-.92-1.7-.151-.28-.3-.56-.44-.83-.1-.28-.2-.56-.3-.83-.191-.54-.381-1.07-.55-1.57a12.84 12.84 0 0 1 -.4-1.77 12.624 12.624 0 0 1 -.27-1.75 19.081 19.081 0 0 1 -.02-3.29 19.834 19.834 0 0 1 1.22-5.59 19.123 19.123 0 0 1 1.02-2.29 20.679 20.679 0 0 1 1.16-2.04 25.952 25.952 0 0 1 2.7-3.44 17.333 17.333 0 0 1 8.671-5.24 16.92 16.92 0 0 1 10.35 1.03 26.517 26.517 0 0 1 3.639 1.9 24.029 24.029 0 0 1 8.881 9.6 20.04 20.04 0 0 1 1.958 10.42z"/><path d="m543.1 49.724a16.851 16.851 0 0 1 -2.27 1.68 13.54 13.54 0 0 1 -2.581 1.22c-.449.16-.909.3-1.359.43-.46.1-.931.18-1.4.24a12.147 12.147 0 0 1 -2.75.1 14.453 14.453 0 0 1 -4.809-1.18 11.927 11.927 0 0 1 -1.951-1.03 12.959 12.959 0 0 1 -1.75-1.24 14.528 14.528 0 0 1 -4.27-5.4 12.134 12.134 0 0 1 -.779-6.56 18.5 18.5 0 0 1 2.1-6.12 14.522 14.522 0 0 1 2.59-3.47 12.533 12.533 0 0 1 4.089-2.71 11.936 11.936 0 0 1 5.01-.85 13.282 13.282 0 0 1 4.331.92c.54.21.98.43 1.47.66.449.24.85.48 1.27.73a18.831 18.831 0 0 1 2.24 1.64 15.363 15.363 0 0 1 3.76 4.83 13.6 13.6 0 0 1 -2.941 16.11z"/><path d="m431.7 173.394a16.28 16.28 0 0 1 -5.08 9.69 14.046 14.046 0 0 1 -1.32 1.08 13.244 13.244 0 0 1 -1.4.96 16.149 16.149 0 0 1 -3.089 1.46c-.54.18-1.081.36-1.621.51-.559.11-1.109.2-1.669.28a14.637 14.637 0 0 1 -3.3.09 17.191 17.191 0 0 1 -5.829-1.51 14.868 14.868 0 0 1 -2.411-1.31l-1.129-.74c-.371-.26-.7-.54-1.05-.83a18.542 18.542 0 0 1 -3.071-3.12 16.727 16.727 0 0 1 -2.08-3.5 15.772 15.772 0 0 1 -1.039-8.04 21.961 21.961 0 0 1 2.47-7.56 17.309 17.309 0 0 1 3.12-4.22 14.912 14.912 0 0 1 4.86-3.21 14.056 14.056 0 0 1 5.919-1 15.76 15.76 0 0 1 5.221 1.14c.66.24 1.21.54 1.81.82.56.29 1.07.61 1.6.92a22.348 22.348 0 0 1 2.84 2.1 19.215 19.215 0 0 1 4.66 6.01 17.312 17.312 0 0 1 1.588 9.98z"/></g><path d="m225.328 141.584a19.34 19.34 0 0 1 -1.98 7.06 18.69 18.69 0 0 1 -19.411 10.06 20.054 20.054 0 0 1 -6.97-2.44 22.284 22.284 0 0 1 -5.72-4.49 20.916 20.916 0 0 1 -4.939-8.3 18.484 18.484 0 0 1 -.27-9.01 24.911 24.911 0 0 1 3.27-7.98 19.736 19.736 0 0 1 3.3-4.04l.49-.44.089-.09.03-.02c0-.01 0-.01.01-.02s.01-.01.02-.02l.141-.11a16.365 16.365 0 0 1 1.329-.99l.72-.45.181-.11.049-.03.1-.05c.379-.2.77-.42 1.16-.6a16.166 16.166 0 0 1 10.14-1.01 23.174 23.174 0 0 1 8.169 3.5 24.009 24.009 0 0 1 6.831 6.83 20.6 20.6 0 0 1 3.261 12.75z" fill="#6265a8"/><path d="m404.977 24.9a16.726 16.726 0 0 1 -2.27 1.68 13.185 13.185 0 0 1 -2.579 1.22c-.45.16-.911.3-1.37.43-.46.1-.92.18-1.39.25a12.745 12.745 0 0 1 -2.75.09 14.451 14.451 0 0 1 -4.82-1.18 12.7 12.7 0 0 1 -1.95-1.03 13.245 13.245 0 0 1 -1.74-1.24 14.389 14.389 0 0 1 -4.27-5.39 12.153 12.153 0 0 1 -.78-6.57 18.542 18.542 0 0 1 2.1-6.12 14.474 14.474 0 0 1 2.589-3.47 12.542 12.542 0 0 1 4.091-2.71 11.874 11.874 0 0 1 5.01-.85 13.35 13.35 0 0 1 4.33.92c.539.21.98.43 1.46.66.45.24.859.48 1.279.73a18.84 18.84 0 0 1 2.241 1.64 15.476 15.476 0 0 1 3.759 4.83 13.6 13.6 0 0 1 -2.94 16.11z" fill="#6265a8"/></svg>