<svg height="457.257" viewBox="0 0 324.523 457.257" width="324.523" xmlns="http://www.w3.org/2000/svg"><path d="m151.38 14.507c0 2.473-1.52 4.61-2.676 6.607-1.192 2.061-2.473 4.173-4.533 5.365-2 1.156-4.439 1.253-6.913 1.253s-4.3-1.166-6.294-2.321c-2.061-1.192-3.979-2.225-5.171-4.285-1.156-2-1.145-4.146-1.145-6.619s.029-4.6 1.184-6.6c1.193-2.06 2.274-4.494 4.335-5.686a15.024 15.024 0 0 1 7.091-2.221c2.474 0 4.815 1.551 6.813 2.707a13.569 13.569 0 0 1 4.829 5.079c1.155 1.997 2.48 4.247 2.48 6.721z" fill="#e42937"/><path d="m237.04 126.563c0 2.446 1.348 5.151.466 7.278-.914 2.2-3.817 3.151-5.479 4.813s-2.637 4.5-4.842 5.409c-2.127.882-4.8.6-7.249.6s-4.564-1.062-6.691-1.944c-2.205-.914-4.405-1.736-6.066-3.4s-3.539-3.423-4.453-5.628a19.118 19.118 0 0 1 -1.379-7.129c0-2.446 1.147-4.732 2.029-6.859a18.416 18.416 0 0 1 3.585-6.116c1.662-1.662 4.131-2.14 6.336-3.054 2.127-.882 4.193-2.241 6.639-2.241s4.43 1.557 6.557 2.439c2.205.915 4.511 1.44 6.173 3.1a17.714 17.714 0 0 1 3.519 6c.882 2.129.855 4.286.855 6.732z" fill="#6165a8"/><path d="m175.8 279.836a20.712 20.712 0 0 1 -20.755 20.449 20.413 20.413 0 0 1 -7.764-1.7c-2.47-1.024-4.109-3.15-5.97-5.011s-4.266-3.384-5.29-5.854c-.988-2.382-.757-5.14-.757-7.88s-.635-5.665.353-8.048a21.564 21.564 0 0 1 4.8-6.576c1.861-1.861 4.781-2.156 7.25-3.18a18.5 18.5 0 0 1 7.374-1.7c2.74 0 5.369-.192 7.751.8a20.22 20.22 0 0 1 6.488 4.475c1.861 1.861 3.935 3.817 4.959 6.286a21.267 21.267 0 0 1 1.561 7.939z" fill="#88c58f"/><path d="m217.328 430.252c0 2.814-1.376 5.539-2.2 8.078-.854 2.631-1.561 5.5-3.155 7.691a27.49 27.49 0 0 1 -6.106 5.7 26.68 26.68 0 0 1 -7.5 3.45c-2.539.825-5.283.366-8.1.366a25.156 25.156 0 0 1 -7.933-.871c-2.631-.855-4.628-2.515-6.818-4.109-2.212-1.61-4.679-2.806-6.289-5.018-1.594-2.191-3.363-4.448-4.217-7.079a27.17 27.17 0 0 1 -1.545-8.207c0-2.814 1.739-5.337 2.563-7.876.855-2.631 1.3-5.444 2.891-7.634 1.61-2.212 4.15-3.507 6.362-5.117a25.345 25.345 0 0 1 6.959-4.076c2.539-.824 5.213-2.3 8.027-2.3s5.4 1.749 7.939 2.573c2.631.854 5.535 1.278 7.725 2.872 2.212 1.61 3.033 4.6 4.643 6.807a24.432 24.432 0 0 1 3.925 6.878c.828 2.537 2.829 5.059 2.829 7.872z" fill="#e42937"/><path d="m280.273 359.773c0 2.6.11 5.224-1.105 7.324a14.892 14.892 0 0 1 -5.46 5.191c-2.1 1.215-4.624 1.372-7.225 1.372a13.243 13.243 0 0 1 -6.845-2.03c-2.166-1.253-4.417-2.464-5.671-4.631-1.215-2.1-.9-4.625-.9-7.226s-.3-5.112.918-7.213a14.867 14.867 0 0 1 5.178-5.458c2.1-1.215 4.714-1.183 7.315-1.183a12.028 12.028 0 0 1 12.108 6.865 13.5 13.5 0 0 1 1.687 6.989z" fill="#e42937"/><path d="m28.935 381a14.61 14.61 0 0 1 -2.133 7.2 14.935 14.935 0 0 1 -5.105 5.55c-2.1 1.215-4.759.961-7.36.961a13.372 13.372 0 0 1 -6.957-1.657 13.777 13.777 0 0 1 -5.206-5.029 14.005 14.005 0 0 1 -2.174-7.025 15.02 15.02 0 0 1 1.5-7.415 15.18 15.18 0 0 1 5.576-5.17c2.1-1.215 4.665-.752 7.266-.752s5.323-.735 7.423.48c2.167 1.254 2.861 4.031 4.114 6.2 1.211 2.096 3.056 4.057 3.056 6.657z" fill="#6165a8"/><path d="m324.523 444.868c0 3.172-.881 6.727-2.96 8.806a13.325 13.325 0 0 1 -8.806 3.583c-3.173 0-6.314-1.918-8.393-4a11.825 11.825 0 0 1 -3.018-8.392c0-3.173 1.906-5.346 3.986-7.425a9.842 9.842 0 0 1 7.425-3.318 10.178 10.178 0 0 1 7.673 3.069c2.079 2.083 4.093 4.509 4.093 7.677z" fill="#88c58f"/></svg>