<svg enable-background="new 0 0 925.055 1346.748" height="1347" viewBox="0 0 925.055 1346.748" width="926" xmlns="http://www.w3.org/2000/svg"><path d="m919.055 74.393h-709.115c-3.313 0-6 2.687-6 6v1238.257c0 3.313 2.687 6 6 6h709.116c3.314 0 6-2.687 6-6v-1238.257c-.001-3.313-2.687-6-6.001-6z"/><g fill="#fff"><circle cx="333.896" cy="139.083" r="12.613"/><circle cx="651.6" cy="849.291" r="12.613"/><circle cx="804.95" cy="368.64" r="12.613"/><circle cx="298.855" cy="1084.094" r="12.613"/><circle cx="753.611" cy="213.246" r="5.305"/><circle cx="296.69" cy="277.007" r="5.305"/><circle cx="698.518" cy="1142.503" r="5.305"/><circle cx="764.486" cy="498.411" r="7.579"/><circle cx="403.055" cy="1227.722" r="7.579"/><circle cx="825.643" cy="901.175" r="7.579"/><circle cx="458.815" cy="151.696" r="7.579"/><circle cx="359.558" cy="783.101" r="12.613"/><circle cx="341.044" cy="433.735" r="5.305"/><circle cx="377.476" cy="305.823" r="5.305"/><circle cx="615.618" cy="381.253" r="5.305"/><circle cx="777.935" cy="1259.946" r="7.579"/><circle cx="811.116" cy="126.47" r="7.579"/><circle cx="294.416" cy="849.291" r="7.579"/></g><path d="m51.386 693.212c0 9.865-14.879 33.819-27.867 33.819s-23.519-15.141-23.519-33.819 10.529-33.819 23.518-33.819 27.868 23.954 27.868 33.819z"/><path d="m29.744 1340.748 180.195-22.098v-1238.257l-180.195-74.393z" fill="#fff"/><path d="m29.743 1346.748c-1.456 0-2.873-.531-3.976-1.507-1.287-1.139-2.024-2.775-2.024-4.493v-1334.748c0-2.003.999-3.874 2.664-4.987s3.774-1.324 5.626-.559l180.196 74.393c2.246.927 3.71 3.117 3.71 5.546v1238.257c0 3.031-2.261 5.586-5.27 5.955l-180.196 22.098c-.243.03-.487.045-.73.045zm6.001-1331.78v1318.999l168.196-20.626v-1228.934z"/><ellipse cx="96.287" cy="693.023" rx="23.518" ry="34.196"/></svg>