<svg xmlns="http://www.w3.org/2000/svg"  viewBox="0 0 512 512" width="64px" height="64px"><circle cx="256" cy="80" r="24" fill="#57a4ff"/><path fill="#004fac" d="M496,208H426.83L285.11,93.27a32,32,0,1,0-58.22,0L85.17,208H16a8,8,0,0,0-8,8V456a8,8,0,0,0,8,8H496a8,8,0,0,0,8-8V216A8,8,0,0,0,496,208ZM256,64a16,16,0,1,1-16,16A16.021,16.021,0,0,1,256,64Zm-19.04,41.7a31.922,31.922,0,0,0,38.08,0L401.4,208H110.6ZM488,448H24V224H488Z"/><path fill="#004fac" d="M376,272V400a8,8,0,0,0,8,8h80a8,8,0,0,0,0-16H392V344h48a8,8,0,0,0,0-16H392V280h72a8,8,0,0,0,0-16H384A8,8,0,0,0,376,272Z"/><path fill="#004fac" d="M352,280a8,8,0,0,0,0-16H272a8,8,0,0,0-8,8V400a8,8,0,0,0,8,8h80a8,8,0,0,0,0-16H280V344h48a8,8,0,0,0,0-16H280V280Z"/><path fill="#004fac" d="M240,316V292a28.031,28.031,0,0,0-28-28H152a8,8,0,0,0-8,8V400a8,8,0,0,0,16,0V344h12.37l53.61,61.27a8,8,0,0,0,12.04-10.54L193.63,344H212A28.031,28.031,0,0,0,240,316Zm-80,12V280h52a12.01,12.01,0,0,1,12,12v24a12.01,12.01,0,0,1-12,12Z"/><path fill="#004fac" d="M128,264H48a8,8,0,0,0-8,8V400a8,8,0,0,0,16,0V344h48a8,8,0,0,0,0-16H56V280h72a8,8,0,0,0,0-16Z"/></svg>