<svg xmlns="http://www.w3.org/2000/svg" xmlns:xlink="http://www.w3.org/1999/xlink" width="3000" zoomAndPan="magnify" viewBox="0 0 2250 2250.000011" height="3000" preserveAspectRatio="xMidYMid meet" version="1.0"><defs><g/><clipPath id="e7c4809e3e"><path d="M 768.605469 788 L 1119 788 L 1119 1105 L 768.605469 1105 Z M 768.605469 788 " clip-rule="nonzero"/></clipPath></defs><path fill="#ff0c0c" d="M 1011.898438 1095.433594 C 1011.078125 1101.121094 953.308594 1057.828125 953.308594 1057.828125 C 935.039062 1057.828125 916.839844 1057.828125 898.546875 1057.828125 C 832.3125 1057.648438 777.753906 1002.707031 777.640625 935.824219 C 777.546875 930.320312 777.546875 924.90625 777.640625 919.398438 C 777.753906 852.515625 832.3125 797.667969 898.546875 797.484375 C 928.691406 797.394531 958.726562 797.394531 988.871094 797.484375 C 1055.105469 797.667969 1109.6875 852.515625 1109.777344 919.398438 C 1109.777344 924.90625 1109.777344 930.320312 1109.777344 935.824219 C 1109.6875 997.863281 1062.75 1049.527344 1003.046875 1056.894531 C 1003.046875 1056.894531 1013.21875 1086.835938 1011.898438 1095.433594 " fill-opacity="1" fill-rule="nonzero"/><path fill="#008ed4" d="M 1191.550781 1272.378906 C 1191.550781 1272.378906 1182.132812 1314.851562 1183.519531 1323.859375 C 1184.40625 1329.84375 1247.15625 1283.367188 1247.15625 1283.367188 C 1327.542969 1283.367188 1392.703125 1218.210938 1392.703125 1137.863281 C 1392.703125 1057.488281 1327.542969 992.332031 1247.15625 992.332031 C 1166.773438 992.332031 1101.609375 1057.488281 1101.609375 1137.863281 C 1101.609375 1198.535156 1138.765625 1250.539062 1191.550781 1272.378906 " fill-opacity="1" fill-rule="nonzero"/><path fill="#ff7a00" d="M 1203.40625 945.539062 C 1204.382812 952.15625 1279.328125 893.875 1279.328125 893.875 L 1367.335938 892.894531 C 1409.792969 892.894531 1445.96875 861.980469 1452.429688 820.074219 L 1468.765625 715.246094 C 1476.890625 663.058594 1436.480469 615.921875 1383.671875 615.921875 L 1206.542969 615.921875 C 1155.808594 615.921875 1116.125 659.578125 1120.8125 710.082031 L 1130.550781 814.820312 C 1134.441406 856.882812 1168.296875 889.550781 1209.820312 892.667969 C 1209.820312 892.667969 1201.878906 935.527344 1203.40625 945.539062 " fill-opacity="1" fill-rule="nonzero"/><path fill="#141414" d="M 920.433594 918.238281 C 920.433594 927.042969 913.3125 934.1875 904.507812 934.1875 C 895.703125 934.1875 888.578125 927.042969 888.578125 918.238281 C 888.578125 909.457031 895.703125 902.3125 904.507812 902.3125 C 913.3125 902.3125 920.433594 909.457031 920.433594 918.238281 " fill-opacity="1" fill-rule="nonzero"/><path fill="#141414" d="M 1029.460938 918.238281 C 1029.460938 927.042969 1022.320312 934.1875 1013.535156 934.1875 C 1004.730469 934.1875 997.585938 927.042969 997.585938 918.238281 C 997.585938 909.457031 1004.730469 902.3125 1013.535156 902.3125 C 1022.320312 902.3125 1029.460938 909.457031 1029.460938 918.238281 " fill-opacity="1" fill-rule="nonzero"/><path fill="#ffffff" d="M 1236.941406 753.785156 C 1230.023438 753.785156 1224.90625 760.0625 1226.042969 766.886719 C 1229.773438 789.203125 1243.835938 808.175781 1274.277344 808.175781 C 1304.722656 808.175781 1318.78125 789.203125 1322.515625 766.886719 C 1323.652344 760.0625 1318.53125 753.785156 1311.617188 753.785156 L 1236.941406 753.785156 " fill-opacity="1" fill-rule="nonzero"/><path fill="#141414" d="M 961.546875 969.46875 C 947.734375 969.46875 937.726562 960.9375 935.449219 947.199219 C 934.652344 942.445312 937.863281 937.941406 942.617188 937.144531 C 947.328125 936.347656 951.878906 939.554688 952.671875 944.308594 C 953.8125 951.066406 957.792969 952 961.546875 952 C 965.300781 952 969.28125 951.066406 970.421875 944.308594 C 971.195312 939.554688 975.722656 936.347656 980.476562 937.144531 C 985.230469 937.941406 988.441406 942.445312 987.644531 947.199219 C 985.347656 960.9375 975.335938 969.46875 961.546875 969.46875 " fill-opacity="1" fill-rule="nonzero"/><path fill="#ffffff" d="M 1198.492188 1143.980469 C 1194.828125 1143.980469 1192.121094 1147.300781 1192.734375 1150.917969 C 1194.714844 1162.703125 1202.132812 1172.734375 1218.21875 1172.734375 C 1234.304688 1172.734375 1241.742188 1162.703125 1243.722656 1150.917969 C 1244.3125 1147.300781 1241.605469 1143.980469 1237.941406 1143.980469 L 1198.492188 1143.980469 " fill-opacity="1" fill-rule="nonzero"/><g clip-path="url(#e7c4809e3e)"><path fill="#141414" d="M 943.710938 806.152344 C 928.667969 806.152344 913.652344 806.175781 898.589844 806.222656 C 836.796875 806.402344 786.46875 857.179688 786.375 919.421875 C 786.285156 924.949219 786.285156 930.273438 786.375 935.6875 C 786.46875 998.113281 836.796875 1048.933594 898.589844 1049.09375 L 953.308594 1049.09375 C 955.222656 1049.09375 957.019531 1049.707031 958.542969 1050.84375 C 972.011719 1060.921875 987.4375 1071.910156 998.496094 1079.191406 C 999.382812 1079.78125 1000.542969 1078.964844 1000.273438 1077.941406 C 998.703125 1072.023438 996.722656 1065.449219 994.765625 1059.71875 C 993.921875 1057.238281 994.242188 1054.484375 995.652344 1052.253906 C 997.039062 1050.027344 999.363281 1048.546875 1001.976562 1048.230469 C 1058.359375 1041.265625 1100.949219 992.949219 1101.042969 935.800781 L 1101.042969 919.398438 C 1100.949219 857.179688 1050.621094 806.402344 988.828125 806.222656 C 973.789062 806.175781 958.75 806.152344 943.710938 806.152344 Z M 1011.398438 1104.785156 C 1005.914062 1104.785156 993.902344 1099.074219 950.421875 1066.566406 L 898.546875 1066.566406 C 827.148438 1066.382812 769.015625 1007.734375 768.902344 935.824219 C 768.8125 930.363281 768.8125 924.859375 768.902344 919.261719 C 769.015625 847.554688 827.148438 788.953125 898.523438 788.75 C 928.691406 788.660156 958.726562 788.660156 988.894531 788.75 C 1060.269531 788.953125 1118.402344 847.554688 1118.515625 919.398438 L 1118.515625 935.824219 C 1118.425781 998.226562 1074.375 1051.503906 1014.46875 1063.878906 C 1017.835938 1074.914062 1021.636719 1089.585938 1020.542969 1096.730469 C 1020.089844 1099.777344 1017.722656 1102.78125 1014.902344 1103.941406 C 1013.878906 1104.375 1012.875 1104.785156 1011.398438 1104.785156 " fill-opacity="1" fill-rule="nonzero"/></g><path fill="#141414" d="M 1233.347656 1001.75 C 1170.824219 1007.917969 1119.699219 1057.238281 1111.554688 1119.523438 C 1103.339844 1182.335938 1138.015625 1240.847656 1195.078125 1264.371094 C 1198.921875 1265.964844 1200.992188 1270.171875 1200.082031 1274.242188 C 1197.625 1285.414062 1195.144531 1298.0625 1193.621094 1307.730469 C 1193.484375 1308.710938 1194.554688 1309.414062 1195.394531 1308.867188 C 1207.546875 1301.109375 1226 1288.167969 1241.992188 1276.335938 C 1243.515625 1275.199219 1245.335938 1274.628906 1247.25 1274.628906 C 1322.628906 1274.585938 1383.96875 1213.253906 1383.96875 1137.863281 C 1383.96875 1057.875 1314.960938 993.722656 1233.347656 1001.75 Z M 1183.929688 1333.210938 C 1182.472656 1333.210938 1181.496094 1332.800781 1180.515625 1332.390625 C 1177.671875 1331.207031 1175.328125 1328.183594 1174.875 1325.132812 C 1173.621094 1316.96875 1178.515625 1291.691406 1181.515625 1277.472656 C 1127.433594 1252.085938 1092.875 1198.054688 1092.875 1137.863281 C 1092.875 1052.800781 1162.085938 983.597656 1247.15625 983.597656 C 1332.230469 983.597656 1401.441406 1052.800781 1401.441406 1137.863281 C 1401.441406 1221.941406 1333.800781 1290.507812 1250.070312 1292.078125 C 1202.496094 1327.203125 1189.59375 1333.210938 1183.929688 1333.210938 " fill-opacity="1" fill-rule="nonzero"/><path fill="#141414" d="M 1207.476562 624.660156 C 1199.515625 624.660156 1191.527344 625.613281 1183.929688 628.003906 C 1147 639.628906 1126.273438 674.410156 1129.527344 709.261719 L 1139.242188 814.023438 C 1142.746094 851.71875 1172.6875 881.132812 1210.457031 883.957031 C 1212.9375 884.136719 1215.214844 885.367188 1216.738281 887.324219 C 1218.261719 889.300781 1218.855469 891.804688 1218.398438 894.238281 C 1216.238281 905.929688 1214.167969 919.285156 1212.960938 929.386719 C 1212.847656 930.363281 1213.917969 931.023438 1214.734375 930.476562 C 1229.183594 920.855469 1253.1875 903.132812 1273.984375 886.957031 C 1275.484375 885.777344 1277.304688 885.136719 1279.214844 885.136719 L 1367.246094 884.160156 C 1405.789062 884.160156 1437.960938 856.65625 1443.785156 818.757812 L 1460.121094 713.902344 C 1464.464844 686.035156 1453.363281 657.644531 1429.996094 640.015625 C 1416.207031 629.617188 1399.074219 624.660156 1381.808594 624.660156 Z M 1203.792969 954.867188 C 1202.402344 954.867188 1201.449219 954.480469 1200.515625 954.09375 C 1197.648438 952.953125 1195.238281 949.90625 1194.78125 946.859375 C 1193.484375 938.417969 1197.214844 914.210938 1199.605469 900.175781 C 1157.878906 892.828125 1125.84375 858.613281 1121.835938 815.640625 L 1112.121094 710.878906 C 1109.640625 684.328125 1118.539062 657.804688 1136.46875 638.125 C 1154.394531 618.449219 1179.945312 607.1875 1206.542969 607.1875 L 1383.671875 607.1875 C 1411.40625 607.1875 1437.664062 619.265625 1455.707031 640.332031 C 1473.75 661.398438 1481.667969 689.199219 1477.390625 716.589844 L 1461.054688 821.441406 C 1453.910156 867.894531 1414.480469 901.632812 1367.335938 901.632812 L 1282.355469 902.566406 C 1224.179688 947.746094 1209.820312 954.867188 1203.792969 954.867188 " fill-opacity="1" fill-rule="nonzero"/><path fill="#141414" d="M 1185.726562 1097.253906 C 1185.726562 1106.488281 1178.242188 1113.996094 1168.980469 1113.996094 C 1159.742188 1113.996094 1152.234375 1106.488281 1152.234375 1097.253906 C 1152.234375 1087.996094 1159.742188 1080.511719 1168.980469 1080.511719 C 1178.242188 1080.511719 1185.726562 1087.996094 1185.726562 1097.253906 " fill-opacity="1" fill-rule="nonzero"/><path fill="#141414" d="M 1286.222656 1097.253906 C 1286.222656 1106.488281 1278.738281 1113.996094 1269.476562 1113.996094 C 1260.242188 1113.996094 1252.730469 1106.488281 1252.730469 1097.253906 C 1252.730469 1087.996094 1260.242188 1080.511719 1269.476562 1080.511719 C 1278.738281 1080.511719 1286.222656 1087.996094 1286.222656 1097.253906 " fill-opacity="1" fill-rule="nonzero"/><path fill="#141414" d="M 1308.726562 770.914062 C 1306.0625 786.859375 1296.03125 800.417969 1274.277344 800.417969 C 1252.527344 800.417969 1242.492188 786.859375 1239.832031 770.914062 C 1239.011719 766.046875 1242.675781 761.5625 1247.613281 761.5625 L 1300.945312 761.5625 C 1305.882812 761.5625 1309.546875 766.046875 1308.726562 770.914062 Z M 1320.285156 753.054688 C 1315.460938 747.34375 1308.40625 744.09375 1300.945312 744.09375 L 1247.613281 744.09375 C 1240.148438 744.09375 1233.097656 747.34375 1228.273438 753.054688 C 1223.425781 758.789062 1221.332031 766.363281 1222.585938 773.804688 C 1227.136719 800.988281 1246.953125 817.890625 1274.277344 817.890625 C 1301.605469 817.890625 1321.398438 800.988281 1325.972656 773.804688 C 1327.222656 766.363281 1325.128906 758.789062 1320.285156 753.054688 " fill-opacity="1" fill-rule="nonzero"/><path fill="#141414" d="M 1218.21875 1168.230469 C 1207.183594 1168.230469 1202.085938 1161.339844 1200.71875 1153.261719 C 1200.3125 1150.78125 1202.175781 1148.507812 1204.679688 1148.507812 L 1231.753906 1148.507812 C 1234.28125 1148.507812 1236.121094 1150.78125 1235.714844 1153.261719 C 1234.347656 1161.339844 1229.25 1168.230469 1218.21875 1168.230469 Z M 1231.753906 1131.035156 L 1204.679688 1131.035156 C 1198.355469 1131.035156 1192.394531 1133.789062 1188.296875 1138.636719 C 1184.203125 1143.480469 1182.449219 1149.851562 1183.496094 1156.152344 C 1186.5 1174.101562 1200.128906 1185.703125 1218.21875 1185.703125 C 1236.304688 1185.703125 1249.933594 1174.101562 1252.9375 1156.152344 C 1254.007812 1149.851562 1252.253906 1143.480469 1248.136719 1138.636719 C 1244.0625 1133.789062 1238.078125 1131.035156 1231.753906 1131.035156 " fill-opacity="1" fill-rule="nonzero"/><path fill="#141414" d="M 1245.679688 714.675781 C 1243.359375 714.675781 1241.039062 713.765625 1239.332031 711.949219 C 1233.371094 705.625 1219.558594 706.417969 1215.578125 709.492188 C 1211.753906 712.449219 1206.273438 711.71875 1203.335938 707.898438 C 1200.402344 704.054688 1201.105469 698.570312 1204.929688 695.636719 C 1214.984375 687.925781 1239.195312 686.332031 1252.027344 699.957031 C 1255.347656 703.460938 1255.191406 708.988281 1251.6875 712.3125 C 1249.980469 713.902344 1247.839844 714.675781 1245.679688 714.675781 " fill-opacity="1" fill-rule="nonzero"/><path fill="#141414" d="M 1309.816406 714.675781 C 1307.679688 714.675781 1305.519531 713.902344 1303.835938 712.3125 C 1300.308594 708.988281 1300.148438 703.460938 1303.46875 699.957031 C 1316.324219 686.332031 1340.535156 687.925781 1350.566406 695.636719 C 1354.390625 698.570312 1355.117188 704.054688 1352.183594 707.898438 C 1349.246094 711.71875 1343.765625 712.449219 1339.917969 709.492188 C 1335.9375 706.441406 1322.148438 705.625 1316.1875 711.949219 C 1314.460938 713.765625 1312.140625 714.675781 1309.816406 714.675781 " fill-opacity="1" fill-rule="nonzero"/><g fill="#141414" fill-opacity="1"><g transform="translate(710.132077, 1531.382517)"><g><path d="M 55.84375 -52.667969 L 55.84375 -35.929688 L 86.144531 -35.929688 C 82.394531 -25.539062 70.992188 -18.613281 58.007812 -18.613281 C 39.824219 -18.613281 27.847656 -31.601562 27.847656 -50.359375 C 27.847656 -69.261719 40.113281 -82.25 58.007812 -82.25 C 70.703125 -82.25 81.382812 -75.464844 85.710938 -64.644531 L 108.222656 -64.644531 C 103.460938 -87.300781 82.679688 -103.171875 57.574219 -103.171875 C 27.703125 -103.171875 5.628906 -80.515625 5.628906 -50.359375 C 5.628906 -20.058594 28.28125 2.308594 58.007812 2.308594 C 88.308594 2.308594 109.519531 -21.066406 109.519531 -52.667969 Z M 55.84375 -52.667969 "/></g></g></g><g fill="#141414" fill-opacity="1"><g transform="translate(825.128832, 1531.382517)"><g><path d="M 47.039062 2.308594 C 71.136719 2.308594 89.175781 -15.441406 89.175781 -38.960938 C 89.175781 -62.480469 71.136719 -80.085938 47.039062 -80.085938 C 22.941406 -80.085938 4.90625 -62.480469 4.90625 -38.960938 C 4.90625 -15.441406 22.941406 2.308594 47.039062 2.308594 Z M 47.039062 -17.605469 C 34.917969 -17.605469 26.261719 -26.261719 26.261719 -38.960938 C 26.261719 -51.511719 34.917969 -60.316406 47.039062 -60.316406 C 59.160156 -60.316406 67.820312 -51.511719 67.820312 -38.960938 C 67.820312 -26.261719 59.160156 -17.605469 47.039062 -17.605469 Z M 47.039062 -17.605469 "/></g></g></g><g fill="#141414" fill-opacity="1"><g transform="translate(919.348205, 1531.382517)"><g><path d="M 37.660156 2.308594 C 57.429688 2.308594 70.417969 -8.082031 70.417969 -23.953125 C 70.417969 -43 54.109375 -45.597656 41.414062 -47.90625 C 33.332031 -49.347656 26.695312 -50.648438 26.695312 -55.84375 C 26.695312 -60.316406 30.589844 -63.203125 37.085938 -63.203125 C 44.441406 -63.203125 48.773438 -60.171875 48.917969 -53.964844 L 68.972656 -53.964844 C 68.828125 -69.550781 56.417969 -80.085938 37.660156 -80.085938 C 18.902344 -80.085938 6.347656 -69.839844 6.347656 -55.121094 C 6.347656 -36.796875 22.222656 -33.476562 34.632812 -31.3125 C 42.855469 -30.011719 49.636719 -28.425781 49.636719 -23.085938 C 49.636719 -17.894531 44.300781 -15.152344 38.527344 -15.152344 C 31.023438 -15.152344 25.683594 -18.613281 25.539062 -25.539062 L 5.050781 -25.539062 C 5.050781 -8.945312 18.179688 2.308594 37.660156 2.308594 Z M 37.660156 2.308594 "/></g></g></g><g fill="#141414" fill-opacity="1"><g transform="translate(995.098847, 1531.382517)"><g><path d="M 37.660156 2.308594 C 57.429688 2.308594 70.417969 -8.082031 70.417969 -23.953125 C 70.417969 -43 54.109375 -45.597656 41.414062 -47.90625 C 33.332031 -49.347656 26.695312 -50.648438 26.695312 -55.84375 C 26.695312 -60.316406 30.589844 -63.203125 37.085938 -63.203125 C 44.441406 -63.203125 48.773438 -60.171875 48.917969 -53.964844 L 68.972656 -53.964844 C 68.828125 -69.550781 56.417969 -80.085938 37.660156 -80.085938 C 18.902344 -80.085938 6.347656 -69.839844 6.347656 -55.121094 C 6.347656 -36.796875 22.222656 -33.476562 34.632812 -31.3125 C 42.855469 -30.011719 49.636719 -28.425781 49.636719 -23.085938 C 49.636719 -17.894531 44.300781 -15.152344 38.527344 -15.152344 C 31.023438 -15.152344 25.683594 -18.613281 25.539062 -25.539062 L 5.050781 -25.539062 C 5.050781 -8.945312 18.179688 2.308594 37.660156 2.308594 Z M 37.660156 2.308594 "/></g></g></g><g fill="#141414" fill-opacity="1"><g transform="translate(1070.849488, 1531.382517)"><g><path d="M 10.101562 -88.308594 L 31.023438 -88.308594 L 31.023438 -107.789062 L 10.101562 -107.789062 Z M 10.101562 0 L 31.167969 0 L 31.167969 -77.917969 L 10.101562 -77.917969 Z M 10.101562 0 "/></g></g></g><g fill="#141414" fill-opacity="1"><g transform="translate(1112.11557, 1531.382517)"><g><path d="M 52.523438 -80.085938 C 42.855469 -80.085938 34.199219 -76.621094 27.558594 -70.703125 L 23.953125 -77.917969 L 10.101562 -77.917969 L 10.101562 28.136719 L 31.167969 28.136719 L 31.167969 -4.183594 C 37.085938 0 44.441406 2.453125 52.523438 2.453125 C 76.042969 2.453125 93.359375 -15.296875 93.359375 -38.960938 C 93.359375 -62.480469 76.042969 -80.085938 52.523438 -80.085938 Z M 50.792969 -17.605469 C 38.527344 -17.605469 29.582031 -26.695312 29.582031 -38.960938 C 29.582031 -51.082031 38.527344 -60.316406 50.792969 -60.316406 C 63.058594 -60.316406 72.003906 -51.082031 72.003906 -38.960938 C 72.003906 -26.695312 63.058594 -17.605469 50.792969 -17.605469 Z M 50.792969 -17.605469 "/></g></g></g><g fill="#141414" fill-opacity="1"><g transform="translate(1210.51929, 1531.382517)"><g/></g></g><g fill="#141414" fill-opacity="1"><g transform="translate(1245.003847, 1531.382517)"><g><path d="M 71.425781 -101.007812 L 71.425781 -62.046875 L 33.332031 -62.046875 L 33.332031 -101.007812 L 11.542969 -101.007812 L 11.542969 0 L 33.332031 0 L 33.332031 -41.703125 L 71.425781 -41.703125 L 71.425781 0 L 93.214844 0 L 93.214844 -101.007812 Z M 71.425781 -101.007812 "/></g></g></g><g fill="#141414" fill-opacity="1"><g transform="translate(1349.900481, 1531.382517)"><g><path d="M 45.597656 2.308594 C 67.675781 2.308594 82.25 -11.832031 82.25 -32.898438 L 82.25 -77.917969 L 61.179688 -77.917969 L 61.179688 -35.207031 C 61.179688 -24.242188 55.410156 -17.605469 45.597656 -17.605469 C 35.929688 -17.605469 30.011719 -24.097656 30.011719 -35.207031 L 30.011719 -77.917969 L 8.945312 -77.917969 L 8.945312 -32.898438 C 8.945312 -11.832031 23.664062 2.308594 45.597656 2.308594 Z M 45.597656 2.308594 "/></g></g></g><g fill="#141414" fill-opacity="1"><g transform="translate(1441.234135, 1531.382517)"><g><path d="M 52.523438 -80.085938 C 44.441406 -80.085938 37.085938 -77.777344 31.167969 -73.589844 L 31.167969 -105.914062 L 10.101562 -105.914062 L 10.101562 0.144531 L 25.539062 0.144531 L 28.136719 -6.492188 C 34.632812 -0.867188 43 2.308594 52.523438 2.308594 C 76.1875 2.308594 93.503906 -15.296875 93.503906 -38.816406 C 93.503906 -62.480469 76.1875 -80.085938 52.523438 -80.085938 Z M 50.792969 -17.605469 C 38.527344 -17.605469 29.582031 -26.839844 29.582031 -38.960938 C 29.582031 -51.082031 38.527344 -60.316406 50.792969 -60.316406 C 63.058594 -60.316406 72.003906 -51.082031 72.003906 -38.960938 C 72.003906 -26.839844 63.058594 -17.605469 50.792969 -17.605469 Z M 50.792969 -17.605469 "/></g></g></g><g fill="#141414" fill-opacity="1"><g transform="translate(889.866657, 1628.902049)"><g><path d="M 20.046875 -35.046875 C 22.503906 -35.046875 24.90625 -34.570312 27.25 -33.625 C 29.59375 -32.675781 31.613281 -31.359375 33.3125 -29.671875 L 29.859375 -25.375 C 28.597656 -26.738281 27.101562 -27.816406 25.375 -28.609375 C 23.644531 -29.410156 21.898438 -29.8125 20.140625 -29.8125 C 16.648438 -29.8125 13.695312 -28.625 11.28125 -26.25 C 8.875 -23.875 7.671875 -20.972656 7.671875 -17.546875 C 7.671875 -14.085938 8.875 -11.171875 11.28125 -8.796875 C 13.695312 -6.421875 16.648438 -5.234375 20.140625 -5.234375 C 23.765625 -5.234375 27.003906 -6.613281 29.859375 -9.375 L 33.359375 -5.484375 C 31.554688 -3.722656 29.457031 -2.328125 27.0625 -1.296875 C 24.675781 -0.265625 22.269531 0.25 19.84375 0.25 C 14.726562 0.25 10.421875 -1.453125 6.921875 -4.859375 C 3.429688 -8.265625 1.6875 -12.476562 1.6875 -17.5 C 1.6875 -22.445312 3.457031 -26.609375 7 -29.984375 C 10.539062 -33.359375 14.890625 -35.046875 20.046875 -35.046875 Z M 20.046875 -35.046875 "/></g></g></g><g fill="#141414" fill-opacity="1"><g transform="translate(932.10254, 1628.902049)"><g><path d="M 26.71875 0 L 20.34375 -10.5625 C 20.007812 -10.53125 19.476562 -10.515625 18.75 -10.515625 L 10.46875 -10.515625 L 10.46875 0 L 4.59375 0 L 4.59375 -34.90625 L 18.75 -34.90625 C 23.195312 -34.90625 26.648438 -33.863281 29.109375 -31.78125 C 31.578125 -29.707031 32.8125 -26.773438 32.8125 -22.984375 C 32.8125 -20.191406 32.1875 -17.832031 30.9375 -15.90625 C 29.6875 -13.976562 27.898438 -12.566406 25.578125 -11.671875 L 33.40625 0 Z M 10.46875 -15.8125 L 18.75 -15.8125 C 24.394531 -15.8125 27.21875 -18.148438 27.21875 -22.828125 C 27.21875 -27.347656 24.394531 -29.609375 18.75 -29.609375 L 10.46875 -29.609375 Z M 10.46875 -15.8125 "/></g></g></g><g fill="#141414" fill-opacity="1"><g transform="translate(975.634898, 1628.902049)"><g><path d="M 29.515625 -29.609375 L 10.46875 -29.609375 L 10.46875 -20.1875 L 27.515625 -20.1875 L 27.515625 -14.90625 L 10.46875 -14.90625 L 10.46875 -5.28125 L 30.109375 -5.28125 L 30.109375 0 L 4.59375 0 L 4.59375 -34.90625 L 29.515625 -34.90625 Z M 29.515625 -29.609375 "/></g></g></g><g fill="#141414" fill-opacity="1"><g transform="translate(1015.826303, 1628.902049)"><g><path d="M 27.125 -7.875 L 9.515625 -7.875 L 6.1875 0 L 0.046875 0 L 15.453125 -34.90625 L 21.484375 -34.90625 L 36.75 0 L 30.46875 0 Z M 24.875 -13.109375 L 18.296875 -28.625 L 11.71875 -13.109375 Z M 24.875 -13.109375 "/></g></g></g><g fill="#141414" fill-opacity="1"><g transform="translate(1060.106665, 1628.902049)"><g><path d="M 28.421875 -29.609375 L 17.34375 -29.609375 L 17.34375 0 L 11.46875 0 L 11.46875 -29.609375 L 0.453125 -29.609375 L 0.453125 -34.90625 L 28.421875 -34.90625 Z M 28.421875 -29.609375 "/></g></g></g><g fill="#141414" fill-opacity="1"><g transform="translate(1096.458412, 1628.902049)"><g><path d="M 29.515625 -29.609375 L 10.46875 -29.609375 L 10.46875 -20.1875 L 27.515625 -20.1875 L 27.515625 -14.90625 L 10.46875 -14.90625 L 10.46875 -5.28125 L 30.109375 -5.28125 L 30.109375 0 L 4.59375 0 L 4.59375 -34.90625 L 29.515625 -34.90625 Z M 29.515625 -29.609375 "/></g></g></g><g fill="#141414" fill-opacity="1"><g transform="translate(1136.649809, 1628.902049)"><g/></g></g><g fill="#141414" fill-opacity="1"><g transform="translate(1156.994815, 1628.902049)"><g><path d="M 29.765625 0.953125 L 24.328125 -4.390625 C 21.066406 -1.296875 17.5625 0.25 13.8125 0.25 C 10.6875 0.25 8.078125 -0.675781 5.984375 -2.53125 C 3.890625 -4.394531 2.84375 -6.722656 2.84375 -9.515625 C 2.84375 -11.773438 3.503906 -13.632812 4.828125 -15.09375 C 6.160156 -16.5625 8.007812 -17.929688 10.375 -19.203125 C 8.144531 -22.191406 7.03125 -24.878906 7.03125 -27.265625 C 7.03125 -29.597656 7.867188 -31.492188 9.546875 -32.953125 C 11.222656 -34.421875 13.410156 -35.15625 16.109375 -35.15625 C 18.703125 -35.15625 20.816406 -34.472656 22.453125 -33.109375 C 24.097656 -31.742188 24.921875 -29.984375 24.921875 -27.828125 C 24.921875 -26.691406 24.695312 -25.640625 24.25 -24.671875 C 23.800781 -23.710938 23.128906 -22.84375 22.234375 -22.0625 C 21.335938 -21.28125 20.472656 -20.628906 19.640625 -20.109375 C 18.804688 -19.597656 17.742188 -18.992188 16.453125 -18.296875 C 18.117188 -16.398438 20.5625 -13.875 23.78125 -10.71875 C 24.976562 -12.507812 26.023438 -14.601562 26.921875 -17 L 30.65625 -14.203125 C 29.5625 -11.578125 28.351562 -9.367188 27.03125 -7.578125 L 32.703125 -2.046875 Z M 11.5625 -27.328125 C 11.5625 -25.566406 12.425781 -23.503906 14.15625 -21.140625 C 16.1875 -22.203125 17.734375 -23.222656 18.796875 -24.203125 C 19.859375 -25.179688 20.390625 -26.367188 20.390625 -27.765625 C 20.390625 -28.929688 20.003906 -29.851562 19.234375 -30.53125 C 18.472656 -31.21875 17.445312 -31.5625 16.15625 -31.5625 C 14.789062 -31.5625 13.679688 -31.160156 12.828125 -30.359375 C 11.984375 -29.566406 11.5625 -28.554688 11.5625 -27.328125 Z M 14.015625 -4.09375 C 16.472656 -4.09375 18.863281 -5.222656 21.1875 -7.484375 C 17.226562 -11.429688 14.40625 -14.367188 12.71875 -16.296875 C 11.082031 -15.367188 9.816406 -14.414062 8.921875 -13.4375 C 8.023438 -12.457031 7.578125 -11.300781 7.578125 -9.96875 C 7.578125 -8.238281 8.191406 -6.828125 9.421875 -5.734375 C 10.648438 -4.640625 12.179688 -4.09375 14.015625 -4.09375 Z M 14.015625 -4.09375 "/></g></g></g><g fill="#141414" fill-opacity="1"><g transform="translate(1197.535281, 1628.902049)"><g/></g></g><g fill="#141414" fill-opacity="1"><g transform="translate(1217.880302, 1628.902049)"><g><path d="M 21.046875 -34.90625 L 21.046875 -10.765625 C 21.046875 -7.273438 20.078125 -4.566406 18.140625 -2.640625 C 16.210938 -0.710938 13.554688 0.25 10.171875 0.25 C 6.046875 0.25 2.625 -1.425781 -0.09375 -4.78125 L 2.6875 -9.28125 C 5.050781 -6.71875 7.53125 -5.4375 10.125 -5.4375 C 11.71875 -5.4375 12.945312 -5.910156 13.8125 -6.859375 C 14.675781 -7.804688 15.109375 -9.175781 15.109375 -10.96875 L 15.109375 -29.609375 L 3.046875 -29.609375 L 3.046875 -34.90625 Z M 21.046875 -34.90625 "/></g></g></g><g fill="#141414" fill-opacity="1"><g transform="translate(1250.242839, 1628.902049)"><g><path d="M 7.015625 -29.984375 C 10.578125 -33.359375 14.96875 -35.046875 20.1875 -35.046875 C 25.40625 -35.046875 29.789062 -33.359375 33.34375 -29.984375 C 36.90625 -26.609375 38.6875 -22.425781 38.6875 -17.4375 C 38.6875 -12.457031 36.90625 -8.265625 33.34375 -4.859375 C 29.789062 -1.453125 25.40625 0.25 20.1875 0.25 C 14.96875 0.25 10.578125 -1.453125 7.015625 -4.859375 C 3.460938 -8.265625 1.6875 -12.457031 1.6875 -17.4375 C 1.6875 -22.425781 3.460938 -26.609375 7.015625 -29.984375 Z M 20.25 -29.765625 C 16.789062 -29.765625 13.828125 -28.578125 11.359375 -26.203125 C 8.898438 -23.828125 7.671875 -20.910156 7.671875 -17.453125 C 7.671875 -13.992188 8.910156 -11.054688 11.390625 -8.640625 C 13.867188 -6.234375 16.816406 -5.03125 20.234375 -5.03125 C 23.660156 -5.03125 26.585938 -6.234375 29.015625 -8.640625 C 31.441406 -11.054688 32.65625 -13.992188 32.65625 -17.453125 C 32.65625 -20.910156 31.441406 -23.828125 29.015625 -26.203125 C 26.585938 -28.578125 23.664062 -29.765625 20.25 -29.765625 Z M 20.25 -29.765625 "/></g></g></g><g fill="#141414" fill-opacity="1"><g transform="translate(1298.113489, 1628.902049)"><g><path d="M 10.46875 0 L 4.59375 0 L 4.59375 -34.90625 L 10.46875 -34.90625 Z M 10.46875 0 "/></g></g></g><g fill="#141414" fill-opacity="1"><g transform="translate(1320.652568, 1628.902049)"><g><path d="M 34.859375 0 L 29.0625 0 L 10.46875 -25.03125 L 10.46875 0 L 4.59375 0 L 4.59375 -34.90625 L 10.375 -34.90625 L 29.0625 -9.828125 L 29.0625 -34.90625 L 34.859375 -34.90625 Z M 34.859375 0 "/></g></g></g></svg>