<svg xmlns="http://www.w3.org/2000/svg" xmlns:xlink="http://www.w3.org/1999/xlink" viewBox="0,0,256,256" width="64px" height="64px" fill-rule="nonzero"><g fill-opacity="0" fill="#ffffff" fill-rule="nonzero" stroke="none" stroke-width="1" stroke-linecap="butt" stroke-linejoin="miter" stroke-miterlimit="10" stroke-dasharray="" stroke-dashoffset="0" font-family="none" font-weight="none" font-size="none" text-anchor="none" style="mix-blend-mode: normal"><path d="M0,256v-256h256v256z" id="bgRectangle"></path></g><g fill="none" fill-rule="nonzero" stroke="none" stroke-width="1" stroke-linecap="butt" stroke-linejoin="miter" stroke-miterlimit="10" stroke-dasharray="" stroke-dashoffset="0" font-family="none" font-weight="none" font-size="none" text-anchor="none" style="mix-blend-mode: normal"><g transform="scale(2,2)"><path d="M79,9c24.9,0 45,20.1 45,45c0,12.3 -4.9,23.4 -12.9,31.5l12.9,13.5h-45c-24.9,0 -45,-20.1 -45,-45c0,-24.9 20.1,-45 45,-45z" fill="#444b54"></path><path d="M124,102h-45c-26.5,0 -48,-21.5 -48,-48c0,-26.5 21.5,-48 48,-48c26.5,0 48,21.5 48,48c0,11.7 -4.2,22.8 -11.8,31.5l10.9,11.4c0.8,0.9 1.1,2.1 0.6,3.3c-0.5,1.2 -1.5,1.8 -2.7,1.8zM79,12c-23.2,0 -42,18.8 -42,42c0,23.2 18.8,42 42,42h38l-8,-8.4c-1.1,-1.2 -1.1,-3 0,-4.2c7.8,-7.9 12,-18.4 12,-29.4c0,-23.2 -18.8,-42 -42,-42z" fill="#444b54"></path><path d="M54,29c-24.9,0 -45,20.1 -45,45c0,12.3 4.9,23.4 12.9,31.5l-12.9,13.5h45c24.9,0 45,-20.1 45,-45c0,-24.9 -20.1,-45 -45,-45z" fill="#ffffff"></path><path d="M54,122h-45c-1.2,0 -2.3,-0.7 -2.8,-1.8c-0.5,-1.1 -0.2,-2.4 0.6,-3.3l10.9,-11.4c-7.5,-8.7 -11.7,-19.8 -11.7,-31.5c0,-26.5 21.5,-48 48,-48c26.5,0 48,21.5 48,48c0,26.5 -21.5,48 -48,48zM16,116h38c23.2,0 42,-18.8 42,-42c0,-23.2 -18.8,-42 -42,-42c-23.2,0 -42,18.8 -42,42c0,11.1 4.3,21.5 12,29.4c1.1,1.2 1.1,3 0,4.2z" fill="#444b54"></path><path d="M54,46c-15.46397,0 -28,12.53603 -28,28c0,15.46397 12.53603,28 28,28c15.46397,0 28,-12.53603 28,-28c0,-15.46397 -12.53603,-28 -28,-28z" fill="#fcca3d"></path><path d="M69,77h-30c-1.7,0 -3,-1.3 -3,-3c0,-1.7 1.3,-3 3,-3h30c1.7,0 3,1.3 3,3c0,1.7 -1.3,3 -3,3zM59,67h-20c-1.7,0 -3,-1.3 -3,-3c0,-1.7 1.3,-3 3,-3h20c1.7,0 3,1.3 3,3c0,1.7 -1.3,3 -3,3zM69,87h-15c-1.7,0 -3,-1.3 -3,-3c0,-1.7 1.3,-3 3,-3h15c1.7,0 3,1.3 3,3c0,1.7 -1.3,3 -3,3zM39,81c-1.65685,0 -3,1.34315 -3,3c0,1.65685 1.34315,3 3,3c1.65685,0 3,-1.34315 3,-3c0,-1.65685 -1.34315,-3 -3,-3zM69,61c-1.65685,0 -3,1.34315 -3,3c0,1.65685 1.34315,3 3,3c1.65685,0 3,-1.34315 3,-3c0,-1.65685 -1.34315,-3 -3,-3z" fill="#ffffff"></path></g></g></svg>