<svg xmlns="http://www.w3.org/2000/svg" xmlns:xlink="http://www.w3.org/1999/xlink" viewBox="0,0,256,256" width="24px" height="24px" fill-rule="nonzero"><g fill-opacity="0.98824" fill="#f8f8f8" fill-rule="nonzero" stroke="none" stroke-width="1" stroke-linecap="butt" stroke-linejoin="miter" stroke-miterlimit="10" stroke-dasharray="" stroke-dashoffset="0" font-family="none" font-weight="none" font-size="none" text-anchor="none" style="mix-blend-mode: normal"><g transform="scale(10.66667,10.66667)"><path d="M6,7c-2.761,0 -5,2.239 -5,5c0,2.761 2.239,5 5,5h4v-2h-4c-1.657,0 -3,-1.343 -3,-3c0,-1.657 1.343,-3 3,-3h4v-2zM14,7v2h4c1.657,0 3,1.343 3,3c0,1.657 -1.343,3 -3,3h-4v2h4c2.761,0 5,-2.239 5,-5c0,-2.761 -2.239,-5 -5,-5zM7,11v2h10v-2z"></path></g></g></svg>