<svg xmlns="http://www.w3.org/2000/svg" xmlns:xlink="http://www.w3.org/1999/xlink" width="3000" zoomAndPan="magnify" viewBox="0 0 2250 2250.000011" height="3000" preserveAspectRatio="xMidYMid meet" version="1.0"><path fill="#ff0c0c" d="M 916.324219 1318.296875 C 915.054688 1327.101562 825.636719 1260.074219 825.636719 1260.074219 C 797.359375 1260.074219 769.183594 1260.074219 740.871094 1260.074219 C 638.351562 1259.792969 553.902344 1174.734375 553.726562 1071.183594 C 553.585938 1062.660156 553.585938 1054.277344 553.726562 1045.753906 C 553.902344 942.199219 638.351562 857.28125 740.871094 857 C 787.535156 856.859375 834.019531 856.859375 880.683594 857 C 983.199219 857.28125 1067.6875 942.199219 1067.828125 1045.753906 C 1067.828125 1054.277344 1067.828125 1062.660156 1067.828125 1071.183594 C 1067.6875 1167.230469 995.03125 1247.21875 902.625 1258.632812 C 902.625 1258.632812 918.367188 1304.984375 916.324219 1318.296875 " fill-opacity="1" fill-rule="nonzero"/><path fill="#008ed4" d="M 1194.398438 1592.25 C 1194.398438 1592.25 1179.816406 1658.011719 1181.964844 1671.957031 C 1183.339844 1681.222656 1280.46875 1609.261719 1280.46875 1609.261719 C 1404.890625 1609.261719 1505.753906 1508.386719 1505.753906 1383.984375 C 1505.753906 1259.546875 1404.890625 1158.671875 1280.46875 1158.671875 C 1156.046875 1158.671875 1055.183594 1259.546875 1055.183594 1383.984375 C 1055.183594 1477.921875 1112.695312 1558.4375 1194.398438 1592.25 " fill-opacity="1" fill-rule="nonzero"/><path fill="#ff7a00" d="M 1212.746094 1086.222656 C 1214.261719 1096.472656 1330.265625 1006.234375 1330.265625 1006.234375 L 1466.484375 1004.71875 C 1532.199219 1004.71875 1588.195312 956.851562 1598.199219 891.976562 L 1623.484375 729.671875 C 1636.054688 648.875 1573.511719 575.894531 1491.769531 575.894531 L 1217.605469 575.894531 C 1139.070312 575.894531 1077.652344 643.484375 1084.90625 721.679688 L 1099.980469 883.839844 C 1106.003906 948.964844 1158.40625 999.542969 1222.675781 1004.367188 C 1222.675781 1004.367188 1210.386719 1070.722656 1212.746094 1086.222656 " fill-opacity="1" fill-rule="nonzero"/><path fill="#141414" d="M 774.75 1043.957031 C 774.75 1057.585938 763.726562 1068.644531 750.097656 1068.644531 C 736.46875 1068.644531 725.445312 1057.585938 725.445312 1043.957031 C 725.445312 1030.359375 736.46875 1019.300781 750.097656 1019.300781 C 763.726562 1019.300781 774.75 1030.359375 774.75 1043.957031 " fill-opacity="1" fill-rule="nonzero"/><path fill="#141414" d="M 943.511719 1043.957031 C 943.511719 1057.585938 932.453125 1068.644531 918.859375 1068.644531 C 905.230469 1068.644531 894.171875 1057.585938 894.171875 1043.957031 C 894.171875 1030.359375 905.230469 1019.300781 918.859375 1019.300781 C 932.453125 1019.300781 943.511719 1030.359375 943.511719 1043.957031 " fill-opacity="1" fill-rule="nonzero"/><path fill="#ffffff" d="M 1264.65625 789.339844 C 1253.949219 789.339844 1246.027344 799.058594 1247.785156 809.625 C 1253.5625 844.179688 1275.328125 873.554688 1322.445312 873.554688 C 1369.566406 873.554688 1391.332031 844.179688 1397.109375 809.625 C 1398.867188 799.058594 1390.945312 789.339844 1380.238281 789.339844 L 1264.65625 789.339844 " fill-opacity="1" fill-rule="nonzero"/><path fill="#141414" d="M 838.386719 1123.273438 C 817.011719 1123.273438 801.515625 1110.066406 797.992188 1088.792969 C 796.761719 1081.433594 801.726562 1074.457031 809.085938 1073.226562 C 816.375 1071.992188 823.417969 1076.957031 824.652344 1084.320312 C 826.414062 1094.78125 832.578125 1096.226562 838.386719 1096.226562 C 844.199219 1096.226562 850.359375 1094.78125 852.121094 1084.320312 C 853.320312 1076.957031 860.328125 1071.992188 867.6875 1073.226562 C 875.046875 1074.457031 880.015625 1081.433594 878.78125 1088.792969 C 875.222656 1110.066406 859.730469 1123.273438 838.386719 1123.273438 " fill-opacity="1" fill-rule="nonzero"/><path fill="#ffffff" d="M 1205.140625 1393.460938 C 1199.46875 1393.460938 1195.277344 1398.601562 1196.230469 1404.203125 C 1199.292969 1422.449219 1210.773438 1437.980469 1235.671875 1437.980469 C 1260.570312 1437.980469 1272.085938 1422.449219 1275.152344 1404.203125 C 1276.066406 1398.601562 1271.875 1393.460938 1266.207031 1393.460938 L 1205.140625 1393.460938 " fill-opacity="1" fill-rule="nonzero"/><path fill="#141414" d="M 810.777344 870.417969 C 787.5 870.417969 764.253906 870.453125 740.941406 870.523438 C 645.292969 870.804688 567.390625 949.421875 567.25 1045.789062 C 567.109375 1054.347656 567.109375 1062.589844 567.25 1070.972656 C 567.390625 1167.621094 645.292969 1246.304688 740.941406 1246.550781 L 825.636719 1246.550781 C 828.597656 1246.550781 831.378906 1247.5 833.738281 1249.261719 C 854.585938 1264.867188 878.464844 1281.878906 895.578125 1293.148438 C 896.953125 1294.066406 898.75 1292.796875 898.328125 1291.210938 C 895.898438 1282.054688 892.832031 1271.875 889.804688 1263 C 888.5 1259.160156 888.992188 1254.898438 891.175781 1251.445312 C 893.324219 1247.996094 896.917969 1245.707031 900.96875 1245.210938 C 988.234375 1234.433594 1054.164062 1159.625 1054.304688 1071.148438 L 1054.304688 1045.753906 C 1054.164062 949.421875 976.261719 870.804688 880.613281 870.523438 C 857.332031 870.453125 834.054688 870.417969 810.777344 870.417969 Z M 915.546875 1332.773438 C 907.058594 1332.773438 888.464844 1323.933594 821.164062 1273.601562 L 740.871094 1273.601562 C 630.359375 1273.320312 540.378906 1182.519531 540.203125 1071.183594 C 540.0625 1062.730469 540.0625 1054.207031 540.203125 1045.539062 C 540.378906 934.523438 630.359375 843.792969 740.835938 843.472656 C 787.535156 843.332031 834.019531 843.332031 880.71875 843.472656 C 991.195312 843.792969 1081.175781 934.523438 1081.351562 1045.753906 L 1081.351562 1071.183594 C 1081.210938 1167.796875 1013.027344 1250.285156 920.300781 1269.445312 C 925.515625 1286.527344 931.394531 1309.246094 929.707031 1320.304688 C 929 1325.023438 925.339844 1329.675781 920.972656 1331.46875 C 919.386719 1332.140625 917.835938 1332.773438 915.546875 1332.773438 " fill-opacity="1" fill-rule="nonzero"/><path fill="#141414" d="M 1259.089844 1173.253906 C 1162.316406 1182.800781 1083.183594 1259.160156 1070.574219 1355.597656 C 1057.859375 1452.84375 1111.53125 1543.433594 1199.855469 1579.851562 C 1205.808594 1582.320312 1209.011719 1588.835938 1207.605469 1595.140625 C 1203.800781 1612.433594 1199.960938 1632.015625 1197.601562 1646.984375 C 1197.390625 1648.5 1199.046875 1649.59375 1200.347656 1648.746094 C 1219.15625 1636.734375 1247.714844 1616.695312 1272.472656 1598.378906 C 1274.832031 1596.617188 1277.652344 1595.738281 1280.609375 1595.738281 C 1397.285156 1595.667969 1492.230469 1500.710938 1492.230469 1383.984375 C 1492.230469 1260.144531 1385.414062 1160.820312 1259.089844 1173.253906 Z M 1182.601562 1686.433594 C 1180.347656 1686.433594 1178.832031 1685.800781 1177.316406 1685.164062 C 1172.914062 1683.335938 1169.289062 1678.648438 1168.582031 1673.929688 C 1166.644531 1661.285156 1174.21875 1622.15625 1178.867188 1600.140625 C 1095.15625 1560.832031 1041.660156 1477.183594 1041.660156 1383.984375 C 1041.660156 1252.292969 1148.792969 1145.148438 1280.46875 1145.148438 C 1412.144531 1145.148438 1519.277344 1252.292969 1519.277344 1383.984375 C 1519.277344 1514.164062 1414.574219 1620.324219 1284.976562 1622.753906 C 1211.335938 1677.136719 1191.367188 1686.433594 1182.601562 1686.433594 " fill-opacity="1" fill-rule="nonzero"/><path fill="#141414" d="M 1219.050781 589.421875 C 1206.722656 589.421875 1194.363281 590.898438 1182.601562 594.597656 C 1125.441406 612.597656 1093.359375 666.449219 1098.394531 720.410156 L 1113.433594 882.605469 C 1118.855469 940.96875 1165.203125 986.507812 1223.664062 990.878906 C 1227.5 991.160156 1231.023438 993.0625 1233.382812 996.089844 C 1235.742188 999.152344 1236.65625 1003.027344 1235.953125 1006.796875 C 1232.609375 1024.902344 1229.402344 1045.578125 1227.535156 1061.214844 C 1227.359375 1062.730469 1229.015625 1063.75 1230.285156 1062.90625 C 1252.648438 1048.007812 1289.800781 1020.570312 1321.988281 995.527344 C 1324.3125 993.695312 1327.132812 992.707031 1330.089844 992.707031 L 1466.34375 991.195312 C 1526.003906 991.195312 1575.800781 948.609375 1584.816406 889.933594 L 1610.101562 727.59375 C 1616.828125 684.449219 1599.640625 640.492188 1563.472656 613.195312 C 1542.132812 597.097656 1515.613281 589.421875 1488.882812 589.421875 Z M 1213.34375 1100.664062 C 1211.195312 1100.664062 1209.71875 1100.0625 1208.273438 1099.464844 C 1203.835938 1097.703125 1200.101562 1092.984375 1199.398438 1088.265625 C 1197.390625 1075.199219 1203.167969 1037.722656 1206.863281 1015.988281 C 1142.277344 1004.613281 1092.691406 951.640625 1086.492188 885.105469 L 1071.453125 722.910156 C 1067.617188 681.808594 1081.386719 640.738281 1109.136719 610.273438 C 1136.886719 579.804688 1176.4375 562.371094 1217.605469 562.371094 L 1491.769531 562.371094 C 1534.703125 562.371094 1575.34375 581.074219 1603.269531 613.6875 C 1631.195312 646.304688 1643.453125 689.34375 1636.832031 731.75 L 1611.546875 894.089844 C 1600.488281 966.011719 1539.457031 1018.246094 1466.484375 1018.246094 L 1334.949219 1019.6875 C 1244.898438 1089.636719 1222.675781 1100.664062 1213.34375 1100.664062 " fill-opacity="1" fill-rule="nonzero"/><path fill="#141414" d="M 1185.382812 1321.113281 C 1185.382812 1335.414062 1173.796875 1347.039062 1159.460938 1347.039062 C 1145.164062 1347.039062 1133.542969 1335.414062 1133.542969 1321.113281 C 1133.542969 1306.78125 1145.164062 1295.191406 1159.460938 1295.191406 C 1173.796875 1295.191406 1185.382812 1306.78125 1185.382812 1321.113281 " fill-opacity="1" fill-rule="nonzero"/><path fill="#141414" d="M 1340.9375 1321.113281 C 1340.9375 1335.414062 1329.351562 1347.039062 1315.015625 1347.039062 C 1300.71875 1347.039062 1289.097656 1335.414062 1289.097656 1321.113281 C 1289.097656 1306.78125 1300.71875 1295.191406 1315.015625 1295.191406 C 1329.351562 1295.191406 1340.9375 1306.78125 1340.9375 1321.113281 " fill-opacity="1" fill-rule="nonzero"/><path fill="#141414" d="M 1375.765625 815.859375 C 1371.644531 840.550781 1356.113281 861.542969 1322.445312 861.542969 C 1288.78125 861.542969 1273.25 840.550781 1269.128906 815.859375 C 1267.859375 808.324219 1273.53125 801.382812 1281.171875 801.382812 L 1363.722656 801.382812 C 1371.363281 801.382812 1377.035156 808.324219 1375.765625 815.859375 Z M 1393.65625 788.210938 C 1386.191406 779.371094 1375.273438 774.335938 1363.722656 774.335938 L 1281.171875 774.335938 C 1269.621094 774.335938 1258.703125 779.371094 1251.238281 788.210938 C 1243.738281 797.085938 1240.496094 808.816406 1242.433594 820.332031 C 1249.476562 862.421875 1280.152344 888.59375 1322.445312 888.59375 C 1364.742188 888.59375 1395.382812 862.421875 1402.460938 820.332031 C 1404.398438 808.816406 1401.15625 797.085938 1393.65625 788.210938 " fill-opacity="1" fill-rule="nonzero"/><path fill="#141414" d="M 1235.671875 1431.007812 C 1218.589844 1431.007812 1210.703125 1420.335938 1208.589844 1407.832031 C 1207.957031 1403.992188 1210.84375 1400.46875 1214.71875 1400.46875 L 1256.625 1400.46875 C 1260.535156 1400.46875 1263.386719 1403.992188 1262.753906 1407.832031 C 1260.640625 1420.335938 1252.753906 1431.007812 1235.671875 1431.007812 Z M 1256.625 1373.417969 L 1214.71875 1373.417969 C 1204.925781 1373.417969 1195.699219 1377.679688 1189.363281 1385.183594 C 1183.023438 1392.683594 1180.3125 1402.546875 1181.929688 1412.304688 C 1186.578125 1440.09375 1207.675781 1458.058594 1235.671875 1458.058594 C 1263.667969 1458.058594 1284.765625 1440.09375 1289.414062 1412.304688 C 1291.070312 1402.546875 1288.355469 1392.683594 1281.984375 1385.183594 C 1275.679688 1377.679688 1266.417969 1373.417969 1256.625 1373.417969 " fill-opacity="1" fill-rule="nonzero"/><path fill="#141414" d="M 1278.179688 728.792969 C 1274.585938 728.792969 1270.996094 727.382812 1268.355469 724.566406 C 1259.125 714.773438 1237.75 716.007812 1231.585938 720.761719 C 1225.671875 725.339844 1217.183594 724.214844 1212.640625 718.296875 C 1208.097656 712.34375 1209.1875 703.855469 1215.105469 699.3125 C 1230.671875 687.371094 1268.140625 684.90625 1288.003906 706.003906 C 1293.148438 711.429688 1292.898438 719.988281 1287.476562 725.128906 C 1284.835938 727.59375 1281.523438 728.792969 1278.179688 728.792969 " fill-opacity="1" fill-rule="nonzero"/><path fill="#141414" d="M 1377.457031 728.792969 C 1374.144531 728.792969 1370.800781 727.59375 1368.195312 725.128906 C 1362.734375 719.988281 1362.488281 711.429688 1367.632812 706.003906 C 1387.527344 684.90625 1425 687.371094 1440.53125 699.3125 C 1446.445312 703.855469 1447.574219 712.34375 1443.03125 718.296875 C 1438.488281 724.214844 1430 725.339844 1424.050781 720.761719 C 1417.886719 716.042969 1396.542969 714.773438 1387.316406 724.566406 C 1384.640625 727.382812 1381.046875 728.792969 1377.457031 728.792969 " fill-opacity="1" fill-rule="nonzero"/></svg>