<svg xmlns="http://www.w3.org/2000/svg" xmlns:xlink="http://www.w3.org/1999/xlink" viewBox="0 0 100 100" width="100px" height="100px"><path fill="#fff" d="M18.389 47.587H8.359c-.276 0-.5-.224-.5-.5s.224-.5.5-.5h10.03c.276 0 .5.224.5.5S18.665 47.587 18.389 47.587zM21.27 47.587h-1.445c-.276 0-.5-.224-.5-.5s.224-.5.5-.5h1.445c.276 0 .5.224.5.5S21.546 47.587 21.27 47.587zM25.325 47.587h-2.546c-.276 0-.5-.224-.5-.5s.224-.5.5-.5h2.546c.276 0 .5.224.5.5S25.601 47.587 25.325 47.587zM25.325 49.452h-9.616c-.276 0-.5-.224-.5-.5s.224-.5.5-.5h9.616c.276 0 .5.224.5.5S25.601 49.452 25.325 49.452zM13.977 49.452h-.58c-.276 0-.5-.224-.5-.5s.224-.5.5-.5h.58c.276 0 .5.224.5.5S14.253 49.452 13.977 49.452zM11.6 49.452h-1.456c-.276 0-.5-.224-.5-.5s.224-.5.5-.5H11.6c.276 0 .5.224.5.5S11.876 49.452 11.6 49.452zM20.736 45.722h-5.027c-.276 0-.5-.224-.5-.5s.224-.5.5-.5h5.027c.276 0 .5.224.5.5S21.012 45.722 20.736 45.722zM20.736 43.857h-1.257c-.276 0-.5-.224-.5-.5s.224-.5.5-.5h1.257c.276 0 .5.224.5.5S21.012 43.857 20.736 43.857zM17.467 51.316h-1.759c-.276 0-.5-.224-.5-.5s.224-.5.5-.5h1.759c.276 0 .5.224.5.5S17.744 51.316 17.467 51.316z"/><path fill="#c7ede6" d="M88.724,55.551c0.3-0.616,0.566-1.264,0.796-1.943c2.633-7.77-1.349-17.078-9.733-19.325C78.881,22.9,70.881,15.09,61.846,13.758c-10.341-1.525-19.814,5.044-22.966,15.485c-3.799-1.346-7.501-1.182-10.99,0.857c-1.583,0.732-3.031,1.812-4.33,3.233c-1.907,2.086-3.147,4.719-3.652,7.495c-0.748,0.118-1.483,0.236-2.176,0.484c-4.04,1.449-6.589,4.431-7.288,8.923c-0.435,2.797,0.443,5.587,0.933,6.714c1.935,4.455,6.422,6.98,10.981,6.312c0.227-0.033,0.557,0.069,0.752,0.233c0.241,7.12,3.698,13.417,8.884,17.014c8.321,5.772,19.027,3.994,25.781-3.921c2.894,2.96,6.338,4.398,10.384,3.876c4.023-0.519,7.147-2.739,9.426-6.349c1.053,0.283,2.051,0.691,3.083,0.804c4.042,0.442,7.324-1.165,9.732-4.8c0.922-1.391,1.794-3.194,1.793-6.354C92.194,60.508,90.901,57.54,88.724,55.551z"/><path fill="#fff" d="M74.415 25.266H64.384c-.276 0-.5-.224-.5-.5s.224-.5.5-.5h10.031c.276 0 .5.224.5.5S74.692 25.266 74.415 25.266zM77.296 25.266H75.85c-.276 0-.5-.224-.5-.5s.224-.5.5-.5h1.446c.276 0 .5.224.5.5S77.573 25.266 77.296 25.266zM81.351 25.266h-2.546c-.276 0-.5-.224-.5-.5s.224-.5.5-.5h2.546c.276 0 .5.224.5.5S81.627 25.266 81.351 25.266zM81.351 27.131h-9.616c-.276 0-.5-.224-.5-.5s.224-.5.5-.5h9.616c.276 0 .5.224.5.5S81.627 27.131 81.351 27.131zM70.002 27.131h-.579c-.276 0-.5-.224-.5-.5s.224-.5.5-.5h.579c.276 0 .5.224.5.5S70.279 27.131 70.002 27.131zM67.626 27.131h-1.457c-.276 0-.5-.224-.5-.5s.224-.5.5-.5h1.457c.276 0 .5.224.5.5S67.903 27.131 67.626 27.131zM76.762 23.401h-5.027c-.276 0-.5-.224-.5-.5s.224-.5.5-.5h5.027c.276 0 .5.224.5.5S77.038 23.401 76.762 23.401zM76.762 21.537h-1.258c-.276 0-.5-.224-.5-.5s.224-.5.5-.5h1.258c.276 0 .5.224.5.5S77.038 21.537 76.762 21.537zM73.494 28.996h-1.759c-.276 0-.5-.224-.5-.5s.224-.5.5-.5h1.759c.276 0 .5.224.5.5S73.77 28.996 73.494 28.996z"/><path fill="#fdfcef" d="M77.359,43.72c1.71,0,3.194,0,3.215,0c1.916,0,3.469-1.52,3.469-3.396c0-1.636-1.182-3.001-2.756-3.323c0.018-0.143,0.031-0.288,0.031-0.436c0-1.942-1.609-3.517-3.593-3.517c-1.172,0-2.209,0.551-2.865,1.401c-0.168-2.162-2.141-3.83-4.45-3.554c-1.688,0.202-3.084,1.479-3.395,3.116c-0.1,0.525-0.089,1.034,0.01,1.512c-0.453-0.477-1.097-0.777-1.814-0.777c-1.313,0-2.385,1.001-2.47,2.265c-0.596-0.129-1.245-0.121-1.928,0.13c-1.306,0.48-2.236,1.683-2.29,3.047c-0.077,1.937,1.504,3.532,3.467,3.532c0.149,0,0.673,0,0.794,0h7.204 M71.477,43.72h0.327"/><path fill="#472b29" d="M80.574,44.22h-3.215c-0.276,0-0.5-0.224-0.5-0.5s0.224-0.5,0.5-0.5h3.215c1.637,0,2.969-1.299,2.969-2.896c0-1.363-0.991-2.555-2.355-2.833c-0.257-0.053-0.43-0.295-0.396-0.555c0.016-0.122,0.026-0.245,0.026-0.372c0-1.663-1.388-3.017-3.093-3.017c-0.978,0-1.878,0.439-2.47,1.206c-0.126,0.164-0.342,0.23-0.538,0.174c-0.198-0.06-0.34-0.234-0.355-0.44c-0.071-0.913-0.507-1.741-1.228-2.333c-0.742-0.609-1.687-0.878-2.665-0.764c-1.475,0.177-2.693,1.293-2.963,2.713c-0.084,0.444-0.082,0.888,0.008,1.316c0.046,0.22-0.06,0.441-0.257,0.546c-0.199,0.103-0.441,0.063-0.595-0.1c-0.381-0.4-0.896-0.621-1.452-0.621c-1.037,0-1.903,0.79-1.971,1.799c-0.01,0.146-0.082,0.279-0.198,0.366c-0.117,0.087-0.264,0.12-0.406,0.089c-0.571-0.121-1.112-0.088-1.649,0.111c-1.13,0.414-1.918,1.458-1.963,2.597c-0.032,0.782,0.252,1.526,0.799,2.096c0.567,0.592,1.337,0.917,2.167,0.917h7.998c0.276,0,0.5,0.224,0.5,0.5s-0.224,0.5-0.5,0.5h-7.998c-1.089,0-2.142-0.446-2.889-1.224c-0.736-0.768-1.119-1.772-1.077-2.829c0.061-1.538,1.113-2.943,2.617-3.496c0.55-0.201,1.117-0.275,1.688-0.228c0.332-1.268,1.507-2.198,2.882-2.198c0.431,0,0.854,0.094,1.241,0.269c0.011-0.198,0.034-0.397,0.072-0.597c0.35-1.844,1.923-3.291,3.826-3.519c1.247-0.153,2.463,0.199,3.419,0.983c0.668,0.548,1.146,1.255,1.398,2.048c0.718-0.568,1.61-0.882,2.558-0.882c2.257,0,4.093,1.802,4.093,4.017c0,0.02,0,0.04-0.001,0.06c1.604,0.519,2.727,2.011,2.727,3.7C84.542,42.473,82.762,44.22,80.574,44.22z M71.803,44.22h-0.326c-0.276,0-0.5-0.224-0.5-0.5s0.224-0.5,0.5-0.5h0.326c0.276,0,0.5,0.224,0.5,0.5S72.079,44.22,71.803,44.22z"/><path fill="#472b29" d="M79.023 38.927c-.018 0-.036-.002-.055-.006-.135-.03-.22-.164-.189-.299.034-.152.087-.301.156-.44.555-1.122 2.085-1.537 3.409-.924.126.058.181.206.122.331-.058.126-.208.18-.331.122-1.081-.499-2.316-.188-2.752.692-.052.104-.091.215-.116.328C79.241 38.848 79.137 38.927 79.023 38.927zM74.338 44.22h-1.005c-.276 0-.5-.224-.5-.5s.224-.5.5-.5h1.005c.276 0 .5.224.5.5S74.615 44.22 74.338 44.22z"/><path fill="#e0ded7" d="M69.797,44.24c0,2.489,0.033,4.978-0.007,7.466c-0.079,4.969-1.781,9.349-4.879,13.212c-1.608,2.005-3.652,3.51-5.676,5.044c-2.519,1.908-5.029,3.827-7.543,5.742c-0.572,0.435-0.886,0.44-1.443,0.014c-3.313-2.53-6.653-5.024-9.93-7.599c-4.122-3.239-6.678-7.473-7.781-12.598c-0.428-1.99-0.416-4.002-0.414-6.018c0.005-4.507,0.005-9.014,0.007-13.52c0-0.893,0.164-1.05,1.051-1.071c5.289-0.127,10.227-1.421,14.611-4.48c0.892-0.622,1.695-1.374,2.52-2.087c0.458-0.396,0.863-0.425,1.28-0.019c2.836,2.766,6.24,4.517,10.021,5.578c1.944,0.546,3.926,0.881,5.951,0.927c0.453,0.01,0.904,0.058,1.357,0.079c0.646,0.03,0.88,0.267,0.882,0.956c0.005,2.792,0.002,5.583,0.002,8.375C69.802,44.24,69.799,44.24,69.797,44.24z"/><path fill="#472b29" d="M50.957,76.733c-0.367,0-0.732-0.153-1.134-0.459c-1.004-0.767-2.01-1.53-3.017-2.293c-2.277-1.728-4.633-3.514-6.921-5.312c-4.181-3.286-6.884-7.66-8.034-13.001c-0.435-2.024-0.432-4.069-0.429-6.048l0.007-13.638c0.002-1.277,0.455-1.74,1.735-1.771c5.565-0.133,10.219-1.558,14.227-4.354c0.664-0.464,1.273-1,1.919-1.567l0.544-0.476c0.747-0.647,1.558-0.644,2.227,0.009c2.592,2.528,5.772,4.297,9.721,5.405c2.006,0.563,3.896,0.858,5.779,0.901c0.277,0.007,0.555,0.026,0.833,0.046c0.18,0.013,0.359,0.025,0.54,0.034c1.024,0.047,1.546,0.603,1.549,1.652l0.002,8.377c0,0.037-0.003,0.073-0.009,0.109l0.006,2.217c0.008,1.717,0.015,3.434-0.013,5.151c-0.08,4.984-1.772,9.573-5.033,13.638c-1.586,1.978-3.581,3.486-5.51,4.946l-0.289,0.218c-1.656,1.255-3.309,2.515-4.961,3.775l-2.581,1.966C51.703,76.576,51.329,76.733,50.957,76.733z M32.847,35.636c-0.009,0.063-0.017,0.17-0.017,0.348l-0.007,13.64c-0.004,1.991-0.006,3.872,0.397,5.75c1.079,5.014,3.613,9.116,7.53,12.194c2.279,1.791,4.629,3.573,6.902,5.298c1.007,0.764,2.015,1.528,3.02,2.295c0.211,0.162,0.284,0.173,0.287,0.173c-0.001,0,0.077-0.011,0.307-0.187l2.581-1.967c1.653-1.261,3.307-2.521,4.964-3.776l0.29-0.22c1.946-1.473,3.785-2.863,5.263-4.705c3.061-3.816,4.65-8.117,4.725-12.784c0.027-1.708,0.021-3.416,0.014-5.124l-0.007-2.331c0-0.038,0.003-0.075,0.009-0.111l-0.002-8.263c0-0.133-0.012-0.207-0.021-0.244c-0.024,0.007-0.084-0.008-0.193-0.013c-0.192-0.009-0.383-0.022-0.574-0.036c-0.255-0.019-0.51-0.037-0.765-0.042c-2.003-0.047-4.006-0.358-6.127-0.954c-4.18-1.174-7.555-3.055-10.319-5.751c-0.067-0.065-0.111-0.089-0.124-0.093c0,0.003-0.07,0.021-0.209,0.141l-0.536,0.469c-0.646,0.567-1.312,1.154-2.041,1.664c-4.241,2.958-9.146,4.465-14.995,4.605C33.018,35.616,32.911,35.627,32.847,35.636z"/><path fill="#9fa2ce" d="M65.948,45.832c0,1.98,0.026,3.961-0.006,5.941c-0.063,3.953-1.417,7.438-3.882,10.512c-1.279,1.595-2.905,2.793-4.516,4.013c-2.004,1.518-4.001,3.045-6.001,4.568c-0.455,0.346-0.705,0.35-1.148,0.011c-2.636-2.013-5.294-3.997-7.901-6.046c-3.28-2.577-5.313-5.946-6.191-10.023c-0.341-1.583-0.331-3.184-0.329-4.788c0.004-3.586,0.004-7.172,0.006-10.757c0-0.71,0.13-0.835,0.837-0.852c4.208-0.101,8.137-1.13,11.625-3.564c0.709-0.495,1.348-1.093,2.005-1.661c0.364-0.315,0.687-0.338,1.018-0.015c2.256,2.2,4.965,3.594,7.973,4.438c1.547,0.434,3.124,0.701,4.735,0.738c0.36,0.008,0.719,0.046,1.08,0.063c0.514,0.024,0.7,0.213,0.701,0.76c0.004,2.221,0.002,4.442,0.002,6.663C65.953,45.832,65.95,45.832,65.948,45.832z"/><path fill="#472b29" d="M50.958,71.505c-0.253,0-0.504-0.11-0.791-0.329c-0.79-0.604-1.584-1.205-2.377-1.808c-1.851-1.403-3.701-2.807-5.527-4.241c-3.292-2.586-5.42-6.031-6.326-10.239c-0.342-1.588-0.34-3.202-0.338-4.763l0.006-10.861c0-0.908,0.292-1.206,1.202-1.228c4.466-0.107,8.201-1.252,11.419-3.497c0.542-0.377,1.057-0.831,1.554-1.269l0.421-0.368c0.705-0.607,1.26-0.261,1.525,0c2.084,2.033,4.64,3.454,7.812,4.345c1.611,0.453,3.13,0.689,4.643,0.725c0.217,0.005,0.434,0.021,0.649,0.035c0.146,0.011,0.292,0.021,0.438,0.027c0.722,0.033,1.059,0.394,1.06,1.135l0.001,6.664c0,0.022-0.002,0.044-0.006,0.065l0.005,1.776c0.006,1.368,0.012,2.737-0.011,4.104c-0.063,3.926-1.396,7.539-3.964,10.74c-1.247,1.555-2.824,2.748-4.35,3.901l-0.232,0.176c-1.283,0.973-2.563,1.948-3.844,2.924l-2.157,1.645C51.473,71.391,51.214,71.505,50.958,71.505z M50.982,33.314c-0.075,0-0.164,0.045-0.291,0.155l-0.415,0.363c-0.514,0.452-1.044,0.92-1.62,1.321c-3.343,2.332-7.212,3.521-11.831,3.632c-0.339,0.008-0.411,0.045-0.426,0.056c-0.009,0.012-0.044,0.086-0.044,0.422l-0.006,10.862c-0.002,1.521-0.004,3.095,0.32,4.604c0.869,4.033,2.906,7.332,6.057,9.808c1.823,1.433,3.67,2.833,5.518,4.234c0.794,0.602,1.588,1.204,2.38,1.809c0.297,0.227,0.36,0.24,0.692-0.012l2.157-1.644c1.281-0.977,2.562-1.953,3.846-2.926l0.232-0.176c1.489-1.127,3.028-2.291,4.217-3.772c2.461-3.068,3.739-6.528,3.8-10.283c0.022-1.363,0.017-2.727,0.011-4.09l-0.005-1.845c0-0.022,0.002-0.045,0.006-0.066l-0.001-6.596c-0.001-0.357-0.04-0.373-0.344-0.387c-0.152-0.008-0.305-0.019-0.457-0.029c-0.204-0.015-0.409-0.029-0.613-0.033c-1.577-0.036-3.156-0.282-4.829-0.752c-3.297-0.926-5.957-2.408-8.133-4.53C51.124,33.363,51.061,33.314,50.982,33.314z"/><path fill="#7d81d1" d="M65.948,45.835h0.006c0-2.221,0.002-4.442-0.002-6.663c-0.001-0.548-0.188-0.737-0.701-0.76c-0.36-0.017-0.719-0.055-1.079-0.063c-1.611-0.037-3.188-0.304-4.735-0.738c-3.008-0.844-5.717-2.238-7.973-4.438c-0.128-0.125-0.256-0.183-0.385-0.208v38.138c0.14-0.03,0.285-0.098,0.465-0.234c2-1.523,3.997-3.05,6.001-4.568c1.61-1.22,3.237-2.418,4.516-4.013c2.465-3.073,3.819-6.559,3.882-10.512C65.974,49.795,65.948,47.815,65.948,45.835z"/><path fill="#472b29" d="M51.079,71.477c-0.085,0-0.169-0.029-0.236-0.084c-0.088-0.071-0.139-0.178-0.139-0.291V32.965c0-0.111,0.05-0.218,0.136-0.289s0.202-0.104,0.309-0.079c0.219,0.041,0.407,0.142,0.577,0.308c2.086,2.034,4.641,3.455,7.812,4.345c1.611,0.453,3.13,0.689,4.643,0.725c0.217,0.005,0.434,0.021,0.649,0.035c0.146,0.011,0.292,0.021,0.438,0.027c0.722,0.033,1.059,0.394,1.06,1.135l0.001,6.664c0,0.022-0.002,0.044-0.006,0.065l0.005,1.772c0.006,1.369,0.011,2.739-0.011,4.108c-0.063,3.926-1.396,7.539-3.964,10.74c-1.245,1.553-2.82,2.744-4.343,3.897l-0.239,0.181c-1.373,1.04-2.742,2.084-4.111,3.128l-1.89,1.44c-0.216,0.163-0.41,0.259-0.614,0.302C51.131,71.474,51.105,71.477,51.079,71.477z M51.454,33.682v36.783l1.751-1.335c1.37-1.045,2.74-2.089,4.113-3.129l0.239-0.182c1.486-1.125,3.023-2.288,4.21-3.768c2.461-3.068,3.739-6.528,3.8-10.283c0.021-1.364,0.017-2.729,0.011-4.094l-0.005-1.841c0-0.022,0.002-0.045,0.006-0.066l-0.001-6.596c-0.001-0.357-0.04-0.373-0.344-0.387c-0.152-0.008-0.305-0.019-0.457-0.029c-0.204-0.015-0.409-0.029-0.613-0.033c-1.577-0.036-3.156-0.282-4.829-0.752C56.166,37.082,53.584,35.677,51.454,33.682z"/><defs><path id="P6x8fYOr8CzmD~gdsi6Cra" d="M65.555,46.112L65.555,46.112c0-2.14,0.003-4.403,0-6.543c-0.001-0.528-0.139-0.775-0.63-0.798c-0.344-0.016-0.687-0.053-1.032-0.061c-1.54-0.036-3.047-0.293-4.525-0.711c-2.875-0.814-5.352-1.943-7.508-4.064c-0.123-0.121-0.273-0.275-0.396-0.299v36.816c0.183-0.091,4.264-3.231,6.179-4.694c1.539-1.176,3.093-2.33,4.315-3.867c2.356-2.962,3.548-6.3,3.608-10.11C65.597,49.875,65.555,48.021,65.555,46.112z"/></defs><clipPath id="P6x8fYOr8CzmD~gdsi6Crb"><use overflow="visible" xlink:href="#P6x8fYOr8CzmD~gdsi6Cra"/></clipPath><g clip-path="url(#P6x8fYOr8CzmD~gdsi6Crb)"><path fill="#6870bc" d="M40.466 49.054L37.932 46.499 59.072 25.182 61.606 27.737zM44.194 56.679L41.66 54.124 62.8 32.807 65.334 35.362zM47.922 64.304L45.388 61.749 66.528 40.432 69.062 42.987zM51.649 71.929L49.115 69.374 70.255 48.057 72.789 50.612z"/></g><path fill="#e0ddd3" d="M77.646,57.049v-5.79c0-3.174-3.044-5.689-6.16-5.689c-3.122,0-6.391,2.572-6.391,5.747v5.733h2.215v-5.66c0-1.884,2.165-3.405,3.962-3.405c1.794,0,3.79,1.49,3.79,3.371v5.694H77.646z"/><path fill="#472b29" d="M77.646,57.423h-2.584c-0.207,0-0.375-0.168-0.375-0.375v-5.694c0-1.687-1.836-2.995-3.415-2.995c-1.614,0-3.587,1.397-3.587,3.029v5.66c0,0.207-0.168,0.375-0.375,0.375h-2.215c-0.207,0-0.375-0.168-0.375-0.375v-5.732c0-3.504,3.572-6.122,6.766-6.122c3.481,0,6.535,2.834,6.535,6.064v5.79C78.021,57.256,77.853,57.423,77.646,57.423z M75.437,56.673h1.834v-5.415c0-2.831-2.703-5.314-5.785-5.314c-2.782,0-6.016,2.347-6.016,5.372v5.357h1.465v-5.285c0-2.129,2.331-3.779,4.337-3.779c1.966,0,4.165,1.602,4.165,3.745V56.673z"/><path fill="#cbc9bc" d="M71.066 54.372A9.536 9.536 0 1 0 71.066 73.444A9.536 9.536 0 1 0 71.066 54.372Z"/><path fill="#472b29" d="M71.066,74.044c-5.589,0-10.135-4.547-10.135-10.136s4.546-10.135,10.135-10.135s10.136,4.546,10.136,10.135S76.655,74.044,71.066,74.044z M71.066,54.972c-4.927,0-8.936,4.009-8.936,8.936c0,4.928,4.009,8.937,8.936,8.937c4.928,0,8.937-4.009,8.937-8.937C80.002,58.981,75.994,54.972,71.066,54.972z"/><path fill="#f1bc19" d="M71.066 56.569A7.339 7.339 0 1 0 71.066 71.247A7.339 7.339 0 1 0 71.066 56.569Z"/><path fill="#472b29" d="M71.066,71.573c-4.226,0-7.664-3.438-7.664-7.665c0-4.226,3.438-7.664,7.664-7.664c4.227,0,7.665,3.438,7.665,7.664C78.731,68.134,75.292,71.573,71.066,71.573z M71.066,56.894c-3.867,0-7.014,3.146-7.014,7.014c0,3.868,3.146,7.015,7.014,7.015c3.868,0,7.015-3.146,7.015-7.015C78.08,60.041,74.934,56.894,71.066,56.894z"/><g opacity=".39"><defs><path id="P6x8fYOr8CzmD~gdsi6Crc" d="M71.081 56.924A6.999 6.999 0 1 0 71.081 70.922A6.999 6.999 0 1 0 71.081 56.924Z" opacity=".39"/></defs><clipPath id="P6x8fYOr8CzmD~gdsi6Crd"><use overflow="visible" xlink:href="#P6x8fYOr8CzmD~gdsi6Crc"/></clipPath><g clip-path="url(#P6x8fYOr8CzmD~gdsi6Crd)"><path fill="#ce942b" d="M59.942 68.216L58.61 66.863 78.807 46.572 80.14 47.925zM61.08 73.07L59.747 71.717 79.944 51.426 81.277 52.779zM62.218 77.924L60.885 76.571 81.082 56.281 82.415 57.634zM63.355 82.779L62.023 81.426 82.22 61.135 83.553 62.488z"/></g></g><path fill="#c48014" d="M72.662,66.788l-0.879-2.934c-0.061-0.167-0.168-0.309-0.017-0.404c0.456-0.288,0.723-0.846,0.567-1.454c-0.113-0.441-0.472-0.804-0.912-0.92c-0.877-0.231-1.666,0.426-1.666,1.268c0,0.463,0.241,0.867,0.602,1.1c0.156,0.1,0.103,0.216,0.04,0.389l-0.926,2.955H72.662z"/><path fill="#472b29" d="M72.662,67.063H69.47c-0.088,0-0.17-0.042-0.222-0.112c-0.052-0.071-0.067-0.162-0.041-0.245l0.927-2.955c0.015-0.041,0.027-0.075,0.036-0.102c-0.436-0.301-0.691-0.783-0.691-1.306c0-0.497,0.227-0.957,0.62-1.261c0.393-0.302,0.901-0.402,1.392-0.273c0.536,0.141,0.971,0.58,1.109,1.117c0.169,0.66-0.069,1.319-0.611,1.704c0.004,0.008,0.007,0.015,0.01,0.021l0.043,0.106l0.885,2.95c0.024,0.083,0.009,0.174-0.043,0.243C72.831,67.022,72.749,67.063,72.662,67.063z M69.845,66.512h2.448l-0.8-2.643c-0.054-0.123-0.195-0.451,0.126-0.653c0.389-0.246,0.564-0.698,0.447-1.153c-0.089-0.348-0.37-0.631-0.716-0.723c-0.322-0.084-0.658-0.021-0.916,0.178c-0.258,0.199-0.405,0.5-0.405,0.825c0,0.352,0.178,0.676,0.476,0.868c0.334,0.214,0.215,0.537,0.158,0.693L69.845,66.512z"/><path fill="#fdfcef" d="M34.98,69.431c0,0,10.616,0,10.681,0c2.452,0,4.439-1.987,4.439-4.439c0-2.139-1.513-3.924-3.527-4.344c0.023-0.187,0.039-0.377,0.039-0.57c0-2.539-2.058-4.598-4.597-4.598c-1.499,0-2.827,0.721-3.666,1.831c-0.215-2.826-2.739-5.007-5.693-4.646c-2.16,0.264-3.947,1.934-4.344,4.073c-0.127,0.686-0.114,1.352,0.013,1.977c-0.579-0.624-1.403-1.016-2.322-1.016c-1.68,0-3.052,1.308-3.16,2.961c-0.763-0.169-1.593-0.158-2.467,0.17c-1.671,0.627-2.861,2.2-2.93,3.984c-0.099,2.533,1.925,4.617,4.435,4.617c0.191,0,0.861,0,1.015,0h9.218"/><path fill="#472b29" d="M45.661,69.931H34.98c-0.276,0-0.5-0.224-0.5-0.5s0.224-0.5,0.5-0.5h10.681c2.172,0,3.939-1.768,3.939-3.939c0-1.855-1.315-3.477-3.129-3.855c-0.254-0.053-0.425-0.291-0.394-0.549c0.02-0.167,0.034-0.337,0.034-0.511c0-2.26-1.838-4.098-4.097-4.098c-1.292,0-2.482,0.596-3.267,1.634c-0.126,0.166-0.344,0.236-0.54,0.178c-0.2-0.059-0.342-0.234-0.358-0.441c-0.094-1.239-0.7-2.402-1.663-3.191c-0.973-0.797-2.205-1.148-3.471-0.997c-1.946,0.238-3.556,1.747-3.913,3.669c-0.111,0.599-0.107,1.2,0.012,1.786c0.044,0.22-0.062,0.442-0.262,0.544c-0.196,0.105-0.441,0.061-0.595-0.104c-0.513-0.552-1.207-0.856-1.955-0.856c-1.4,0-2.569,1.096-2.661,2.494c-0.01,0.145-0.082,0.279-0.198,0.366c-0.117,0.089-0.271,0.118-0.408,0.089c-0.755-0.166-1.47-0.115-2.184,0.15c-1.499,0.562-2.547,1.983-2.606,3.535c-0.043,1.084,0.347,2.109,1.097,2.889s1.758,1.209,2.839,1.209h10.233c0.276,0,0.5,0.224,0.5,0.5s-0.224,0.5-0.5,0.5H21.881c-1.355,0-2.62-0.538-3.56-1.516c-0.94-0.978-1.429-2.263-1.376-3.621c0.076-1.949,1.384-3.73,3.255-4.432c0.72-0.271,1.463-0.366,2.221-0.279c0.362-1.655,1.842-2.885,3.582-2.885c0.603,0,1.193,0.151,1.72,0.432c0.004-0.327,0.036-0.656,0.098-0.984c0.436-2.346,2.398-4.187,4.774-4.478c1.532-0.19,3.038,0.243,4.226,1.216c0.899,0.737,1.544,1.742,1.847,2.852c0.92-0.808,2.096-1.257,3.348-1.257c2.811,0,5.097,2.287,5.097,5.098c0,0.064-0.002,0.128-0.004,0.191c2.048,0.628,3.492,2.548,3.492,4.724C50.6,67.715,48.384,69.931,45.661,69.931z"/><path fill="#fdfcef" d="M32.408,59.652c-1.642-0.108-3.055,1.026-3.157,2.533c-0.013,0.187-0.004,0.371,0.023,0.55c-0.317-0.358-0.786-0.6-1.324-0.636c-0.985-0.065-1.836,0.586-1.959,1.471c-0.179-0.049-0.366-0.082-0.56-0.095c-1.437-0.094-2.674,0.898-2.762,2.216"/><path fill="#472b29" d="M22.669,65.942c-0.006,0-0.011,0-0.017-0.001c-0.138-0.009-0.242-0.128-0.232-0.266c0.099-1.454,1.435-2.558,3.027-2.448c0.117,0.007,0.235,0.022,0.353,0.044c0.26-0.879,1.159-1.501,2.167-1.42c0.377,0.024,0.729,0.138,1.034,0.329c0-0.004,0-0.008,0.001-0.012c0.109-1.642,1.629-2.898,3.422-2.766c0.138,0.009,0.242,0.128,0.232,0.266c-0.008,0.132-0.118,0.233-0.249,0.233c-0.005,0-0.011,0-0.017-0.001c-1.511-0.091-2.799,0.934-2.891,2.301c-0.011,0.167-0.004,0.334,0.021,0.496c0.017,0.11-0.041,0.218-0.142,0.265c-0.1,0.046-0.22,0.022-0.293-0.062c-0.288-0.325-0.697-0.521-1.152-0.552c-0.835-0.046-1.589,0.495-1.695,1.257c-0.011,0.07-0.051,0.134-0.11,0.174c-0.061,0.04-0.136,0.051-0.203,0.032c-0.17-0.046-0.342-0.075-0.511-0.087c-1.304-0.07-2.416,0.806-2.496,1.983C22.91,65.84,22.8,65.942,22.669,65.942z"/><path fill="#fdfcef" d="M47.458,61.168c-1.543-0.727-3.327-0.213-3.985,1.15c-0.082,0.169-0.142,0.344-0.182,0.521"/><path fill="#472b29" d="M43.29,63.089c-0.018,0-0.037-0.002-0.056-0.006c-0.134-0.031-0.219-0.165-0.188-0.3c0.045-0.198,0.113-0.391,0.202-0.574c0.715-1.482,2.649-2.053,4.316-1.268c0.125,0.06,0.179,0.208,0.12,0.333c-0.06,0.126-0.211,0.176-0.333,0.12c-1.418-0.669-3.056-0.206-3.653,1.032c-0.073,0.149-0.128,0.307-0.164,0.468C43.508,63.009,43.405,63.089,43.29,63.089z"/><path fill="#fff" d="M17.256 48.787H7.225c-.276 0-.5-.224-.5-.5s.224-.5.5-.5h10.031c.276 0 .5.224.5.5S17.533 48.787 17.256 48.787zM20.137 48.787h-1.446c-.276 0-.5-.224-.5-.5s.224-.5.5-.5h1.446c.276 0 .5.224.5.5S20.413 48.787 20.137 48.787zM24.192 48.787h-2.546c-.276 0-.5-.224-.5-.5s.224-.5.5-.5h2.546c.276 0 .5.224.5.5S24.468 48.787 24.192 48.787zM24.192 50.652h-9.616c-.276 0-.5-.224-.5-.5s.224-.5.5-.5h9.616c.276 0 .5.224.5.5S24.468 50.652 24.192 50.652zM12.843 50.652h-.579c-.276 0-.5-.224-.5-.5s.224-.5.5-.5h.579c.276 0 .5.224.5.5S13.12 50.652 12.843 50.652zM10.467 50.652H9.01c-.276 0-.5-.224-.5-.5s.224-.5.5-.5h1.457c.276 0 .5.224.5.5S10.744 50.652 10.467 50.652zM19.603 46.923h-5.027c-.276 0-.5-.224-.5-.5s.224-.5.5-.5h5.027c.276 0 .5.224.5.5S19.879 46.923 19.603 46.923zM19.603 45.057h-1.258c-.276 0-.5-.224-.5-.5s.224-.5.5-.5h1.258c.276 0 .5.224.5.5S19.879 45.057 19.603 45.057zM16.334 52.517h-1.759c-.276 0-.5-.224-.5-.5s.224-.5.5-.5h1.759c.276 0 .5.224.5.5S16.611 52.517 16.334 52.517z"/></svg>