<svg enable-background="new 0 0 277.401 316.115" height="317" viewBox="0 0 277.401 316.115" width="278" xmlns="http://www.w3.org/2000/svg" xmlns:xlink="http://www.w3.org/1999/xlink"><clipPath id="a"><path d="m220.8 136.7c-.5-10.7-12.7-28.9-22.9-32.1l-.3 3.8c-1.3-1.1-2.7-2-4.3-2.5-8.8-2.9-26.7.2-35.3 5.8-8.5 2.9-13.1 9.1-18.3 17.9-4.7 8-8.5 16.5-11.2 25.4 5.1 1.1 10.1 2.3 15.2 3.4-1.4 16.8-5.2 33.3-11.3 49.1 0 0 31.7-16 39.7-21.8s32.5-24.3 32.5-28.1c0-2.6 1.2-11.5 1.2-14.3 5.6-2.6 12-5.3 15-6.6z"/></clipPath><circle cx="134" cy="134" fill="#3a2e40" r="134"/><path d="m262.9 149.6c-18.4-11.7-42.3-3.6-64.1-3.1-8.9.2-19.4-2.2-22.6-10.4-4-10.3 6.3-19.9 13.9-27.9 9.4-9.9 23.3-23.9 19.1-36.9-8.4-26.1-36.4-40.5-62.6-32.1-6.5 2.1-12.4 5.5-17.5 10-16.1 14.1-22 37.5-38.9 50.7-14.2 11.1-33.3 12.7-50.8 17-13.7 3.4-31.2 10.2-38.7 21.4.7 69.7 59.1 127.1 129.4 129.4 69 2.3 129.2-49.2 136.5-116.7-.5-.6-3.1-1-3.7-1.4z" fill="#f5c45c"/><path d="m213.5 147.5c11.6-6 28-13.7 39.6-19.8 4.7-2.4 11.4-6 13.9-10.6l.9 9.7s2.6-.7 4.8-1.2 5.3 1.1 4.6 3.2c-.5 1-1.3 1.8-2.4 2.2-16.6 8.6-32.3 19.1-46.6 31.2" fill="#e78789"/><path d="m215.7 186.2c.1 1.2-.7 2.2-1.9 2.3-.2 0-.4 0-.6 0-6.1.3-12.2.2-18.3-.3 1.2-16.9 3.2-33.8 6.1-50.5.2-1.2 15.6-4 17.1-3.5 3.8 1.4 1.6 10.7 1.4 14.5-.7 12.5-2 25-3.8 37.5z" fill="#e68789"/><path d="m220.8 136.7c-.5-10.7-12.7-28.9-22.9-32.1l-.3 3.8c-1.3-1.1-2.7-2-4.3-2.5-8.8-2.9-26.7.2-35.3 5.8-8.5 2.9-13.1 9.1-18.3 17.9-4.7 8-8.5 16.5-11.2 25.4 5.1 1.1 10.1 2.3 15.2 3.4-1.4 16.8-5.2 33.3-11.3 49.1 0 0 31.7-16 39.7-21.8s32.5-24.3 32.5-28.1c0-2.6 1.2-11.5 1.2-14.3 5.6-2.6 12-5.3 15-6.6z" fill="#e8aace"/><path clip-path="url(#a)" d="m184.8 176c.4-.3.7-.6 1.1-.9.3-3.2.4-6.4.5-9.5 0-.5 0-1.1.1-1.6 3.2.6 6.3 1.6 9.2 3.1.4-.4.9-.7 1.3-1.1-3.4-3.9-5.9-8.5-7.2-13.5 5.8-1.9 11-6.2 14.7-12.1 1.4.4 2.8.9 4.2 1.6l1.2-.5c-1.5-.8-3.2-1.5-4.8-2 1.3-2.3 2.5-4.7 3.3-7.2 2 2.3 3.4 5.2 3.8 8.2.3-.1.6-.3.9-.4-.5-3.3-2-6.5-4.4-8.9.2-.7.4-1.4.6-2.2 0-.1 0-.2.1-.3 1.1.1 2.2.4 3.3.8 3.4 1.4 6.2 4 7.9 7.3.1 0 .2-.1.3-.1 0-.5-.1-1-.1-1.5-1.8-3-4.5-5.3-7.8-6.6-1.1-.4-2.3-.7-3.4-.8.9-4.3 1.3-8.7 1.2-13.1-.5-.6-1-1.2-1.6-1.8-7.9 3.1-14.3 9-18.2 16.6-2.7.8-5.5 1.2-8.3 1.3-.9 0-1.9-.1-2.8-.3.8-6 .6-12-.6-17.9 1.8.1 3.6.4 5.3.9l.3-1c-1.9-.5-3.8-.9-5.8-.9-.5-2.1-1.1-4.2-1.9-6.2-.3 0-.7.1-1 .1.8 2 1.4 4 1.9 6.1-4.2 0-8.4 1-12.1 3 0-2.4.4-4.8 1.3-7-.4.1-.8.2-1.2.4-.8 2.3-1.2 4.7-1.1 7.1-2.2 1.3-4.2 3-6 4.9-3.4-2-8.2-2.4-11.4 0v-1.5c-.3.4-.7.7-1 1.1v1.2c-3.2 3.3-2.7 8.5-.9 11.9.2.5.5.9.8 1.3l-.1 10.4c-.1 6.1.6 13.5 6 16.4 5.8 3.2 13-1 17.5-6.6.7-.9 1.4-1.8 2-2.7 2.1.8 4.3 1.3 6.5 1.6-1.3 3-1.9 6.1-2 9.4-3.2.4-6.4 1.3-9.4 2.6-7.5 3.5-13.4 9.6-16.7 17.2-2.4 3.1-3.4 7.1-2.7 11-.1 1.9.1 3.9.5 5.8.3-.2.6-.3.9-.5-.2-.7-.3-1.5-.4-2.2.3.6.7 1.2 1.1 1.8.3-.2.6-.3.9-.5-.5-.7-1-1.5-1.4-2.3-.3-.7-.6-1.4-.7-2.2 0-1 .1-1.9.3-2.9.4-2.6 1.2-5.2 2.2-7.6 1.6-2.1 3.9-3.5 6.4-3.9 4.6-.7 9.6 2.1 12 6.6.2.4.4.8.6 1.3.3-.2.6-.4.8-.6-.2-.4-.3-.8-.5-1.2-2.3-4.3-6.7-7.1-11.6-7.2-2.3 0-4.6.8-6.4 2.2 3.4-6.1 8.6-11 14.9-14 2.9-1.3 5.9-2.1 9-2.5.1 2 .5 4 1.1 5.9 1 3.1 2.9 5.8 5.3 8 .3-.2.5-.4.8-.6-2.4-2.1-4.1-4.7-5.1-7.7-.6-1.8-1-3.7-1.1-5.7 2.7-.3 5.5-.2 8.2.2 0 .6 0 1.2-.1 1.8-0 3.7-.1 7.2-.5 10.7zm-38.5-43.8c-1.4-2.9-1.8-6.9.1-9.7zm40.1 20c-2.2.4-4.5.5-6.7.2.2-.4.4-.8.6-1.2 1.8-3.2 4.2-6 7.2-8.1 0 1 0 2 .1 3-.5 1.8-.9 3.6-1.2 5.4.1.3.1.5 0 .7zm1.6-3.2c.1.9.3 1.8.5 2.7h-.1c-.3.1-.6.2-1 .2 0-.1 0-.2 0-.3.3-.8.4-1.7.6-2.6zm7.5 16.9c-2.8-1.4-5.9-2.4-9-2.9.1-3.3.3-6.6.8-9.9.5-.1.9-.2 1.4-.3h.1c1.3 4.7 3.6 9.2 6.7 13.1zm-6-14.4c-.4-1.7-.7-3.4-.8-5.2.5-1.6 1-3.2 1.7-4.8 1.3-.7 2.8-1.1 4.2-1.5 2.9-.6 5.9-.6 8.7 0-3.5 5.6-8.3 9.7-13.8 11.5zm-.9-8.1c0-.3 0-.6 0-.8.1-.1.3-.2.4-.2-.1.2-.3.6-.4 1zm15.4-4.2c-3.1-.8-6.4-.8-9.5-.1-1.1.3-2.3.6-3.3 1.1 1.1-2.1 2.5-4.1 4.1-5.9 2.2-2.3 5.1-4.1 8.2-5 .6.2 1.1.4 1.7.6.9.4 1.7.9 2.4 1.5-1 2.8-2.2 5.4-3.6 7.8zm4.2-10.4c-.1.6-.3 1.1-.4 1.7-.7-.6-1.4-1-2.3-1.4-.1 0-.2-.1-.3-.1 1-.2 2-.2 3-.2zm1.5-15.1c.2 4.7-.2 9.4-1.2 14-1.7-.1-3.4.1-5.1.6-3.6-.9-7.5-.1-11.2.8 3.8-7 10-12.5 17.5-15.4zm-18.1 16.6c3.4-.8 6.7-1.7 9.8-1.3-2.6 1-5 2.6-6.9 4.7-2 2.1-3.6 4.5-4.8 7.2-.3.2-.6.3-1 .5.2-2.9.8-5.8 1.8-8.5.3-1 .7-1.8 1.1-2.6zm-13.5-17.7c1.3 5.8 1.5 11.8.7 17.7-5.9-1.5-10.6-6-12.4-11.8-.3-.9-.4-1.9-.5-2.8 3.7-2.1 7.9-3.2 12.2-3.1zm-19.1 8.7.1.1c3.6 2.6 5.8 6.8 7.5 11 1.3 2.9 2.6 6.4 2.3 9.8-.2 2.3-1.1 4.4-2.8 6-4-2.1-7.9-4.6-11.5-7.3-.4-.3-.7-.6-1.1-.8-.1-.3-.1-.7-.1-1-.5-6.5 1.5-12.8 5.6-17.8zm6.3 27.6c-.5.4-1.1.6-1.8.8-1.8.4-3.7 0-5.1-1.1-2.2-1.8-3.8-4.2-4.5-7 .1 0 .1.1.2.1 3.6 2.7 7.3 5.1 11.2 7.2zm-17.9-27.6c2.9-2.7 7.5-2.4 10.8-.5-4.2 5.2-6.2 11.7-5.7 18.3-2-1.5-3.7-3.3-5.2-5.3zm21.5 32.5c-4.2 5.2-10.9 9.2-16.2 6.3-5-2.7-5.6-9.7-5.5-15.5l.1-9c1.6 1.9 3.4 3.6 5.4 5.1.6 3.5 2.5 6.6 5.2 8.8 2.5 1.9 6 1.9 8.5 0 1.4.7 2.9 1.4 4.4 1.9-.6.7-1.2 1.6-1.9 2.4zm2.4-3.4c-1.4-.5-2.8-1.1-4.2-1.8 1.6-1.7 2.6-4 2.8-6.4.3-3.7-1.1-7.3-2.4-10.3-1.8-4.3-4-8.6-7.9-11.4 1.5-1.7 3.3-3.2 5.2-4.3.1.9.3 1.7.5 2.6 1.9 6.2 6.9 11 13.3 12.5-1 6.8-3.5 13.4-7.3 19.1zm1 .4c3.8-5.8 6.3-12.4 7.3-19.3 1 .2 1.9.3 2.9.3 2.6-.1 5.2-.5 7.8-1.2-.3.6-.5 1.2-.8 1.9-1.1 3.1-1.8 6.3-1.9 9.5-3.4 2.2-6.2 5.2-8.1 8.8-.3.5-.6 1.1-.8 1.6-2.2-.4-4.3-.9-6.4-1.6zm8.2 11.6c-1.1 0-2.1 0-3.2.1 0-3.1.7-6.3 2-9.1 2.3.3 4.7.2 7-.2-.4 3.2-.6 6.4-.7 9.5-1.7-.2-3.4-.3-5.1-.3z" fill="#b8fcc6"/><path d="m187.3 118.8c1.8 1.1 4 1.9 6 1.5 2.3-.7 4.1-2.4 4.9-4.7.7-2.3 1-4.6.9-7 2.1 2.3 2.4 5.7 2.4 8.9.1 2.2-.2 4.3-.8 6.4-1.6 4.7-6.5 7.9-11.4 8.1-5 .1-9.9-2.1-13.2-5.9-1.5-1.5-2.5-3.5-3-5.6-.3-1.7-.1-3.5.3-5.1.7-2.8 2.1-6.6 4.4-8.5 1.5 1.5 1.9 4.5 3.3 6.3 1.7 2.3 3.8 4.2 6.2 5.6z" fill="#e8aace"/><path d="m246 263.8c4.1 10.4 1.2 22.8 6.1 32.9 2.7 5.6 7.4 9.8 11.1 14.7.5.6.8 1.3.7 2.1-.2 1-1.4 1.3-2.3 1.5-3 .8-6.2 1.2-9.3 1.1-3.1-.3-6.3-1.7-7.9-4.4-1.3-2.1-1.5-4.8-3-6.8-2.4-3.2-7.7-4-9.1-7.7-1.2-3.1.9-6.5 1.8-9.8.5-2.6.6-5.3.3-8l-1.4-19.3" fill="#e68789"/><path d="m162.9 214.9c16.2-4.3 39.3-16.2 55.5-20.5 1-.4 2.1-.4 3.1-.2 1.5.5 2.2 2.3 2.7 3.9 4.3 14.5 1.8 76.2 1.8 76.2 6 0 23.1 7.5 28.2 3.3-1.9-26.4 5.3-97.4-7.7-117.4-1.6-2.8-4-5.2-6.8-6.9-3.3-1.8-7.3-1.9-11.1-1.9-21.7.1-43 20.2-63.1 28.2" fill="#7a9cdb"/><path d="m201.5 66.2c5.6 2.3 12.1 10 13.7 15.8s.5 12-1.2 17.8c-3.4-.2-6.9-.3-10.1.8-6.9 2.3-2.5 14.4-6.7 17.9-10.7 9.1-19.9-9.7-19.7-9.9 1-1 2.5-1.8 2.9-5.7.6-5.9-3.4-9.7-4.6-14.9-.4-1.6.1-3.6 1.6-4.3 2.6-1.2 4.7.6 7.1 3.9 2.2-3.9 2.3-10.5 4.2-14.6 2.1-4.6 7.6-7.2 12.6-6.4" fill="#e68789"/><path d="m202.9 62.4c4-.9 8.4-1.7 11.9.4 1.7 1.1 3.1 2.7 3.9 4.6 2.8 5.5 3 12 .3 17.7-4.1-6.5-13.8-17.4-24.6-18.8" fill="#f5c45c"/><ellipse cx="205.7" cy="85" fill="none" rx="5" ry="5" stroke="#3a2e40" stroke-miterlimit="10"/><path d="m219 82.1c-1.1-1.8-2.8-1.8-3.9 0-1.1 2-1.1 4.5 0 6.5 1.1 1.8 2.8 1.8 3.9 0 1.1-2 1.1-4.4 0-6.5z" fill="none" stroke="#3a2e40" stroke-miterlimit="10"/><path d="m197.5 82.4c-3.6 3.5-8.1 5.8-12.6 8.1-1.9-4-2.9-8.4-2.8-12.8-.1-2.7.7-5.4 2.3-7.6 1.9-2.1 4.4-3.4 7.2-3.8 3.3-.6 9.6-.1 11.2 3.6 1.7 3.9-2.8 10-5.3 12.5z" fill="#f5c45c"/><path d="m210.7 85.9c1.3.1 2.7 0 4-.3.6-.1.4-1.1-.3-1-1.2.3-2.5.4-3.7.3-.7 0-.7 1 0 1z" fill="#3a2e40"/><path d="m200.7 84.6c-3.6-1.4-8.1-4-12-3.3-.6.1-.4 1.1.3 1 2.2-.4 4.2.6 6.2 1.3 1.8.6 3.5 1.3 5.3 2 .6.2.8-.8.2-1z" fill="#3a2e40"/><path d="m139.4 186.3c-2.6 14.6-10.8 54.7-15.9 80.9 2.2.2 4.5.3 6.7.4 12.3.4 24.6-.9 36.6-3.9 2-11.2 3.7-22.8 4.5-27.1 4.7-25.4 20-42.5 14.6-64z" fill="#7a9cdb"/><path d="m177.4 108.6c1.4 5.6 5.4 10.1 10.8 12 2.3.8 5.2 1.3 7.6.4 2.7-1 3.7-3.7 4.2-6.4.1-.6-.8-.9-1-.3-.6 2.9-1.7 5.5-4.9 6-2.6.3-5.2-.3-7.5-1.5-4.2-2.1-7.2-6-8.3-10.5-.1-.5-1.1-.3-.9.3z" fill="#3a2e40"/><path d="m204.6 128.1.3 20.5c0 .3.2.5.5.5s.5-.2.5-.5l-.3-20.5c0-.3-.2-.5-.5-.5-.2 0-.4.2-.5.5z" fill="#3a2e40"/><path d="m204.9 143.1 12.6-5c-3.8 3.8-8.1 7.2-12.6 10.2" fill="#3a2e40"/><path d="m180.7 56.3c.3.9 1.8.5 1.4-.4-2.4-6.6-5.6-13.3-10.4-18.2-.9-.2-1.8-.3-2.6-.5 5.6 4.9 9 12.1 11.6 19.1z" fill="#e5a83c"/><path d="m174.9 63c.6.8 1.6-.3 1.1-1.1-8.9-11.5-22.3-18.6-36.8-19.6-.9.4-1.7.9-2.5 1.4 14.9.3 29 7.4 38.2 19.3z" fill="#e5a83c"/><path d="m136.1 69.3c-13.8 8.6-15.6 23.9-22.1 37.4-7.5 15.5-23 20.2-37.9 25.9-13.3 5.1-24.9 12.6-33.6 24.1-10.6 13.9-16.1 32.1-11.6 49.3.1.4.5.6.9.5s.6-.5.5-.9c-4.2-16.1.6-33 10.1-46.3 8.9-12.5 21.3-20.4 35.5-25.7 10.9-4.1 22.8-7.8 31-16.5 9.3-10 10.3-24.3 17.3-35.6 10.2-16.5 32.1-20.4 47.8-9.5.8.6 1.5-.7.8-1.3-11.6-8.2-26.8-8.8-38.7-1.4z" fill="#e5a83c"/><path d="m173.8 83.4c-31.2-5.4-32 32.9-45.2 51-8.7 11.9-22.3 18.5-30.6 30.8-7 10.4-10.9 22.7-12.3 35.2-1.9 17.5 1.2 35.2 5.5 52.1.1.4.5.6.9.5s.6-.5.5-.9c-8.4-33-11.2-73.7 17.4-98.1 6.3-5.4 12.9-10 18.1-16.6 4.2-5.4 7.6-11.4 10-17.8 3-7.9 5-16.2 9.6-23.3 5.9-9.1 14.8-13.2 25.5-11.3 1.1-0 1.5-1.4.6-1.6z" fill="#e5a83c"/><path d="m137.9 259.9c-.4-6.9-.2-13.8.6-20.6l11.6-79-20.1-5.3c-4 34-7.3 69.5-10.7 104.7-.1 1.3-.2 2.6-.2 3.9-.6 4.7-.8 9.5-.8 14.2 0 .3.3.5.6.5.2 0 .4-.2.5-.4l2.5-7.1c-.4 4.7-.5 9.3-.3 14 0 .4.4.7.8.7.2 0 .4-.1.5-.3.3-.4.5-.8.6-1.3 1-4.1 2-8.2 2.9-12.4.1 5 .4 10.1 1 15.1 0 .5.2 1.1.5 1.5.3.5 1 .6 1.4.2.2-.2.3-.6.4-.9.9-5.5 1.5-11.1 1.6-16.7-.3 4.9.2 9.8 1.3 14.6.1.6.7.9 1.3.7.3-.1.5-.2.6-.5.7-1.5 1.1-3.1 1-4.7.1-3.2.2-6.4.3-9.6 0-1 .2-2.1 1.1-2.5 1.3-.4 2.6-.7 3.9-.9-.2-.6-.5-1.2-.8-1.8-.8-1.8-1.6-4-2.1-6.1z" fill="#e68789"/><g fill="none" stroke="#3a2e40" stroke-miterlimit="10"><path d="m128.5 153.5c7.2 2.5 14.5 4.5 22 6 1.1-3 1.9-7 3-10"/><path d="m179.5 209.5c-6 21-9 31-12 54"/><path d="m178.9 209.2c15.4-8.7 31.9-15.1 49.1-19.1"/><path d="m225 264.4c9.3.1 18.6.4 27.9 1"/><path d="m219.5 192.3c3.9-.2 7.8.7 11.2 2.7"/></g><path d="m192.9 58.3c-11 2.1-18.8 12.1-18.2 23.3.1 1 1.6 1 1.5 0-.6-10.5 6.7-19.9 17.1-21.9.9-.1.5-1.6-.4-1.4z" fill="#e5a83c"/></svg>