<svg xmlns="http://www.w3.org/2000/svg" xmlns:xlink="http://www.w3.org/1999/xlink" viewBox="0,0,256,256" width="64px" height="64px" fill-rule="nonzero"><g fill-opacity="0.34902" fill="#000000" fill-rule="nonzero" stroke="none" stroke-width="1" stroke-linecap="butt" stroke-linejoin="miter" stroke-miterlimit="10" stroke-dasharray="" stroke-dashoffset="0" font-family="none" font-weight="none" font-size="none" text-anchor="none" style="mix-blend-mode: normal"><g transform="scale(5.33333,5.33333)"><path d="M23.00195,0.02148c-13.04199,0.55213 -23.25116,11.42682 -22.97968,24.47766c0.27148,13.05084 10.92406,23.49156 23.97772,23.50085c13.24844,-0.01543 23.98457,-10.75156 24,-24c-0.0002,-6.53822 -2.66787,-12.79336 -7.38631,-17.31936c-4.71844,-4.526 -11.07917,-6.93105 -17.61174,-6.65916zM24,2c12.14455,0.01378 21.98622,9.85545 22,22c0,12.15026 -9.84974,22 -22,22c-12.15026,0 -22,-9.84974 -22,-22c0,-12.15026 9.84974,-22 22,-22zM15,15c-2.757,0 -5,2.691 -5,6h2c0,-2.206 1.346,-4 3,-4c1.654,0 3,1.794 3,4h2c0,-3.309 -2.243,-6 -5,-6zM33,15c-2.757,0 -5,2.691 -5,6h2c0,-2.206 1.346,-4 3,-4c1.654,0 3,1.794 3,4h2c0,-3.309 -2.243,-6 -5,-6zM11,28c0,6.065 5.832,11 13,11c7.168,0 13,-4.935 13,-11h-2c0,4.962 -4.935,9 -11,9c-6.065,0 -11,-4.038 -11,-9z"></path></g></g></svg>