<svg xmlns="http://www.w3.org/2000/svg"  viewBox="0 0 100 100" width="50px" height="50px"><path fill="#fff" d="M20.4 55.6A.9.9 0 1 0 20.4 57.4.9.9 0 1 0 20.4 55.6zM79.4 30.900000000000002A.7.7 0 1 0 79.4 32.300000000000004.7.7 0 1 0 79.4 30.900000000000002z"/><path fill="#f1bc19" d="M76.8 11.7A.9.9 0 1 0 76.8 13.5.9.9 0 1 0 76.8 11.7zM20.9 63.300000000000004A.9.9 0 1 0 20.9 65.10000000000001.9.9 0 1 0 20.9 63.300000000000004z"/><path fill="#f9dbd2" d="M49.7 12.299999999999997A37.5 37.5 0 1 0 49.7 87.3A37.5 37.5 0 1 0 49.7 12.299999999999997Z"/><path fill="#f1bc19" d="M82.3 10.7A4 4 0 1 0 82.3 18.7A4 4 0 1 0 82.3 10.7Z"/><path fill="#ee3e54" d="M86.3 21.900000000000002A1.9 1.9 0 1 0 86.3 25.7A1.9 1.9 0 1 0 86.3 21.900000000000002Z"/><path fill="#fbcd59" d="M77.3 74.3A1.9 1.9 0 1 0 77.3 78.10000000000001 1.9 1.9 0 1 0 77.3 74.3zM14.1 59.3A4 4 0 1 0 14.1 67.3 4 4 0 1 0 14.1 59.3z"/><path fill="#ee3e54" d="M24.4 85.5A1.9 1.9 0 1 0 24.4 89.30000000000001A1.9 1.9 0 1 0 24.4 85.5Z"/><path fill="#fff" d="M18.1 52.1A2.5 2.5 0 1 0 18.1 57.1A2.5 2.5 0 1 0 18.1 52.1Z"/><path fill="#ee3e54" d="M41.9 30.1A19.1 19.1 0 1 0 41.9 68.30000000000001A19.1 19.1 0 1 0 41.9 30.1Z"/><path fill="#472b29" d="M41.9,69C31,69,22.1,60.1,22.1,49.2S31,29.4,41.9,29.4s19.8,8.9,19.8,19.8S52.8,69,41.9,69z M41.9,30.8c-10.2,0-18.4,8.3-18.4,18.4c0,10.2,8.3,18.4,18.4,18.4c10.2,0,18.4-8.3,18.4-18.4C60.3,39.1,52,30.8,41.9,30.8z"/><path fill="#fdfcee" d="M42 32.7A16.4 16.5 0 1 0 42 65.7A16.4 16.5 0 1 0 42 32.7Z"/><path fill="#472b29" d="M42,66c-3.2,0-6.4-0.9-9.1-2.7c-7.8-5-10.2-15.5-5.2-23.3c2.4-3.8,6.2-6.4,10.5-7.3 c4.4-1,8.9-0.2,12.6,2.3c2.8,1.8,4.9,4.2,6.3,7.1c0.1,0.2,0,0.4-0.2,0.5c-0.2,0.1-0.4,0-0.5-0.2c-1.3-2.8-3.4-5.1-5.9-6.7 c-3.6-2.3-7.9-3.1-12.1-2.2c-4.2,0.9-7.7,3.4-10,7c-4.7,7.5-2.5,17.5,5,22.2c3,1.9,6.5,2.8,10.1,2.5c4.2-0.4,8.1-2.4,10.8-5.6 c2.7-3.3,4-7.4,3.7-11.6c0-0.2,0.1-0.4,0.4-0.4c0.2,0,0.4,0.1,0.4,0.4c0.4,4.5-1,8.8-3.9,12.2c-2.9,3.4-6.9,5.5-11.4,5.9 C43,66,42.5,66,42,66z"/><path fill="#fdfcee" d="M57.7,45.2c0.1,0.4,0.2,0.8,0.3,1.2"/><path fill="#472b29" d="M58,46.8c-0.2,0-0.4-0.1-0.4-0.3c-0.1-0.4-0.1-0.8-0.2-1.1c-0.1-0.2,0.1-0.4,0.3-0.5 c0.2-0.1,0.4,0.1,0.5,0.3c0.1,0.4,0.2,0.8,0.3,1.2C58.4,46.5,58.2,46.8,58,46.8C58,46.8,58,46.8,58,46.8z"/><path fill="#cbc9bc" d="M33.8,57.7c-0.2,0-0.4-0.1-0.6-0.2c-0.2-0.2-0.6-0.7,0.3-1.6l9.9-10c-0.1-0.6,0.1-1.2,0.5-1.7 l0.9-0.9c0.3-0.3,0.8-0.5,1.3-0.5l0,0c0.5,0,0.9,0.2,1.3,0.5c0.7,0.7,0.7,1.8,0,2.5l-0.9,0.9c-0.4,0.3-0.9,0.5-1.4,0.5h-0.3 l-9.9,10C34.6,57.5,34.2,57.7,33.8,57.7L33.8,57.7z"/><path fill="#472b29" d="M46.1 43.2c.3 0 .7.1.9.4.5.5.5 1.3 0 1.8l-.9.9c-.3.2-.7.4-1.1.3-.2 0-.3 0-.5 0L34.5 56.8c-.2.2-.4.4-.7.4-.1 0-.2 0-.2-.1-.3-.3 0-.7.3-.9L44 46c-.1-.5 0-1.1.3-1.5l.9-.9C45.5 43.3 45.8 43.2 46.1 43.2M46.2 42.2c-.6 0-1.2.2-1.6.7l-.9.9c-.5.5-.7 1.2-.7 1.9l-9.8 9.8c-1 1-.8 1.9-.3 2.3.2.3.6.4.9.4.5 0 1-.3 1.4-.7l9.8-9.8h.1c.7 0 1.3-.2 1.8-.6l.9-.9c.9-.9.9-2.4 0-3.3C47.4 42.4 46.8 42.2 46.2 42.2L46.2 42.2zM41.8 34.6c-.2 0-.4-.2-.4-.4v-1.5c0-.2.2-.4.4-.4s.4.2.4.4v1.5C42.1 34.4 42 34.6 41.8 34.6zM41.8 66c-.2 0-.4-.2-.4-.4v-1.9c0-.2.2-.4.4-.4s.4.2.4.4v1.9C42.1 65.9 42 66 41.8 66zM58.1 49.1H56c-.2 0-.4-.2-.4-.4s.2-.4.4-.4h2.1c.2 0 .4.2.4.4S58.3 49.1 58.1 49.1zM27.6 49.1h-2c-.2 0-.4-.2-.4-.4s.2-.4.4-.4h2c.2 0 .4.2.4.4S27.9 49.1 27.6 49.1zM51.8 39.4c-.1 0-.2 0-.3-.1-.1-.1-.1-.4 0-.5l1.4-1.4c.1-.1.4-.1.5 0s.1.4 0 .5l-1.4 1.4C52 39.4 51.9 39.4 51.8 39.4zM30.3 61.1c-.1 0-.2 0-.3-.1-.1-.1-.1-.4 0-.5l1.4-1.4c.1-.1.4-.1.5 0 .1.1.1.4 0 .5L30.6 61C30.5 61 30.4 61.1 30.3 61.1zM53.5 61.2c-.1 0-.2 0-.3-.1l-1.4-1.4c-.1-.1-.1-.4 0-.5.1-.1.4-.1.5 0l1.4 1.4c.1.1.1.4 0 .5C53.7 61.2 53.6 61.2 53.5 61.2zM31.7 39.2c-.1 0-.2 0-.3-.1l-1.4-1.4c-.1-.1-.1-.4 0-.5s.4-.1.5 0l1.4 1.4c.1.1.1.4 0 .5C31.9 39.2 31.8 39.2 31.7 39.2z"/><path fill="#472b29" d="M50.4 49.4h-6.8c-.2 0-.4-.2-.4-.4s.2-.4.4-.4h6.8c.2 0 .4.2.4.4S50.6 49.4 50.4 49.4zM41.7 48c-.2 0-.4-.2-.4-.4V36.5c0-.2.2-.4.4-.4s.4.2.4.4v11.1C42.1 47.8 41.9 48 41.7 48z"/><path fill="#f1bc19" d="M41.7 47.4A1.7 1.7 0 1 0 41.7 50.800000000000004A1.7 1.7 0 1 0 41.7 47.4Z"/><path fill="#472b29" d="M41.7,51.3c-1.2,0-2.2-1-2.2-2.2s1-2.2,2.2-2.2s2.2,1,2.2,2.2S42.9,51.3,41.7,51.3z M41.7,47.9 c-0.7,0-1.2,0.5-1.2,1.2s0.5,1.2,1.2,1.2s1.2-0.5,1.2-1.2S42.3,47.9,41.7,47.9z"/><path fill="#ce9065" d="M78.5,59.4c-0.1-1.6-1.2-2.9-2.7-3.3c-0.1,0-0.2-0.1-0.3-0.1L75,55.8c-1-0.4-7-2.7-7-2.7 c-0.4-0.1-0.8-0.5-1-0.9c-0.2-0.8-0.3-1.5-0.2-2.3c-1.3,0.5-2.7,0.8-4.1,1.2c-1.5,0.2-4.9-1.8-4.9-1.8s-0.1,2.5-0.2,3 c-0.1,0.5-0.5,0.8-1,0.9l-5.8,2.1c-0.6,0.1-1.3,0.4-1.9,0.7c-1.2,0.8-2.1,2-2.6,3.4c0,0-0.4,2.7-0.4,2.8c0,0.4-0.1,0.8-0.1,1.2 c6.3,4.3,11.4,5.5,20.1,5.1c4-0.2,9.8-2.1,12.9-3.7C78.8,61.4,78.5,59.4,78.5,59.4z"/><path fill="#f4989e" d="M75.8,56.2l-0.3-0.1L75,55.9c-0.6-0.3-3.2-1.2-5-1.9H70c-2,1-5,2.6-7.6,2.6S57,55.2,54.7,54 l-0.3,0.1l-3.6,1.3c-2.1,0.5-3.8,2.1-4.4,4.1c0,0-0.4,2.7-0.4,2.8c0,0.4-0.1,4.4-0.1,4.9c6.3,4.3,11.4,5.5,20.1,5.1 C70,72,75.9,70.1,79,68.5c-0.2-3.4-0.4-9.1-0.4-9.1C78.4,57.9,77.3,56.6,75.8,56.2z"/><path fill="#ee3e54" d="M54.6,54.3l1.4-0.5c1,1,4,1.8,5.9,2.3l-3.2,3.4L54.6,54.3z"/><path fill="#ee3e54" d="M55.9 54.4c.7.5 2.1 1.3 5.1 2l-2.3 2.3-3.3-4.2L55.9 54.4M56.2 53.1L53.8 54l4.9 6.2 4.3-4.5C62.9 55.8 56.5 54.4 56.2 53.1zM63.1 56.1c1.9-.5 4.8-1.3 5.9-2.3l1.3.7-3.9 4.9L63.1 56.1z"/><path fill="#ee3e54" d="M69.1,54.5l0.4,0.3l-3.2,4l-2.3-2.3C65.9,56,67.6,55.4,69.1,54.5 M68.9,53.2 c-0.3,1.3-6.7,2.6-6.7,2.6l4.3,4.5l4.5-5.8L68.9,53.2L68.9,53.2z"/><path fill="#ee3e54" d="M62 56.1H63V72.2H62z"/><path fill="#ee3e54" d="M64 62.8A.5.5 0 1 0 64 63.8.5.5 0 1 0 64 62.8zM64 66.5A.5.5 0 1 0 64 67.5.5.5 0 1 0 64 66.5zM64 70.2A.5.5 0 1 0 64 71.2.5.5 0 1 0 64 70.2z" opacity=".28"/><path fill="#ee3e54" d="M51.5 70.6c-.2 0-.3-.1-.3-.3v-3.2c0-.2.1-.3.3-.3s.3.1.3.3v3.2C51.8 70.5 51.7 70.6 51.5 70.6zM72.9 71.2c-.2 0-.3-.1-.3-.3v-3.8c0-.2.1-.3.3-.3s.3.1.3.3v3.8C73.2 71 73.1 71.2 72.9 71.2z"/><path fill="#db9e71" d="M72.3,37.9H72c-0.8,0-1,0.3-1-0.2c0.1-0.9,0-4.4,0-4.5c0-3.6-3.8-6.6-8.5-6.7h-0.2 c-4.7,0.2-8.5,3.1-8.5,6.7c0,0.2-0.1,3.7,0,4.5c0,0.5-0.2,0.2-1,0.2h-0.3c-0.8,0-1.5,0.5-1.7,1.3c0.1,0.1,0.5,3,1.1,4.2 c0.3,0.7,0.9,0.7,1.5,1.2c0.3,0.2,0.4,0.5,0.5,0.8c0.4,1.3,1.1,2.4,2.1,3.3c0.5,0.5,3.7,3.8,6.4,3.7s5.9-3.2,6.4-3.7 c1-0.9,1.8-2,2.2-3.3c0-0.3,0.2-0.6,0.5-0.8c0.6-0.4,1.1-0.5,1.5-1.2c0.5-1.4,0.9-2.8,1.1-4.2C73.8,38.4,73.1,37.8,72.3,37.9z"/><path fill="#512c2b" d="M62.4 43.6c.6 0 1.1-.2 1.4-.7 0 0 0-.1 0-.1 0 0 0 0 0 0l0 0c0 0-.1 0-.1 0-.7.7-1.8.7-2.6 0 0 0 0 0-.1 0 0 0 0 0-.1 0 0 0 0 .1 0 .1 0 0 0 0 0 0C61.3 43.3 61.8 43.6 62.4 43.6zM60.6 36.1l.3-.7c-1.5-.3-3.1-.3-4.6.1l.4.7C58 35.8 59.3 35.8 60.6 36.1zM68.1 36.1l.3-.7c-1.5-.3-3.1-.3-4.6.1l.4.7C65.5 35.8 66.8 35.8 68.1 36.1zM58.5 37c-.4 0-.7.3-.8.6h.1c.3 0 .6.3.6.6s-.3.6-.6.6c-.1 0-.2 0-.3-.1.1.5.5.9 1 .9.7-.2 1.2-.9 1-1.6C59.4 37.6 59 37.2 58.5 37L58.5 37zM66.3 37c-.3 0-.6.2-.8.4.1 0 .1 0 .2 0 .3 0 .5.3.5.6 0 .3-.2.6-.5.6 0 0 0 0 0 0-.2 0-.4-.1-.4-.3-.1.6.4 1.2 1 1.3.7-.2 1.2-.9 1-1.6C67.1 37.6 66.7 37.2 66.3 37L66.3 37zM66.7 45.1c0 0 0-.1 0-.1 0 0 0 0 0 0l0 0c0 0-.1 0-.1 0-1.2.8-2.7 1.2-4.2 1.2-1.5.1-2.9-.3-4.2-1.1h-.1c0 0 0 0-.1 0 0 0 0 .1 0 .1C60.7 46.9 64.1 46.9 66.7 45.1L66.7 45.1zM63.5 49.4c0 0 .1-.1.1-.1s0-.1-.1-.1h-2.1c0 0-.1.1-.1.1s0 .1.1.1H63.5z"/><path fill="#472b29" d="M63.3,72.9c-7.3,0-11.9-1.5-17.5-5.2c-0.1-0.1-0.2-0.2-0.2-0.4c0-1,0-6.1,0.6-7.8 c0.3-1.6,1.3-2.9,2.8-3.7c0.6-0.3,1.2-0.6,1.9-0.8l5.7-2.1c0.4-0.1,0.6-0.3,0.7-0.6c0-0.2,0.1-0.9,0.1-1.5 c-0.8-0.6-1.5-1.1-1.7-1.3c-1.1-1-1.9-2.2-2.3-3.6c0-0.3-0.1-0.5-0.3-0.6c-0.1-0.1-0.3-0.2-0.5-0.3c-0.4-0.2-0.8-0.5-1.1-1 c-0.7-1.4-1.1-2.9-1.2-4.4c0-0.1,0-0.1,0-0.2c0.3-1,1.2-1.6,2.2-1.7h0.3c0.2,0,0.3,0,0.5,0c0-0.9,0-2.7,0-4l0-0.3 c0-3.9,4-7.1,9-7.3l0.2,0c5.1,0.2,9,3.4,9,7.3l0,0.3c0,1.4,0,3.2,0,4c0.1,0,0.3,0,0.5,0h0.3c1,0,1.9,0.7,2.2,1.7 c0,0.1,0,0.1,0,0.2c-0.1,1.5-0.5,3-1.2,4.4c-0.3,0.6-0.8,0.8-1.1,1.1c-0.2,0.1-0.3,0.2-0.5,0.3c-0.1,0.1-0.2,0.3-0.3,0.5 c-0.4,1.5-1.2,2.7-2.3,3.7c-0.6,0.5-1.2,1-1.8,1.4c0,0.5,0.1,1,0.2,1.5c0.1,0.2,0.3,0.5,0.7,0.5c0.3,0.1,6.1,2.3,7.1,2.7l0.8,0.3 c1.7,0.4,2.9,1.9,3.1,3.7c0,0,0,0,0,0c0,0,0.3,5.6,0.5,9.1c0,0.2-0.1,0.4-0.3,0.5c-3.4,1.7-9.2,3.6-13.1,3.7 C65.1,72.8,64.2,72.9,63.3,72.9z M46.5,66.9c6,4,11,5.2,19.5,4.9c3.6-0.2,9.2-1.9,12.4-3.5c-0.2-3.4-0.4-8.6-0.5-8.7 c-0.1-1.3-1-2.5-2.3-2.8l-0.8-0.3c-1-0.4-6.9-2.6-7-2.7c-0.6-0.2-1-0.6-1.3-1.2c-0.2-0.7-0.3-1.4-0.2-2.1c0-0.2,0.1-0.3,0.2-0.4 c0.7-0.5,1.3-1,1.9-1.5c1-0.8,1.6-1.9,2-3.1c0-0.4,0.3-0.8,0.6-1.1c0.2-0.2,0.4-0.3,0.6-0.4c0.3-0.2,0.6-0.3,0.7-0.6 c0.6-1.2,1-2.6,1.1-4c-0.2-0.5-0.7-0.8-1.2-0.9H72c-0.2,0-0.4,0-0.5,0c-0.2,0-0.5,0.1-0.7-0.1c-0.2-0.2-0.2-0.5-0.2-0.6 c0.1-0.8,0-3.4,0-4.3l0-0.3c0-3.4-3.5-6.2-8-6.3l-0.2,0c-4.5,0.2-8,2.9-8,6.3l0,0.3c-0.1,2.3-0.1,3.7,0,4.2c0,0.2,0,0.5-0.2,0.7 c-0.2,0.2-0.5,0.1-0.7,0.1c-0.1,0-0.3-0.1-0.6,0l-0.3,0c-0.5,0-1,0.3-1.2,0.9c0.1,1.4,0.5,2.7,1.1,4c0.2,0.3,0.4,0.4,0.7,0.6 c0.2,0.1,0.4,0.2,0.6,0.4c0.4,0.3,0.6,0.7,0.7,1.2c0.3,1.1,1,2.2,2,3c0.1,0.1,0.8,0.7,1.8,1.4c0.1,0.1,0.2,0.2,0.2,0.4 c0,0.8-0.1,1.7-0.2,2c-0.2,0.7-0.7,1.2-1.4,1.3l-5.7,2.1c-0.6,0.2-1.2,0.4-1.7,0.7c-1.2,0.6-2.1,1.7-2.3,3 C46.7,60.9,46.5,64.3,46.5,66.9z"/><path fill="#895d3d" d="M72.4 41.8l-.6-.1.2-1.4-.7.3L71 40.2l1.2-.5c.1 0 .2 0 .3 0s.1.2.1.3L72.4 41.8zM52.6 41.6l-.2-1.9c0-.1 0-.2.1-.3.1-.1.2-.1.3 0l1.2.5-.2.5L53 40.1l.2 1.4L52.6 41.6z"/><path fill="#472b29" d="M53.7 45.2C53.7 45.2 53.7 45.2 53.7 45.2c-.1 0-.2-.1-.2-.2l.1-7c0-.1.1-.2.2-.2.1 0 .2.1.2.2l-.1 7C53.9 45.1 53.8 45.2 53.7 45.2zM71.1 45.2c-.1 0-.2-.1-.2-.2l-.1-7c0-.1.1-.2.2-.2 0 0 0 0 0 0 .1 0 .2.1.2.2l.1 7C71.3 45.1 71.2 45.2 71.1 45.2 71.1 45.2 71.1 45.2 71.1 45.2z"/><path fill="#512c2b" d="M54.7 34c.4-1.4 1-2.8 1.8-4-.3-.3-.8-.4-1.2-.3-1.1 1.6-1.7 3.5-1.6 5.4.1.9.2 1.7.5 2.5C54.5 36.5 54.4 35.2 54.7 34zM70 34c-.4-1.4-1-2.8-1.8-4 .3-.3.8-.4 1.2-.3 1.1 1.6 1.7 3.5 1.6 5.4-.1.9-.2 1.7-.6 2.5C70.3 36.5 70.3 35.2 70 34z"/><path fill="#512c2b" d="M63.3 31c1.6.5 3.3.5 4.8.1 1.6-.7 2.8-2.1 3.2-3.8-1.4.7-3-.4-4.4-1.1-3.6-1.7-7.9-.8-10.6 2.1-1.4 1.5-2.1 2.9.3 2.5C58.9 30.4 61.2 30.4 63.3 31zM66.1 44.1c1 .8-.8 1.6-1.5 1.2-.4-.2-.7-.6-1.2-.7-.5 0-.9.2-1.2.5-.3-.3-.7-.5-1.1-.5-.5 0-.7.4-1.2.7-.7.3-2.5-.4-1.5-1.2-.8.3-1.3 1.2-1 2 0 0 0 0 0 0 .4 1 2 1 2.8.9.3-.1.7-.2 1-.2.4 0 .9.5 1.3.3.3-.1.5-.2.8-.3.3 0 .7.1 1 .2.8.1 2.3.2 2.8-.9C67.4 45.3 67 44.4 66.1 44.1 66.1 44.1 66.1 44.1 66.1 44.1zM66.7 48.4c-.1.1-.1.1-.2.2-.3.7-.9 1.3-1.5 1.8-.5.4-1.1.7-1.5.1-.3-.5-.5-.8.3-.9.3-.8-.6-1-1.4-1s-1.7.2-1.4 1c.7 0 .5.5.3.9-.4.6-1 .3-1.5-.1-.5-.4-1-.9-1.3-1.4 0-.1-.1-.1-.1-.2-.2-.3-.6-.4-.9-.2-.1.1-.2.2-.2.3.2 1 .8 1.9 1.7 2.4l0 0c.4.2.8.4 1.2.6.5.9 1.4 1.4 2.4 1.5 1 0 1.9-.6 2.4-1.5.4-.2.7-.3 1.1-.5.7-.7 1.3-1.5 1.5-2.5C67.6 48.5 66.9 48.3 66.7 48.4z"/><path fill="#f1bc19" d="M69.9,37.1h-0.3h-0.9c-0.5,0-1.1,0-1.6,0c-0.8,0-1.6,0-2.4,0.2h-0.2c-0.6,0.1-1.2,0.2-1.8,0.5 c-0.4,0.2-0.9,0.2-1.3,0l-0.1-0.1c-0.2-0.1-0.3-0.1-0.5-0.2l-0.4-0.1c-0.7-0.1-1.4-0.3-2-0.3c-0.5,0-1-0.1-1.5,0h-0.6h-0.6 l-1.5,0.1c-0.3,0-0.8,0.1-1,0.3c0,0-0.1,0.1-0.1,0.2c0,0.2,0.1,0.4,0.1,0.6s0.1,0.4,0.1,0.7s0.3,0.3,0.6,0.5 c0.1,0,0.2,0.1,0.3,0.1c0.1,0.1,0.1,0.1,0.2,0.2l0,0l0.2,0.3c0.1,0.2,0.2,0.3,0.3,0.4c0.1,0.1,0.2,0.2,0.4,0.3 c0.2,0.1,0.3,0.1,0.5,0.2c1.3,0.3,2.5,0.3,3.8,0.3c0.7,0,1.3-0.4,1.5-1c0.1-0.2,0.1-0.4,0.2-0.6l0.1-0.3c0-0.2,0.2-0.3,0.4-0.3 h0.5c0.3,0,0.4,0,0.5,0.4l0.1,0.2c0.1,0.3,0.3,0.7,0.4,1c0.2,0.3,0.4,0.6,0.8,0.7c0.2,0,0.3,0.1,0.5,0.1c0.3,0,0.6,0,0.9,0 c0.9,0,1.7-0.1,2.6-0.2c0.6,0,1.2-0.4,1.5-1c0.1-0.2,0.2-0.4,0.4-0.5c0.1-0.1,0.2-0.1,0.3-0.2c0.3-0.1,0.5-0.2,0.6-0.3h0.1 c0,0,0.1,0,0.1-0.1c0-0.1,0-0.3,0-0.4c0-0.3,0.1-0.6,0.1-0.9S70.5,37.1,69.9,37.1z M65.3,37.6l0.9-0.1h1.1c0.1,0,0.3,0,0.4,0 c0.4,0,0.8,0.1,1.1,0.1s0.5,0.2,0.5,0.6c0,0.6-0.1,1.1-0.4,1.6c-0.1,0.1-0.2,0.2-0.3,0.3c-0.5,0.2-1,0.4-1.6,0.4 c-0.7,0-1.3,0-2,0h-0.3c-0.4,0-0.8-0.3-1-0.7c-0.3-0.5-0.4-1.1-0.4-1.6c0-0.2,0.1-0.3,0.3-0.4c0.4-0.2,0.9-0.3,1.4-0.3L65.3,37.6 z M60.9,38.6c0,0.6-0.2,1.2-0.6,1.7c-0.2,0.2-0.5,0.4-0.8,0.4c-0.4,0-0.8,0-1.2,0l0,0c-0.8,0-1.5-0.1-2.3-0.3 c-0.2-0.1-0.5-0.1-0.7-0.3c-0.1-0.1-0.2-0.2-0.3-0.3c-0.2-0.5-0.3-1.1-0.4-1.6c0-0.4,0.1-0.6,0.5-0.6s0.8-0.1,1.3-0.1h0.5 c1.1,0,2.1,0.1,3.2,0.4l0.2,0.1C60.9,38.1,60.9,38.2,60.9,38.6L60.9,38.6z"/></svg>