<svg width="25" height="25" viewBox="0 0 25 25" fill="none" xmlns="http://www.w3.org/2000/svg">
<path d="M21.8362 7.14746C21.4262 6.92746 20.5662 6.69746 19.3962 7.51746L17.9262 8.55746C17.8162 5.44746 16.4662 4.22746 13.1862 4.22746H7.18616C3.76616 4.22746 2.43616 5.55746 2.43616 8.97746V16.9775C2.43616 19.2775 3.68616 21.7275 7.18616 21.7275H13.1862C16.4662 21.7275 17.8162 20.5075 17.9262 17.3975L19.3962 18.4375C20.0162 18.8775 20.5562 19.0175 20.9862 19.0175C21.3562 19.0175 21.6462 18.9075 21.8362 18.8075C22.2462 18.5975 22.9362 18.0275 22.9362 16.5975V9.35746C22.9362 7.92746 22.2462 7.35746 21.8362 7.14746ZM11.6862 12.3575C10.6562 12.3575 9.80616 11.5175 9.80616 10.4775C9.80616 9.43746 10.6562 8.59746 11.6862 8.59746C12.7162 8.59746 13.5662 9.43746 13.5662 10.4775C13.5662 11.5175 12.7162 12.3575 11.6862 12.3575Z" fill="#BA4141"/>
</svg>
