<svg width="25" height="25" viewBox="0 0 25 25" fill="none" xmlns="http://www.w3.org/2000/svg">
  <path d="M19.776 13.568c-.16 0-.32-.05-.46-.16-4.03-3.11-9.24-3.11-13.27 0-.33.25-.8.19-1.05-.13-.25-.33-.19-.8.13-1.05 4.59-3.55 10.52-3.55 15.1 0 .33.25.39.72.13 1.05-.13.19-.35.29-.58.29Z" fill="#2B59FF"/>
  <path d="M22.686 10.088c-.16 0-.32-.05-.46-.16-5.8-4.48-13.29-4.48-19.08 0-.33.25-.8.19-1.05-.13a.74.74 0 0 1 .13-1.05c6.35-4.91 14.56-4.91 20.92 0 .33.25.39.72.13 1.05-.14.19-.37.29-.59.29Zm-4.79 7.13c-.16 0-.32-.05-.46-.16-2.88-2.23-6.61-2.23-9.5 0-.33.25-.8.19-1.05-.13-.25-.33-.19-.8.13-1.05 3.44-2.66 7.89-2.66 11.33 0 .33.25.39.72.13 1.05a.72.72 0 0 1-.58.29Zm-2.61 3.66c-.16 0-.32-.05-.46-.16-1.3-1.01-2.99-1.01-4.29 0-.33.25-.8.19-1.05-.13-.25-.33-.19-.8.13-1.05 1.86-1.44 4.26-1.44 6.12 0 .33.25.39.72.13 1.05a.72.72 0 0 1-.58.29Z" fill="#2B59FF"/>
</svg>
